<svg width="137" height="278" viewBox="0 0 137 278" fill="none" xmlns="http://www.w3.org/2000/svg">
<mask id="mask0_217_518" style="mask-type:alpha" maskUnits="userSpaceOnUse" x="0" y="0" width="137" height="278">
<rect width="137" height="278" rx="4" fill="#D9D9D9"/>
</mask>
<g mask="url(#mask0_217_518)">
<g clip-path="url(#clip0_217_518)">
<rect x="24" y="-1" width="104.5" height="478" rx="4" fill="#FBFBFF"/>
<path d="M53.652 12.172V18H52.292V15.536H49.924V18H48.564V12.172H49.924V14.608H52.292V12.172H53.652ZM56.1428 13.212V14.572H57.9748V15.572H56.1428V16.96H58.5347V18H54.7828V12.172H58.5347V13.212H56.1428ZM62.8807 16.92V18H59.3687V12.172H60.7207V16.92H62.8807ZM67.0838 16.92V18H63.5718V12.172H64.9238V16.92H67.0838ZM73.3543 15.084C73.3543 15.5053 73.281 15.8973 73.1343 16.26C72.9903 16.6227 72.7863 16.9387 72.5223 17.208C72.2583 17.4747 71.9396 17.684 71.5663 17.836C71.1956 17.988 70.7836 18.064 70.3303 18.064C69.877 18.064 69.4636 17.988 69.0903 17.836C68.717 17.684 68.397 17.4747 68.1303 17.208C67.8663 16.9387 67.661 16.6227 67.5143 16.26C67.3703 15.8973 67.2983 15.5053 67.2983 15.084C67.2983 14.6627 67.3703 14.2707 67.5143 13.908C67.661 13.5453 67.8663 13.2307 68.1303 12.964C68.397 12.6973 68.717 12.488 69.0903 12.336C69.4636 12.184 69.877 12.108 70.3303 12.108C70.7836 12.108 71.1956 12.1853 71.5663 12.34C71.9396 12.492 72.2583 12.7013 72.5223 12.968C72.7863 13.2347 72.9903 13.5493 73.1343 13.912C73.281 14.2747 73.3543 14.6653 73.3543 15.084ZM71.9703 15.084C71.9703 14.796 71.933 14.5373 71.8583 14.308C71.7836 14.076 71.6756 13.88 71.5343 13.72C71.3956 13.56 71.225 13.4373 71.0223 13.352C70.8196 13.2667 70.589 13.224 70.3303 13.224C70.069 13.224 69.8356 13.2667 69.6303 13.352C69.4276 13.4373 69.2556 13.56 69.1143 13.72C68.9756 13.88 68.869 14.076 68.7943 14.308C68.7196 14.5373 68.6823 14.796 68.6823 15.084C68.6823 15.3747 68.7196 15.636 68.7943 15.868C68.869 16.0973 68.9756 16.292 69.1143 16.452C69.2556 16.612 69.4276 16.7347 69.6303 16.82C69.8356 16.9027 70.069 16.944 70.3303 16.944C70.589 16.944 70.8196 16.9027 71.0223 16.82C71.225 16.7347 71.3956 16.612 71.5343 16.452C71.6756 16.292 71.7836 16.0973 71.8583 15.868C71.933 15.636 71.9703 15.3747 71.9703 15.084ZM77.3699 13.356C77.3299 13.42 77.2873 13.468 77.2419 13.5C77.1993 13.532 77.1433 13.548 77.0739 13.548C77.0126 13.548 76.9459 13.5293 76.8739 13.492C76.8046 13.452 76.7246 13.408 76.6339 13.36C76.5459 13.312 76.4446 13.2693 76.3299 13.232C76.2153 13.192 76.0846 13.172 75.9379 13.172C75.6846 13.172 75.4953 13.2267 75.3699 13.336C75.2473 13.4427 75.1859 13.588 75.1859 13.772C75.1859 13.8893 75.2233 13.9867 75.2979 14.064C75.3726 14.1413 75.4699 14.208 75.5899 14.264C75.7126 14.32 75.8513 14.372 76.0059 14.42C76.1633 14.4653 76.3233 14.5173 76.4859 14.576C76.6486 14.632 76.8073 14.6987 76.9619 14.776C77.1193 14.8533 77.2579 14.952 77.3779 15.072C77.5006 15.192 77.5993 15.3387 77.6739 15.512C77.7486 15.6827 77.7859 15.8893 77.7859 16.132C77.7859 16.4013 77.7393 16.6533 77.6459 16.888C77.5526 17.1227 77.4166 17.328 77.2379 17.504C77.0619 17.6773 76.8433 17.8147 76.5819 17.916C76.3233 18.0147 76.0286 18.064 75.6979 18.064C75.5166 18.064 75.3313 18.0453 75.1419 18.008C74.9553 17.9707 74.7739 17.9187 74.5979 17.852C74.4219 17.7827 74.2566 17.7013 74.1019 17.608C73.9473 17.5147 73.8126 17.4107 73.6979 17.296L74.0979 16.664C74.1299 16.6187 74.1713 16.5813 74.2219 16.552C74.2753 16.52 74.3326 16.504 74.3939 16.504C74.4739 16.504 74.5539 16.5293 74.6339 16.58C74.7166 16.6307 74.8086 16.6867 74.9099 16.748C75.0139 16.8093 75.1326 16.8653 75.2659 16.916C75.3993 16.9667 75.5566 16.992 75.7379 16.992C75.9833 16.992 76.1739 16.9387 76.3099 16.832C76.4459 16.7227 76.5139 16.5507 76.5139 16.316C76.5139 16.18 76.4766 16.0693 76.4019 15.984C76.3273 15.8987 76.2286 15.828 76.1059 15.772C75.9859 15.716 75.8486 15.6667 75.6939 15.624C75.5393 15.5813 75.3806 15.5347 75.2179 15.484C75.0553 15.4307 74.8966 15.3667 74.7419 15.292C74.5873 15.2147 74.4486 15.1147 74.3259 14.992C74.2059 14.8667 74.1086 14.712 74.0339 14.528C73.9593 14.3413 73.9219 14.112 73.9219 13.84C73.9219 13.6213 73.9659 13.408 74.0539 13.2C74.1419 12.992 74.2713 12.8067 74.4419 12.644C74.6126 12.4813 74.8219 12.352 75.0699 12.256C75.3179 12.1573 75.6019 12.108 75.9219 12.108C76.1006 12.108 76.2739 12.1227 76.4419 12.152C76.6126 12.1787 76.7739 12.22 76.9259 12.276C77.0779 12.3293 77.2193 12.3947 77.3499 12.472C77.4833 12.5467 77.6019 12.632 77.7059 12.728L77.3699 13.356ZM79.9396 18H78.5796V12.172H79.9396V18ZM85.252 13.244H83.612V18H82.26V13.244H80.62V12.172H85.252V13.244ZM87.299 13.212V14.572H89.131V15.572H87.299V16.96H89.691V18H85.939V12.172H89.691V13.212H87.299Z" fill="#7E57C2"/>
<g filter="url(#filter0_d_217_518)">
<rect x="32" y="7.5" width="13" height="13" rx="1.5" fill="white"/>
</g>
<path d="M49.99 210V204.96H50.6515L52.4785 208.75L54.295 204.96H54.9635V209.996H54.2705V206.549L52.643 210H52.3105L50.6795 206.549V210H49.99ZM57.6206 210.105C57.2449 210.105 56.9148 210.023 56.6301 209.86C56.3478 209.694 56.1273 209.464 55.9686 209.17C55.8123 208.874 55.7341 208.531 55.7341 208.141C55.7341 207.728 55.8111 207.37 55.9651 207.067C56.1214 206.764 56.3384 206.529 56.6161 206.363C56.8938 206.198 57.2169 206.115 57.5856 206.115C57.9706 206.115 58.2984 206.205 58.5691 206.385C58.8398 206.562 59.0416 206.815 59.1746 207.144C59.3099 207.473 59.3636 207.864 59.3356 208.316H58.6041V208.05C58.5994 207.612 58.5154 207.287 58.3521 207.077C58.1911 206.867 57.9449 206.762 57.6136 206.762C57.2473 206.762 56.9719 206.878 56.7876 207.109C56.6033 207.34 56.5111 207.674 56.5111 208.11C56.5111 208.525 56.6033 208.847 56.7876 209.076C56.9719 209.302 57.2379 209.415 57.5856 209.415C57.8143 209.415 58.0114 209.364 58.1771 209.261C58.3451 209.156 58.4758 209.007 58.5691 208.813L59.2866 209.041C59.1396 209.379 58.9168 209.642 58.6181 209.828C58.3194 210.013 57.9869 210.105 57.6206 210.105ZM56.2731 208.316V207.746H58.9716V208.316H56.2731ZM61.5664 210.102C61.1067 210.102 60.7322 210 60.4429 209.797C60.1535 209.594 59.9762 209.308 59.9109 208.939L60.6599 208.824C60.7065 209.02 60.8139 209.175 60.9819 209.289C61.1522 209.401 61.3634 209.457 61.6154 209.457C61.844 209.457 62.0225 209.411 62.1509 209.317C62.2815 209.224 62.3469 209.096 62.3469 208.932C62.3469 208.837 62.3235 208.76 62.2769 208.701C62.2325 208.641 62.138 208.584 61.9934 208.53C61.8487 208.476 61.6282 208.41 61.3319 208.33C61.0075 208.246 60.7497 208.157 60.5584 208.061C60.3694 207.963 60.234 207.85 60.1524 207.721C60.073 207.591 60.0334 207.433 60.0334 207.249C60.0334 207.02 60.094 206.821 60.2154 206.65C60.3367 206.48 60.507 206.348 60.7264 206.255C60.948 206.162 61.207 206.115 61.5034 206.115C61.7927 206.115 62.0505 206.16 62.2769 206.251C62.5032 206.342 62.6864 206.472 62.8264 206.64C62.9664 206.806 63.0504 207 63.0784 207.224L62.3294 207.361C62.3037 207.179 62.2185 207.035 62.0739 206.93C61.9292 206.825 61.7414 206.768 61.5104 206.759C61.2887 206.75 61.109 206.787 60.9714 206.871C60.8337 206.953 60.7649 207.066 60.7649 207.21C60.7649 207.294 60.7905 207.366 60.8419 207.424C60.8955 207.482 60.9982 207.538 61.1499 207.592C61.3015 207.646 61.5255 207.71 61.8219 207.784C62.1392 207.866 62.3912 207.957 62.5779 208.057C62.7645 208.155 62.8975 208.273 62.9769 208.411C63.0585 208.546 63.0994 208.711 63.0994 208.904C63.0994 209.278 62.9629 209.571 62.6899 209.783C62.4192 209.995 62.0447 210.102 61.5664 210.102ZM65.3193 210.102C64.8596 210.102 64.4851 210 64.1958 209.797C63.9065 209.594 63.7291 209.308 63.6638 208.939L64.4128 208.824C64.4595 209.02 64.5668 209.175 64.7348 209.289C64.9051 209.401 65.1163 209.457 65.3683 209.457C65.597 209.457 65.7755 209.411 65.9038 209.317C66.0345 209.224 66.0998 209.096 66.0998 208.932C66.0998 208.837 66.0765 208.76 66.0298 208.701C65.9855 208.641 65.891 208.584 65.7463 208.53C65.6016 208.476 65.3811 208.41 65.0848 208.33C64.7605 208.246 64.5026 208.157 64.3113 208.061C64.1223 207.963 63.987 207.85 63.9053 207.721C63.826 207.591 63.7863 207.433 63.7863 207.249C63.7863 207.02 63.847 206.821 63.9683 206.65C64.0896 206.48 64.26 206.348 64.4793 206.255C64.701 206.162 64.96 206.115 65.2563 206.115C65.5456 206.115 65.8035 206.16 66.0298 206.251C66.2561 206.342 66.4393 206.472 66.5793 206.64C66.7193 206.806 66.8033 207 66.8313 207.224L66.0823 207.361C66.0566 207.179 65.9715 207.035 65.8268 206.93C65.6821 206.825 65.4943 206.768 65.2633 206.759C65.0416 206.75 64.862 206.787 64.7243 206.871C64.5866 206.953 64.5178 207.066 64.5178 207.21C64.5178 207.294 64.5435 207.366 64.5948 207.424C64.6485 207.482 64.7511 207.538 64.9028 207.592C65.0545 207.646 65.2785 207.71 65.5748 207.784C65.8921 207.866 66.1441 207.957 66.3308 208.057C66.5175 208.155 66.6505 208.273 66.7298 208.411C66.8115 208.546 66.8523 208.711 66.8523 208.904C66.8523 209.278 66.7158 209.571 66.4428 209.783C66.1721 209.995 65.7976 210.102 65.3193 210.102ZM68.6942 210.105C68.4142 210.105 68.1797 210.054 67.9907 209.951C67.8017 209.846 67.6582 209.708 67.5602 209.538C67.4646 209.365 67.4167 209.176 67.4167 208.971C67.4167 208.78 67.4506 208.612 67.5182 208.467C67.5859 208.322 67.6862 208.2 67.8192 208.099C67.9522 207.997 68.1156 207.914 68.3092 207.851C68.4772 207.802 68.6674 207.759 68.8797 207.721C69.0921 207.684 69.3149 207.649 69.5482 207.616C69.7839 207.584 70.0172 207.551 70.2482 207.518L69.9822 207.665C69.9869 207.369 69.9239 207.15 69.7932 207.007C69.6649 206.863 69.4432 206.79 69.1282 206.79C68.9299 206.79 68.7479 206.837 68.5822 206.93C68.4166 207.021 68.3011 207.173 68.2357 207.385L67.5532 207.175C67.6466 206.851 67.8239 206.593 68.0852 206.402C68.3489 206.211 68.6989 206.115 69.1352 206.115C69.4736 206.115 69.7676 206.173 70.0172 206.29C70.2692 206.404 70.4536 206.586 70.5702 206.836C70.6309 206.96 70.6682 207.09 70.6822 207.228C70.6962 207.366 70.7032 207.514 70.7032 207.672V210H70.0557V209.135L70.1817 209.247C70.0254 209.537 69.8259 209.753 69.5832 209.895C69.3429 210.035 69.0466 210.105 68.6942 210.105ZM68.8237 209.506C69.0314 209.506 69.2099 209.47 69.3592 209.398C69.5086 209.323 69.6287 209.229 69.7197 209.114C69.8107 209 69.8702 208.881 69.8982 208.757C69.9379 208.645 69.9601 208.519 69.9647 208.379C69.9717 208.239 69.9752 208.127 69.9752 208.043L70.2132 208.131C69.9822 208.166 69.7722 208.197 69.5832 208.225C69.3942 208.253 69.2227 208.281 69.0687 208.309C68.9171 208.335 68.7817 208.367 68.6627 208.404C68.5624 208.439 68.4726 208.481 68.3932 208.53C68.3162 208.579 68.2544 208.638 68.2077 208.708C68.1634 208.778 68.1412 208.864 68.1412 208.964C68.1412 209.062 68.1657 209.153 68.2147 209.237C68.2637 209.319 68.3384 209.384 68.4387 209.433C68.5391 209.482 68.6674 209.506 68.8237 209.506ZM73.1696 211.785C72.9666 211.785 72.7694 211.754 72.5781 211.691C72.3891 211.628 72.2164 211.534 72.0601 211.411C71.9037 211.289 71.7742 211.139 71.6716 210.959L72.3471 210.616C72.4287 210.777 72.5454 210.895 72.6971 210.97C72.8487 211.044 73.0086 211.082 73.1766 211.082C73.3842 211.082 73.5616 211.044 73.7086 210.97C73.8556 210.897 73.9664 210.788 74.0411 210.641C74.1181 210.494 74.1554 210.312 74.1531 210.095V209.037H74.2406V206.22H74.8881V210.102C74.8881 210.202 74.8846 210.298 74.8776 210.389C74.8706 210.48 74.8577 210.571 74.8391 210.662C74.7854 210.916 74.6827 211.126 74.5311 211.292C74.3817 211.457 74.1904 211.581 73.9571 211.663C73.7261 211.744 73.4636 211.785 73.1696 211.785ZM73.1136 210.105C72.7612 210.105 72.4567 210.018 72.2001 209.842C71.9457 209.667 71.7486 209.429 71.6086 209.128C71.4709 208.825 71.4021 208.484 71.4021 208.106C71.4021 207.726 71.4721 207.387 71.6121 207.088C71.7521 206.787 71.9504 206.55 72.2071 206.377C72.4661 206.202 72.7729 206.115 73.1276 206.115C73.4846 206.115 73.7844 206.202 74.0271 206.377C74.2721 206.55 74.4564 206.787 74.5801 207.088C74.7061 207.389 74.7691 207.728 74.7691 208.106C74.7691 208.484 74.7061 208.824 74.5801 209.125C74.4541 209.426 74.2686 209.665 74.0236 209.842C73.7786 210.018 73.4752 210.105 73.1136 210.105ZM73.2151 209.443C73.4554 209.443 73.6514 209.386 73.8031 209.272C73.9547 209.158 74.0656 209 74.1356 208.799C74.2056 208.599 74.2406 208.368 74.2406 208.106C74.2406 207.845 74.2044 207.614 74.1321 207.413C74.0621 207.213 73.9524 207.056 73.8031 206.944C73.6561 206.832 73.4682 206.776 73.2396 206.776C72.9969 206.776 72.7974 206.836 72.6411 206.955C72.4847 207.074 72.3681 207.234 72.2911 207.434C72.2164 207.635 72.1791 207.859 72.1791 208.106C72.1791 208.356 72.2164 208.582 72.2911 208.785C72.3681 208.986 72.4824 209.146 72.6341 209.265C72.7881 209.384 72.9817 209.443 73.2151 209.443ZM77.5474 210.105C77.1717 210.105 76.8415 210.023 76.5569 209.86C76.2745 209.694 76.054 209.464 75.8954 209.17C75.739 208.874 75.6609 208.531 75.6609 208.141C75.6609 207.728 75.7379 207.37 75.8919 207.067C76.0482 206.764 76.2652 206.529 76.5429 206.363C76.8205 206.198 77.1437 206.115 77.5124 206.115C77.8974 206.115 78.2252 206.205 78.4959 206.385C78.7665 206.562 78.9684 206.815 79.1014 207.144C79.2367 207.473 79.2904 207.864 79.2624 208.316H78.5309V208.05C78.5262 207.612 78.4422 207.287 78.2789 207.077C78.1179 206.867 77.8717 206.762 77.5404 206.762C77.174 206.762 76.8987 206.878 76.7144 207.109C76.53 207.34 76.4379 207.674 76.4379 208.11C76.4379 208.525 76.53 208.847 76.7144 209.076C76.8987 209.302 77.1647 209.415 77.5124 209.415C77.741 209.415 77.9382 209.364 78.1039 209.261C78.2719 209.156 78.4025 209.007 78.4959 208.813L79.2134 209.041C79.0664 209.379 78.8435 209.642 78.5449 209.828C78.2462 210.013 77.9137 210.105 77.5474 210.105ZM76.1999 208.316V207.746H78.8984V208.316H76.1999ZM81.4931 210.102C81.0335 210.102 80.659 210 80.3696 209.797C80.0803 209.594 79.903 209.308 79.8376 208.939L80.5866 208.824C80.6333 209.02 80.7406 209.175 80.9086 209.289C81.079 209.401 81.2901 209.457 81.5421 209.457C81.7708 209.457 81.9493 209.411 82.0776 209.317C82.2083 209.224 82.2736 209.096 82.2736 208.932C82.2736 208.837 82.2503 208.76 82.2036 208.701C82.1593 208.641 82.0648 208.584 81.9201 208.53C81.7755 208.476 81.555 208.41 81.2586 208.33C80.9343 208.246 80.6765 208.157 80.4851 208.061C80.2961 207.963 80.1608 207.85 80.0791 207.721C79.9998 207.591 79.9601 207.433 79.9601 207.249C79.9601 207.02 80.0208 206.821 80.1421 206.65C80.2635 206.48 80.4338 206.348 80.6531 206.255C80.8748 206.162 81.1338 206.115 81.4301 206.115C81.7195 206.115 81.9773 206.16 82.2036 206.251C82.43 206.342 82.6131 206.472 82.7531 206.64C82.8931 206.806 82.9771 207 83.0051 207.224L82.2561 207.361C82.2305 207.179 82.1453 207.035 82.0006 206.93C81.856 206.825 81.6681 206.768 81.4371 206.759C81.2155 206.75 81.0358 206.787 80.8981 206.871C80.7605 206.953 80.6916 207.066 80.6916 207.21C80.6916 207.294 80.7173 207.366 80.7686 207.424C80.8223 207.482 80.925 207.538 81.0766 207.592C81.2283 207.646 81.4523 207.71 81.7486 207.784C82.066 207.866 82.318 207.957 82.5046 208.057C82.6913 208.155 82.8243 208.273 82.9036 208.411C82.9853 208.546 83.0261 208.711 83.0261 208.904C83.0261 209.278 82.8896 209.571 82.6166 209.783C82.346 209.995 81.9715 210.102 81.4931 210.102Z" fill="#808191"/>
<path fill-rule="evenodd" clip-rule="evenodd" d="M38.002 206.902C38.002 206.681 38.1812 206.502 38.4023 206.502H41.6051C41.8262 206.502 42.0054 206.681 42.0054 206.902C42.0054 207.123 41.8262 207.302 41.6051 207.302H38.4023C38.1812 207.302 38.002 207.123 38.002 206.902Z" fill="#808191"/>
<path fill-rule="evenodd" clip-rule="evenodd" d="M38.002 208.503C38.002 208.282 38.1812 208.103 38.4023 208.103H40.0037C40.2248 208.103 40.404 208.282 40.404 208.503C40.404 208.724 40.2248 208.904 40.0037 208.904H38.4023C38.1812 208.904 38.002 208.724 38.002 208.503Z" fill="#808191"/>
<path fill-rule="evenodd" clip-rule="evenodd" d="M37.8895 210.29C38.0334 210.171 38.2148 210.105 38.4021 210.105H42.8059C43.027 210.105 43.2062 209.926 43.2062 209.705V205.701C43.2062 205.48 43.027 205.301 42.8059 205.301H37.201C36.9799 205.301 36.8007 205.48 36.8007 205.701V211.198L37.8895 210.29ZM38.4021 210.906H42.8059C43.4692 210.906 44.0069 210.368 44.0069 209.705V205.701C44.0069 205.038 43.4692 204.5 42.8059 204.5H37.201C36.5377 204.5 36 205.038 36 205.701V211.198C36 211.877 36.7918 212.247 37.3133 211.813L38.4021 210.906Z" fill="#808191"/>
<path d="M52.0935 183.605C51.5895 183.605 51.1602 183.495 50.8055 183.276C50.4508 183.054 50.179 182.746 49.99 182.352C49.8033 181.958 49.71 181.5 49.71 180.98C49.71 180.46 49.8033 180.002 49.99 179.608C50.179 179.214 50.4508 178.907 50.8055 178.687C51.1602 178.466 51.5895 178.355 52.0935 178.355C52.6745 178.355 53.1552 178.502 53.5355 178.796C53.9182 179.09 54.1842 179.485 54.3335 179.983L53.5915 180.182C53.4935 179.83 53.3185 179.553 53.0665 179.352C52.8168 179.152 52.4925 179.051 52.0935 179.051C51.7365 179.051 51.439 179.132 51.201 179.293C50.963 179.454 50.7833 179.679 50.662 179.968C50.543 180.258 50.4835 180.595 50.4835 180.98C50.4812 181.365 50.5395 181.702 50.6585 181.991C50.7798 182.281 50.9595 182.506 51.1975 182.667C51.4378 182.828 51.7365 182.908 52.0935 182.908C52.4925 182.908 52.8168 182.808 53.0665 182.607C53.3185 182.404 53.4935 182.128 53.5915 181.778L54.3335 181.977C54.1842 182.474 53.9182 182.87 53.5355 183.164C53.1552 183.458 52.6745 183.605 52.0935 183.605ZM56.5278 183.602C56.2664 183.602 56.0471 183.56 55.8698 183.475C55.6924 183.391 55.5478 183.282 55.4358 183.146C55.3261 183.009 55.2421 182.859 55.1838 182.698C55.1254 182.537 55.0858 182.38 55.0648 182.226C55.0438 182.072 55.0333 181.937 55.0333 181.82V179.72H55.7753V181.578C55.7753 181.725 55.7869 181.877 55.8103 182.033C55.8359 182.187 55.8826 182.331 55.9503 182.464C56.0203 182.597 56.1171 182.704 56.2408 182.786C56.3668 182.868 56.5301 182.908 56.7308 182.908C56.8614 182.908 56.9851 182.887 57.1018 182.845C57.2184 182.801 57.3199 182.731 57.4063 182.635C57.4949 182.54 57.5638 182.414 57.6128 182.257C57.6641 182.101 57.6898 181.911 57.6898 181.687L58.1448 181.858C58.1448 182.201 58.0806 182.505 57.9523 182.768C57.8239 183.03 57.6396 183.234 57.3993 183.381C57.1589 183.528 56.8684 183.602 56.5278 183.602ZM57.7773 183.5V182.408H57.6898V179.72H58.4283V183.5H57.7773ZM60.8554 183.602C60.3958 183.602 60.0213 183.5 59.7319 183.297C59.4426 183.094 59.2653 182.808 59.1999 182.439L59.9489 182.324C59.9956 182.52 60.1029 182.675 60.2709 182.789C60.4413 182.901 60.6524 182.957 60.9044 182.957C61.1331 182.957 61.3116 182.911 61.4399 182.817C61.5706 182.724 61.6359 182.596 61.6359 182.432C61.6359 182.337 61.6126 182.26 61.5659 182.201C61.5216 182.141 61.4271 182.084 61.2824 182.03C61.1378 181.976 60.9173 181.91 60.6209 181.83C60.2966 181.746 60.0388 181.657 59.8474 181.561C59.6584 181.463 59.5231 181.35 59.4414 181.221C59.3621 181.091 59.3224 180.933 59.3224 180.749C59.3224 180.52 59.3831 180.321 59.5044 180.15C59.6258 179.98 59.7961 179.848 60.0154 179.755C60.2371 179.662 60.4961 179.615 60.7924 179.615C61.0818 179.615 61.3396 179.66 61.5659 179.751C61.7923 179.842 61.9754 179.972 62.1154 180.14C62.2554 180.306 62.3394 180.5 62.3674 180.724L61.6184 180.861C61.5928 180.679 61.5076 180.535 61.3629 180.43C61.2183 180.325 61.0304 180.268 60.7994 180.259C60.5778 180.25 60.3981 180.287 60.2604 180.371C60.1228 180.453 60.0539 180.566 60.0539 180.71C60.0539 180.794 60.0796 180.866 60.1309 180.924C60.1846 180.982 60.2873 181.038 60.4389 181.092C60.5906 181.146 60.8146 181.21 61.1109 181.284C61.4283 181.366 61.6803 181.457 61.8669 181.557C62.0536 181.655 62.1866 181.773 62.2659 181.911C62.3476 182.046 62.3884 182.211 62.3884 182.404C62.3884 182.778 62.2519 183.071 61.9789 183.283C61.7083 183.495 61.3338 183.602 60.8554 183.602ZM65.3259 183.5C65.0879 183.547 64.8545 183.567 64.6259 183.56C64.3972 183.553 64.193 183.508 64.0134 183.426C63.8337 183.345 63.6984 183.216 63.6074 183.041C63.5257 182.885 63.4814 182.726 63.4744 182.565C63.4697 182.402 63.4674 182.218 63.4674 182.012V178.67H64.2024V181.977C64.2024 182.129 64.2035 182.261 64.2059 182.373C64.2105 182.485 64.235 182.579 64.2794 182.656C64.3634 182.801 64.4964 182.884 64.6784 182.905C64.8627 182.924 65.0785 182.915 65.3259 182.88V183.5ZM62.7429 180.308V179.72H65.3259V180.308H62.7429ZM67.5934 183.605C67.2154 183.605 66.8876 183.52 66.6099 183.349C66.3322 183.179 66.1176 182.945 65.9659 182.646C65.8166 182.345 65.7419 181.998 65.7419 181.606C65.7419 181.212 65.8189 180.866 65.9729 180.567C66.1269 180.266 66.3427 180.033 66.6204 179.867C66.8981 179.699 67.2224 179.615 67.5934 179.615C67.9714 179.615 68.2992 179.7 68.5769 179.87C68.8546 180.041 69.0692 180.275 69.2209 180.574C69.3726 180.873 69.4484 181.217 69.4484 181.606C69.4484 182.001 69.3714 182.348 69.2174 182.649C69.0657 182.948 68.8511 183.183 68.5734 183.353C68.2957 183.521 67.9691 183.605 67.5934 183.605ZM67.5934 182.915C67.9551 182.915 68.2246 182.794 68.4019 182.551C68.5816 182.306 68.6714 181.991 68.6714 181.606C68.6714 181.212 68.5804 180.897 68.3984 180.661C68.2187 180.423 67.9504 180.304 67.5934 180.304C67.3484 180.304 67.1466 180.36 66.9879 180.472C66.8292 180.582 66.7114 180.735 66.6344 180.931C66.5574 181.125 66.5189 181.35 66.5189 181.606C66.5189 182.003 66.6099 182.32 66.7919 182.558C66.9739 182.796 67.2411 182.915 67.5934 182.915ZM74.7465 183.5L74.75 181.144C74.75 180.871 74.68 180.659 74.54 180.507C74.4 180.353 74.2157 180.276 73.987 180.276C73.847 180.276 73.7187 180.309 73.602 180.374C73.4877 180.437 73.3944 180.533 73.322 180.661C73.252 180.787 73.217 180.946 73.217 181.137L72.8635 180.959C72.8589 180.693 72.9149 180.46 73.0315 180.259C73.1505 180.058 73.3115 179.903 73.5145 179.793C73.7175 179.681 73.945 179.626 74.197 179.626C74.6054 179.626 74.9215 179.748 75.1455 179.993C75.3695 180.238 75.4815 180.563 75.4815 180.969L75.478 183.5H74.7465ZM70.214 183.5V179.72H70.865V180.812H70.949V183.5H70.214ZM72.482 183.5L72.4855 181.158C72.4855 180.883 72.4155 180.667 72.2755 180.511C72.1379 180.355 71.9524 180.276 71.719 180.276C71.488 180.276 71.3014 180.356 71.159 180.514C71.019 180.673 70.949 180.881 70.949 181.137L70.599 180.913C70.599 180.666 70.6585 180.446 70.7775 180.252C70.8965 180.058 71.0575 179.905 71.2605 179.793C71.4635 179.681 71.6934 179.626 71.95 179.626C72.2184 179.626 72.447 179.683 72.636 179.797C72.825 179.909 72.9685 180.066 73.0665 180.269C73.1669 180.472 73.217 180.708 73.217 180.976L73.2135 183.5H72.482ZM78.019 183.605C77.6434 183.605 77.3132 183.523 77.0285 183.36C76.7462 183.194 76.5257 182.964 76.367 182.67C76.2107 182.374 76.1325 182.031 76.1325 181.641C76.1325 181.228 76.2095 180.87 76.3635 180.567C76.5199 180.264 76.7369 180.029 77.0145 179.863C77.2922 179.698 77.6154 179.615 77.984 179.615C78.369 179.615 78.6969 179.705 78.9675 179.885C79.2382 180.062 79.44 180.315 79.573 180.644C79.7084 180.973 79.762 181.364 79.734 181.816H79.0025V181.55C78.9979 181.112 78.9139 180.787 78.7505 180.577C78.5895 180.367 78.3434 180.262 78.012 180.262C77.6457 180.262 77.3704 180.378 77.186 180.609C77.0017 180.84 76.9095 181.174 76.9095 181.61C76.9095 182.025 77.0017 182.347 77.186 182.576C77.3704 182.802 77.6364 182.915 77.984 182.915C78.2127 182.915 78.4099 182.864 78.5755 182.761C78.7435 182.656 78.8742 182.507 78.9675 182.313L79.685 182.541C79.538 182.879 79.3152 183.142 79.0165 183.328C78.7179 183.513 78.3854 183.605 78.019 183.605ZM76.6715 181.816V181.246H79.37V181.816H76.6715ZM80.5193 183.5V179.72H81.1703V180.637L81.0793 180.518C81.126 180.397 81.1866 180.286 81.2613 180.185C81.336 180.083 81.4223 179.999 81.5203 179.933C81.616 179.863 81.7221 179.81 81.8388 179.772C81.9578 179.733 82.0791 179.709 82.2028 179.702C82.3265 179.693 82.4455 179.699 82.5598 179.72V180.406C82.4361 180.373 82.2985 180.364 82.1468 180.378C81.9975 180.392 81.8598 180.44 81.7338 180.521C81.6148 180.598 81.5203 180.692 81.4503 180.801C81.3826 180.911 81.3336 181.034 81.3033 181.169C81.273 181.302 81.2578 181.443 81.2578 181.592V183.5H80.5193Z" fill="#808191"/>
<path fill-rule="evenodd" clip-rule="evenodd" d="M39.3332 177.833C38.8729 177.833 38.4998 178.206 38.4998 178.667C38.4998 179.127 38.8729 179.5 39.3332 179.5C39.7934 179.5 40.1665 179.127 40.1665 178.667C40.1665 178.206 39.7934 177.833 39.3332 177.833ZM37.6665 178.667C37.6665 177.746 38.4127 177 39.3332 177C40.2536 177 40.9998 177.746 40.9998 178.667C40.9998 179.587 40.2536 180.333 39.3332 180.333C38.4127 180.333 37.6665 179.587 37.6665 178.667Z" fill="#808191"/>
<path fill-rule="evenodd" clip-rule="evenodd" d="M38.0833 182C37.393 182 36.8333 182.559 36.8333 183.25V184.083C36.8333 184.313 36.6468 184.5 36.4167 184.5C36.1865 184.5 36 184.313 36 184.083V183.25C36 182.099 36.9327 181.167 38.0833 181.167H40.5833C41.7339 181.167 42.6667 182.099 42.6667 183.25V184.083C42.6667 184.313 42.4801 184.5 42.25 184.5C42.0199 184.5 41.8333 184.313 41.8333 184.083V183.25C41.8333 182.559 41.2737 182 40.5833 182H38.0833Z" fill="#808191"/>
<path d="M43.5 184.083C43.5 184.313 43.6865 184.5 43.9167 184.5C44.1468 184.5 44.3333 184.313 44.3333 184.083V183.25C44.3333 182.142 43.4678 181.235 42.3757 181.17C42.8141 181.559 43.1495 182.061 43.3356 182.63C43.4402 182.813 43.5 183.024 43.5 183.25V184.083Z" fill="#808191"/>
<path d="M41.2083 180.321C42.0305 180.218 42.6667 179.517 42.6667 178.667C42.6667 177.817 42.0305 177.115 41.2083 177.013C41.5973 177.454 41.8334 178.033 41.8334 178.667C41.8334 179.301 41.5973 179.88 41.2083 180.321Z" fill="#808191"/>
<path d="M49.99 157V151.96H52.027C52.076 151.96 52.1367 151.962 52.209 151.967C52.2813 151.969 52.3502 151.976 52.4155 151.988C52.6955 152.032 52.9288 152.128 53.1155 152.275C53.3045 152.422 53.4457 152.607 53.539 152.831C53.6323 153.055 53.679 153.303 53.679 153.573C53.679 153.846 53.6323 154.095 53.539 154.319C53.4457 154.543 53.3045 154.728 53.1155 154.875C52.9288 155.022 52.6955 155.118 52.4155 155.162C52.3502 155.172 52.2802 155.179 52.2055 155.183C52.1332 155.188 52.0737 155.19 52.027 155.19H50.7215V157H49.99ZM50.7215 154.497H51.999C52.0457 154.497 52.097 154.495 52.153 154.49C52.2113 154.486 52.2662 154.478 52.3175 154.466C52.4668 154.431 52.587 154.367 52.678 154.273C52.769 154.178 52.8343 154.068 52.874 153.944C52.9137 153.821 52.9335 153.697 52.9335 153.573C52.9335 153.45 52.9137 153.327 52.874 153.206C52.8343 153.082 52.769 152.974 52.678 152.88C52.587 152.785 52.4668 152.719 52.3175 152.684C52.2662 152.67 52.2113 152.661 52.153 152.656C52.097 152.652 52.0457 152.649 51.999 152.649H50.7215V154.497ZM54.3787 157V153.22H55.0297V154.137L54.9387 154.018C54.9853 153.897 55.046 153.786 55.1207 153.685C55.1953 153.583 55.2817 153.499 55.3797 153.433C55.4753 153.363 55.5815 153.31 55.6982 153.272C55.8172 153.233 55.9385 153.209 56.0622 153.202C56.1858 153.193 56.3048 153.199 56.4192 153.22V153.906C56.2955 153.873 56.1578 153.864 56.0062 153.878C55.8568 153.892 55.7192 153.94 55.5932 154.021C55.4742 154.098 55.3797 154.192 55.3097 154.301C55.242 154.411 55.193 154.534 55.1627 154.669C55.1323 154.802 55.1172 154.943 55.1172 155.092V157H54.3787ZM58.6588 157.105C58.2808 157.105 57.953 157.02 57.6753 156.849C57.3977 156.679 57.183 156.445 57.0313 156.146C56.882 155.845 56.8073 155.498 56.8073 155.106C56.8073 154.712 56.8843 154.366 57.0383 154.067C57.1923 153.766 57.4082 153.533 57.6858 153.367C57.9635 153.199 58.2878 153.115 58.6588 153.115C59.0368 153.115 59.3647 153.2 59.6423 153.37C59.92 153.541 60.1347 153.775 60.2863 154.074C60.438 154.373 60.5138 154.717 60.5138 155.106C60.5138 155.501 60.4368 155.848 60.2828 156.149C60.1312 156.448 59.9165 156.683 59.6388 156.853C59.3612 157.021 59.0345 157.105 58.6588 157.105ZM58.6588 156.415C59.0205 156.415 59.29 156.294 59.4673 156.051C59.647 155.806 59.7368 155.491 59.7368 155.106C59.7368 154.712 59.6458 154.397 59.4638 154.161C59.2842 153.923 59.0158 153.804 58.6588 153.804C58.4138 153.804 58.212 153.86 58.0533 153.972C57.8947 154.082 57.7768 154.235 57.6998 154.431C57.6228 154.625 57.5843 154.85 57.5843 155.106C57.5843 155.503 57.6753 155.82 57.8573 156.058C58.0393 156.296 58.3065 156.415 58.6588 156.415ZM62.7845 157.105C62.4321 157.105 62.1276 157.018 61.871 156.842C61.6166 156.667 61.4195 156.429 61.2795 156.128C61.1418 155.825 61.073 155.484 61.073 155.106C61.073 154.726 61.143 154.387 61.283 154.088C61.423 153.787 61.6213 153.55 61.878 153.377C62.137 153.202 62.4438 153.115 62.7985 153.115C63.1555 153.115 63.4553 153.202 63.698 153.377C63.943 153.55 64.1273 153.787 64.251 154.088C64.377 154.389 64.44 154.728 64.44 155.106C64.44 155.484 64.377 155.824 64.251 156.125C64.125 156.426 63.9395 156.665 63.6945 156.842C63.4495 157.018 63.1461 157.105 62.7845 157.105ZM62.886 156.443C63.1263 156.443 63.3223 156.386 63.474 156.272C63.6256 156.158 63.7365 156 63.8065 155.799C63.8765 155.599 63.9115 155.368 63.9115 155.106C63.9115 154.845 63.8753 154.614 63.803 154.413C63.733 154.213 63.6233 154.056 63.474 153.944C63.327 153.832 63.1391 153.776 62.9105 153.776C62.6678 153.776 62.4683 153.836 62.312 153.955C62.1556 154.074 62.039 154.234 61.962 154.434C61.8873 154.635 61.85 154.859 61.85 155.106C61.85 155.356 61.8873 155.582 61.962 155.785C62.039 155.986 62.1533 156.146 62.305 156.265C62.459 156.384 62.6526 156.443 62.886 156.443ZM63.9115 157V154.28H63.8275V151.96H64.5625V157H63.9115ZM66.9663 157.102C66.7049 157.102 66.4856 157.06 66.3083 156.975C66.1309 156.891 65.9863 156.782 65.8743 156.646C65.7646 156.509 65.6806 156.359 65.6223 156.198C65.5639 156.037 65.5243 155.88 65.5033 155.726C65.4823 155.572 65.4718 155.437 65.4718 155.32V153.22H66.2138V155.078C66.2138 155.225 66.2254 155.377 66.2488 155.533C66.2744 155.687 66.3211 155.831 66.3888 155.964C66.4588 156.097 66.5556 156.204 66.6793 156.286C66.8053 156.368 66.9686 156.408 67.1693 156.408C67.2999 156.408 67.4236 156.387 67.5403 156.345C67.6569 156.301 67.7584 156.231 67.8448 156.135C67.9334 156.04 68.0023 155.914 68.0513 155.757C68.1026 155.601 68.1283 155.411 68.1283 155.187L68.5833 155.358C68.5833 155.701 68.5191 156.005 68.3908 156.268C68.2624 156.53 68.0781 156.734 67.8378 156.881C67.5974 157.028 67.3069 157.102 66.9663 157.102ZM68.2158 157V155.908H68.1283V153.22H68.8668V157H68.2158ZM71.4654 157.105C71.0781 157.105 70.7491 157.019 70.4784 156.846C70.2077 156.673 70.0001 156.436 69.8554 156.135C69.7131 155.834 69.6407 155.493 69.6384 155.11C69.6407 154.72 69.7154 154.376 69.8624 154.077C70.0094 153.776 70.2194 153.541 70.4924 153.37C70.7654 153.2 71.0932 153.115 71.4759 153.115C71.8889 153.115 72.2412 153.218 72.5329 153.423C72.8269 153.628 73.0206 153.909 73.1139 154.266L72.3859 154.476C72.3136 154.264 72.1946 154.1 72.0289 153.983C71.8656 153.864 71.6777 153.804 71.4654 153.804C71.2251 153.804 71.0279 153.862 70.8739 153.976C70.7199 154.088 70.6056 154.242 70.5309 154.438C70.4562 154.634 70.4177 154.858 70.4154 155.11C70.4177 155.5 70.5064 155.815 70.6814 156.055C70.8587 156.295 71.1201 156.415 71.4654 156.415C71.7011 156.415 71.8912 156.362 72.0359 156.254C72.1829 156.145 72.2949 155.988 72.3719 155.785L73.1139 155.96C72.9902 156.329 72.7861 156.613 72.5014 156.811C72.2167 157.007 71.8714 157.105 71.4654 157.105ZM75.9899 157C75.7519 157.047 75.5186 157.067 75.2899 157.06C75.0612 157.053 74.8571 157.008 74.6774 156.926C74.4977 156.845 74.3624 156.716 74.2714 156.541C74.1897 156.385 74.1454 156.226 74.1384 156.065C74.1337 155.902 74.1314 155.718 74.1314 155.512V152.17H74.8664V155.477C74.8664 155.629 74.8676 155.761 74.8699 155.873C74.8746 155.985 74.8991 156.079 74.9434 156.156C75.0274 156.301 75.1604 156.384 75.3424 156.405C75.5267 156.424 75.7426 156.415 75.9899 156.38V157ZM73.4069 153.808V153.22H75.9899V153.808H73.4069ZM78.2324 157.102C77.7727 157.102 77.3982 157 77.1089 156.797C76.8195 156.594 76.6422 156.308 76.5769 155.939L77.3259 155.824C77.3725 156.02 77.4799 156.175 77.6479 156.289C77.8182 156.401 78.0294 156.457 78.2814 156.457C78.51 156.457 78.6885 156.411 78.8169 156.317C78.9475 156.224 79.0129 156.096 79.0129 155.932C79.0129 155.837 78.9895 155.76 78.9429 155.701C78.8985 155.641 78.804 155.584 78.6594 155.53C78.5147 155.476 78.2942 155.41 77.9979 155.33C77.6735 155.246 77.4157 155.157 77.2244 155.061C77.0354 154.963 76.9 154.85 76.8184 154.721C76.739 154.591 76.6994 154.433 76.6994 154.249C76.6994 154.02 76.76 153.821 76.8814 153.65C77.0027 153.48 77.173 153.348 77.3924 153.255C77.614 153.162 77.873 153.115 78.1694 153.115C78.4587 153.115 78.7165 153.16 78.9429 153.251C79.1692 153.342 79.3524 153.472 79.4924 153.64C79.6324 153.806 79.7164 154 79.7444 154.224L78.9954 154.361C78.9697 154.179 78.8845 154.035 78.7399 153.93C78.5952 153.825 78.4074 153.768 78.1764 153.759C77.9547 153.75 77.775 153.787 77.6374 153.871C77.4997 153.953 77.4309 154.066 77.4309 154.21C77.4309 154.294 77.4565 154.366 77.5079 154.424C77.5615 154.482 77.6642 154.538 77.8159 154.592C77.9675 154.646 78.1915 154.71 78.4879 154.784C78.8052 154.866 79.0572 154.957 79.2439 155.057C79.4305 155.155 79.5635 155.273 79.6429 155.411C79.7245 155.546 79.7654 155.711 79.7654 155.904C79.7654 156.278 79.6289 156.571 79.3559 156.783C79.0852 156.995 78.7107 157.102 78.2324 157.102Z" fill="#808191"/>
<path d="M41.1286 153.62C41.056 153.62 40.9865 153.648 40.9352 153.698C40.8839 153.748 40.8551 153.816 40.8551 153.887C40.8551 154.099 40.7687 154.302 40.6148 154.452C40.4609 154.602 40.2521 154.687 40.0345 154.687C39.8168 154.687 39.6081 154.602 39.4542 154.452C39.3003 154.302 39.2138 154.099 39.2138 153.887C39.215 153.851 39.2089 153.815 39.1957 153.782C39.1824 153.749 39.1625 153.718 39.137 153.692C39.1114 153.667 39.0809 153.646 39.0471 153.632C39.0133 153.618 38.977 153.611 38.9402 153.611C38.9035 153.611 38.8672 153.618 38.8334 153.632C38.7996 153.646 38.7691 153.667 38.7435 153.692C38.718 153.718 38.6981 153.749 38.6848 153.782C38.6716 153.815 38.6654 153.851 38.6667 153.887C38.6667 154.24 38.8108 154.579 39.0673 154.829C39.3238 155.08 39.6717 155.22 40.0345 155.22C40.3973 155.22 40.7452 155.08 41.0017 154.829C41.2582 154.579 41.4023 154.24 41.4023 153.887C41.4023 153.816 41.3735 153.748 41.3222 153.698C41.2708 153.648 41.2012 153.62 41.1286 153.62Z" fill="#808191"/>
<path d="M43.9954 158.087L43.2519 152.706C43.225 152.521 43.0638 152.386 42.8667 152.386H41.6125V152.016C41.6125 151.182 40.8869 150.5 40 150.5C39.1131 150.5 38.3875 151.182 38.3875 152.016V152.386H37.1333C36.9362 152.386 36.766 152.521 36.7481 152.706L36.0045 158.087C35.9866 158.188 36.0224 158.298 36.1031 158.374C36.1747 158.449 36.2822 158.5 36.3987 158.5H43.6102C43.7267 158.5 43.8342 158.458 43.9058 158.374C43.9775 158.298 44.0134 158.188 43.9954 158.087ZM39.1758 152.016C39.1758 151.586 39.5431 151.241 40 151.241C40.4569 151.241 40.8242 151.586 40.8242 152.016V152.386H39.1758V152.016ZM36.8377 157.759L37.4737 153.119H42.5173L43.1533 157.759H36.8377Z" fill="#808191"/>
<path d="M51.2465 130.5V126.149H49.57V125.46H53.6545V126.149H51.978V130.5H51.2465ZM53.866 130.5V126.72H54.517V127.637L54.426 127.518C54.4726 127.397 54.5333 127.286 54.608 127.185C54.6826 127.083 54.769 126.999 54.867 126.933C54.9626 126.863 55.0688 126.81 55.1855 126.772C55.3045 126.733 55.4258 126.709 55.5495 126.702C55.6731 126.693 55.7921 126.699 55.9065 126.72V127.406C55.7828 127.373 55.6451 127.364 55.4935 127.378C55.3441 127.392 55.2065 127.44 55.0805 127.521C54.9615 127.598 54.867 127.692 54.797 127.801C54.7293 127.911 54.6803 128.034 54.65 128.169C54.6196 128.302 54.6045 128.443 54.6045 128.592V130.5H53.866ZM57.5311 130.605C57.2511 130.605 57.0166 130.554 56.8276 130.451C56.6386 130.346 56.4951 130.208 56.3971 130.038C56.3015 129.865 56.2536 129.676 56.2536 129.471C56.2536 129.28 56.2875 129.112 56.3551 128.967C56.4228 128.822 56.5231 128.7 56.6561 128.599C56.7891 128.497 56.9525 128.414 57.1461 128.351C57.3141 128.302 57.5043 128.259 57.7166 128.221C57.929 128.184 58.1518 128.149 58.3851 128.116C58.6208 128.084 58.8541 128.051 59.0851 128.018L58.8191 128.165C58.8238 127.869 58.7608 127.65 58.6301 127.507C58.5018 127.363 58.2801 127.29 57.9651 127.29C57.7668 127.29 57.5848 127.337 57.4191 127.43C57.2535 127.521 57.138 127.673 57.0726 127.885L56.3901 127.675C56.4835 127.351 56.6608 127.093 56.9221 126.902C57.1858 126.711 57.5358 126.615 57.9721 126.615C58.3105 126.615 58.6045 126.673 58.8541 126.79C59.1061 126.904 59.2905 127.086 59.4071 127.336C59.4678 127.46 59.5051 127.59 59.5191 127.728C59.5331 127.866 59.5401 128.014 59.5401 128.172V130.5H58.8926V129.635L59.0186 129.747C58.8623 130.037 58.6628 130.253 58.4201 130.395C58.1798 130.535 57.8835 130.605 57.5311 130.605ZM57.6606 130.006C57.8683 130.006 58.0468 129.97 58.1961 129.898C58.3455 129.823 58.4656 129.729 58.5566 129.614C58.6476 129.5 58.7071 129.381 58.7351 129.257C58.7748 129.145 58.797 129.019 58.8016 128.879C58.8086 128.739 58.8121 128.627 58.8121 128.543L59.0501 128.631C58.8191 128.666 58.6091 128.697 58.4201 128.725C58.2311 128.753 58.0596 128.781 57.9056 128.809C57.754 128.835 57.6186 128.867 57.4996 128.904C57.3993 128.939 57.3095 128.981 57.2301 129.03C57.1531 129.079 57.0913 129.138 57.0446 129.208C57.0003 129.278 56.9781 129.364 56.9781 129.464C56.9781 129.562 57.0026 129.653 57.0516 129.737C57.1006 129.819 57.1753 129.884 57.2756 129.933C57.376 129.982 57.5043 130.006 57.6606 130.006ZM63.102 130.5V128.641C63.102 128.494 63.0892 128.344 63.0635 128.19C63.0402 128.034 62.9935 127.889 62.9235 127.756C62.8558 127.623 62.759 127.516 62.633 127.434C62.5093 127.352 62.3472 127.311 62.1465 127.311C62.0158 127.311 61.8922 127.334 61.7755 127.378C61.6588 127.42 61.5562 127.489 61.4675 127.584C61.3812 127.68 61.3123 127.806 61.261 127.962C61.212 128.119 61.1875 128.309 61.1875 128.533L60.7325 128.361C60.7325 128.018 60.7967 127.716 60.925 127.455C61.0533 127.191 61.2377 126.986 61.478 126.839C61.7183 126.692 62.0088 126.618 62.3495 126.618C62.6108 126.618 62.8302 126.66 63.0075 126.744C63.1848 126.828 63.3283 126.939 63.438 127.077C63.55 127.212 63.6352 127.36 63.6935 127.521C63.7518 127.682 63.7915 127.84 63.8125 127.994C63.8335 128.148 63.844 128.283 63.844 128.4V130.5H63.102ZM60.4455 130.5V126.72H61.1V127.812H61.1875V130.5H60.4455ZM66.2011 130.602C65.7415 130.602 65.367 130.5 65.0776 130.297C64.7883 130.094 64.611 129.808 64.5456 129.439L65.2946 129.324C65.3413 129.52 65.4486 129.675 65.6166 129.789C65.787 129.901 65.9981 129.957 66.2501 129.957C66.4788 129.957 66.6573 129.911 66.7856 129.817C66.9163 129.724 66.9816 129.596 66.9816 129.432C66.9816 129.337 66.9583 129.26 66.9116 129.201C66.8673 129.141 66.7728 129.084 66.6281 129.03C66.4835 128.976 66.263 128.91 65.9666 128.83C65.6423 128.746 65.3845 128.657 65.1931 128.561C65.0041 128.463 64.8688 128.35 64.7871 128.221C64.7078 128.091 64.6681 127.933 64.6681 127.749C64.6681 127.52 64.7288 127.321 64.8501 127.15C64.9715 126.98 65.1418 126.848 65.3611 126.755C65.5828 126.662 65.8418 126.615 66.1381 126.615C66.4275 126.615 66.6853 126.66 66.9116 126.751C67.138 126.842 67.3211 126.972 67.4611 127.14C67.6011 127.306 67.6851 127.5 67.7131 127.724L66.9641 127.861C66.9385 127.679 66.8533 127.535 66.7086 127.43C66.564 127.325 66.3761 127.268 66.1451 127.259C65.9235 127.25 65.7438 127.287 65.6061 127.371C65.4685 127.453 65.3996 127.566 65.3996 127.71C65.3996 127.794 65.4253 127.866 65.4766 127.924C65.5303 127.982 65.633 128.038 65.7846 128.092C65.9363 128.146 66.1603 128.21 66.4566 128.284C66.774 128.366 67.026 128.457 67.2126 128.557C67.3993 128.655 67.5323 128.773 67.6116 128.911C67.6933 129.046 67.7341 129.211 67.7341 129.404C67.7341 129.778 67.5976 130.071 67.3246 130.283C67.054 130.495 66.6795 130.602 66.2011 130.602ZM69.5761 130.605C69.2961 130.605 69.0616 130.554 68.8726 130.451C68.6836 130.346 68.5401 130.208 68.4421 130.038C68.3464 129.865 68.2986 129.676 68.2986 129.471C68.2986 129.28 68.3324 129.112 68.4001 128.967C68.4677 128.822 68.5681 128.7 68.7011 128.599C68.8341 128.497 68.9974 128.414 69.1911 128.351C69.3591 128.302 69.5492 128.259 69.7616 128.221C69.9739 128.184 70.1967 128.149 70.4301 128.116C70.6657 128.084 70.8991 128.051 71.1301 128.018L70.8641 128.165C70.8687 127.869 70.8057 127.65 70.6751 127.507C70.5467 127.363 70.3251 127.29 70.0101 127.29C69.8117 127.29 69.6297 127.337 69.4641 127.43C69.2984 127.521 69.1829 127.673 69.1176 127.885L68.4351 127.675C68.5284 127.351 68.7057 127.093 68.9671 126.902C69.2307 126.711 69.5807 126.615 70.0171 126.615C70.3554 126.615 70.6494 126.673 70.8991 126.79C71.1511 126.904 71.3354 127.086 71.4521 127.336C71.5127 127.46 71.5501 127.59 71.5641 127.728C71.5781 127.866 71.5851 128.014 71.5851 128.172V130.5H70.9376V129.635L71.0636 129.747C70.9072 130.037 70.7077 130.253 70.4651 130.395C70.2247 130.535 69.9284 130.605 69.5761 130.605ZM69.7056 130.006C69.9132 130.006 70.0917 129.97 70.2411 129.898C70.3904 129.823 70.5106 129.729 70.6016 129.614C70.6926 129.5 70.7521 129.381 70.7801 129.257C70.8197 129.145 70.8419 129.019 70.8466 128.879C70.8536 128.739 70.8571 128.627 70.8571 128.543L71.0951 128.631C70.8641 128.666 70.6541 128.697 70.4651 128.725C70.2761 128.753 70.1046 128.781 69.9506 128.809C69.7989 128.835 69.6636 128.867 69.5446 128.904C69.4442 128.939 69.3544 128.981 69.2751 129.03C69.1981 129.079 69.1362 129.138 69.0896 129.208C69.0452 129.278 69.0231 129.364 69.0231 129.464C69.0231 129.562 69.0476 129.653 69.0966 129.737C69.1456 129.819 69.2202 129.884 69.3206 129.933C69.4209 129.982 69.5492 130.006 69.7056 130.006ZM74.1109 130.605C73.7236 130.605 73.3946 130.519 73.1239 130.346C72.8532 130.173 72.6456 129.936 72.5009 129.635C72.3586 129.334 72.2862 128.993 72.2839 128.61C72.2862 128.22 72.3609 127.876 72.5079 127.577C72.6549 127.276 72.8649 127.041 73.1379 126.87C73.4109 126.7 73.7387 126.615 74.1214 126.615C74.5344 126.615 74.8867 126.718 75.1784 126.923C75.4724 127.128 75.6661 127.409 75.7594 127.766L75.0314 127.976C74.9591 127.764 74.8401 127.6 74.6744 127.483C74.5111 127.364 74.3232 127.304 74.1109 127.304C73.8706 127.304 73.6734 127.362 73.5194 127.476C73.3654 127.588 73.2511 127.742 73.1764 127.938C73.1017 128.134 73.0632 128.358 73.0609 128.61C73.0632 129 73.1519 129.315 73.3269 129.555C73.5042 129.795 73.7656 129.915 74.1109 129.915C74.3466 129.915 74.5367 129.862 74.6814 129.754C74.8284 129.645 74.9404 129.488 75.0174 129.285L75.7594 129.46C75.6357 129.829 75.4316 130.113 75.1469 130.311C74.8622 130.507 74.5169 130.605 74.1109 130.605ZM78.6354 130.5C78.3974 130.547 78.1641 130.567 77.9354 130.56C77.7068 130.553 77.5026 130.508 77.3229 130.426C77.1433 130.345 77.0079 130.216 76.9169 130.041C76.8353 129.885 76.7909 129.726 76.7839 129.565C76.7793 129.402 76.7769 129.218 76.7769 129.012V125.67H77.5119V128.977C77.5119 129.129 77.5131 129.261 77.5154 129.373C77.5201 129.485 77.5446 129.579 77.5889 129.656C77.6729 129.801 77.8059 129.884 77.9879 129.905C78.1723 129.924 78.3881 129.915 78.6354 129.88V130.5ZM76.0524 127.308V126.72H78.6354V127.308H76.0524ZM79.5024 126.1V125.39H80.2339V126.1H79.5024ZM79.5024 130.5V126.72H80.2339V130.5H79.5024ZM82.9264 130.605C82.5484 130.605 82.2206 130.52 81.9429 130.349C81.6653 130.179 81.4506 129.945 81.2989 129.646C81.1496 129.345 81.0749 128.998 81.0749 128.606C81.0749 128.212 81.1519 127.866 81.3059 127.567C81.4599 127.266 81.6758 127.033 81.9534 126.867C82.2311 126.699 82.5554 126.615 82.9264 126.615C83.3044 126.615 83.6323 126.7 83.9099 126.87C84.1876 127.041 84.4023 127.275 84.5539 127.574C84.7056 127.873 84.7814 128.217 84.7814 128.606C84.7814 129.001 84.7044 129.348 84.5504 129.649C84.3988 129.948 84.1841 130.183 83.9064 130.353C83.6288 130.521 83.3021 130.605 82.9264 130.605ZM82.9264 129.915C83.2881 129.915 83.5576 129.794 83.7349 129.551C83.9146 129.306 84.0044 128.991 84.0044 128.606C84.0044 128.212 83.9134 127.897 83.7314 127.661C83.5518 127.423 83.2834 127.304 82.9264 127.304C82.6814 127.304 82.4796 127.36 82.3209 127.472C82.1623 127.582 82.0444 127.735 81.9674 127.931C81.8904 128.125 81.8519 128.35 81.8519 128.606C81.8519 129.003 81.9429 129.32 82.1249 129.558C82.3069 129.796 82.5741 129.915 82.9264 129.915ZM88.2035 130.5V128.641C88.2035 128.494 88.1907 128.344 88.165 128.19C88.1417 128.034 88.095 127.889 88.025 127.756C87.9574 127.623 87.8605 127.516 87.7345 127.434C87.6109 127.352 87.4487 127.311 87.248 127.311C87.1174 127.311 86.9937 127.334 86.877 127.378C86.7604 127.42 86.6577 127.489 86.569 127.584C86.4827 127.68 86.4139 127.806 86.3625 127.962C86.3135 128.119 86.289 128.309 86.289 128.533L85.834 128.361C85.834 128.018 85.8982 127.716 86.0265 127.455C86.1549 127.191 86.3392 126.986 86.5795 126.839C86.8199 126.692 87.1104 126.618 87.451 126.618C87.7124 126.618 87.9317 126.66 88.109 126.744C88.2864 126.828 88.4299 126.939 88.5395 127.077C88.6515 127.212 88.7367 127.36 88.795 127.521C88.8534 127.682 88.893 127.84 88.914 127.994C88.935 128.148 88.9455 128.283 88.9455 128.4V130.5H88.2035ZM85.547 130.5V126.72H86.2015V127.812H86.289V130.5H85.547ZM91.3027 130.602C90.843 130.602 90.4685 130.5 90.1792 130.297C89.8899 130.094 89.7125 129.808 89.6472 129.439L90.3962 129.324C90.4429 129.52 90.5502 129.675 90.7182 129.789C90.8885 129.901 91.0997 129.957 91.3517 129.957C91.5804 129.957 91.7589 129.911 91.8872 129.817C92.0179 129.724 92.0832 129.596 92.0832 129.432C92.0832 129.337 92.0599 129.26 92.0132 129.201C91.9689 129.141 91.8744 129.084 91.7297 129.03C91.585 128.976 91.3645 128.91 91.0682 128.83C90.7439 128.746 90.486 128.657 90.2947 128.561C90.1057 128.463 89.9704 128.35 89.8887 128.221C89.8094 128.091 89.7697 127.933 89.7697 127.749C89.7697 127.52 89.8304 127.321 89.9517 127.15C90.073 126.98 90.2434 126.848 90.4627 126.755C90.6844 126.662 90.9434 126.615 91.2397 126.615C91.529 126.615 91.7869 126.66 92.0132 126.751C92.2395 126.842 92.4227 126.972 92.5627 127.14C92.7027 127.306 92.7867 127.5 92.8147 127.724L92.0657 127.861C92.04 127.679 91.9549 127.535 91.8102 127.43C91.6655 127.325 91.4777 127.268 91.2467 127.259C91.025 127.25 90.8454 127.287 90.7077 127.371C90.57 127.453 90.5012 127.566 90.5012 127.71C90.5012 127.794 90.5269 127.866 90.5782 127.924C90.6319 127.982 90.7345 128.038 90.8862 128.092C91.0379 128.146 91.2619 128.21 91.5582 128.284C91.8755 128.366 92.1275 128.457 92.3142 128.557C92.5009 128.655 92.6339 128.773 92.7132 128.911C92.7949 129.046 92.8357 129.211 92.8357 129.404C92.8357 129.778 92.6992 130.071 92.4262 130.283C92.1555 130.495 91.781 130.602 91.3027 130.602Z" fill="#808191"/>
<path d="M36.7173 125.155C36.7173 125.455 36.8077 125.749 36.977 125.998C37.1463 126.248 37.387 126.442 37.6686 126.557C37.9502 126.672 38.2601 126.702 38.559 126.643C38.858 126.585 39.1326 126.44 39.3481 126.228C39.5636 126.016 39.7104 125.745 39.7699 125.451C39.8293 125.157 39.7988 124.852 39.6822 124.575C39.5655 124.297 39.368 124.06 39.1146 123.894C38.8611 123.727 38.5632 123.638 38.2584 123.638C37.8497 123.638 37.4577 123.798 37.1687 124.082C36.8796 124.367 36.7173 124.753 36.7173 125.155ZM38.9589 125.155C38.9589 125.292 38.9178 125.425 38.8408 125.538C38.7638 125.652 38.6544 125.74 38.5264 125.792C38.3984 125.845 38.2576 125.858 38.1217 125.832C37.9858 125.805 37.861 125.739 37.7631 125.643C37.6651 125.546 37.5984 125.424 37.5713 125.29C37.5443 125.156 37.5582 125.017 37.6112 124.891C37.6642 124.765 37.754 124.658 37.8692 124.582C37.9844 124.506 38.1198 124.466 38.2584 124.466C38.4442 124.466 38.6223 124.538 38.7537 124.668C38.8851 124.797 38.9589 124.972 38.9589 125.155Z" fill="#808191"/>
<path d="M44.2829 130.017C44.2829 129.717 44.1925 129.423 44.0231 129.174C43.8538 128.924 43.6131 128.73 43.3315 128.615C43.0499 128.5 42.7401 128.47 42.4411 128.529C42.1422 128.587 41.8676 128.732 41.6521 128.944C41.4365 129.156 41.2898 129.426 41.2303 129.721C41.1708 130.015 41.2014 130.32 41.318 130.597C41.4346 130.875 41.6322 131.112 41.8856 131.278C42.139 131.445 42.437 131.534 42.7418 131.534C43.1505 131.534 43.5425 131.374 43.8315 131.09C44.1205 130.805 44.2829 130.419 44.2829 130.017ZM42.0413 130.017C42.0413 129.88 42.0824 129.747 42.1593 129.634C42.2363 129.52 42.3457 129.432 42.4737 129.38C42.6017 129.327 42.7426 129.314 42.8784 129.34C43.0143 129.367 43.1391 129.433 43.2371 129.529C43.3351 129.626 43.4018 129.748 43.4288 129.882C43.4558 130.016 43.442 130.155 43.389 130.281C43.3359 130.407 43.2461 130.514 43.131 130.59C43.0158 130.666 42.8803 130.706 42.7418 130.706C42.556 130.706 42.3778 130.634 42.2465 130.504C42.1151 130.375 42.0413 130.2 42.0413 130.017Z" fill="#808191"/>
<path d="M37.4178 129.084V130.569C37.4178 130.861 37.5359 131.142 37.7461 131.349C37.9563 131.556 38.2413 131.672 38.5386 131.672H40.5V130.844H38.5386C38.4643 130.844 38.393 130.815 38.3405 130.764C38.2879 130.712 38.2584 130.642 38.2584 130.569V129.084L39.0822 129.895L39.6762 129.311L38.1351 127.793C38.0563 127.716 37.9495 127.672 37.8381 127.672C37.7267 127.672 37.6199 127.716 37.5411 127.793L36 129.311L36.594 129.895L37.4178 129.084Z" fill="#808191"/>
<path d="M43.5822 126.088V124.603C43.5822 124.311 43.4641 124.03 43.2539 123.823C43.0437 123.616 42.7586 123.5 42.4614 123.5H40.5V124.328H42.4614C42.5357 124.328 42.607 124.357 42.6595 124.408C42.7121 124.46 42.7416 124.53 42.7416 124.603V126.088L41.9178 125.277L41.3238 125.861L42.8649 127.379C42.9437 127.456 43.0505 127.5 43.1619 127.5C43.2733 127.5 43.3801 127.456 43.4589 127.379L45 125.861L44.406 125.277L43.5822 126.088Z" fill="#808191"/>
<path d="M49.99 51V45.96H51.544C51.5953 45.96 51.6852 45.9612 51.8135 45.9635C51.9418 45.9658 52.0643 45.9752 52.181 45.9915C52.5707 46.0428 52.8962 46.1852 53.1575 46.4185C53.4212 46.6495 53.6195 46.9435 53.7525 47.3005C53.8855 47.6575 53.952 48.0507 53.952 48.48C53.952 48.9093 53.8855 49.3025 53.7525 49.6595C53.6195 50.0165 53.4212 50.3117 53.1575 50.545C52.8962 50.776 52.5707 50.9172 52.181 50.9685C52.0643 50.9825 51.9407 50.9918 51.81 50.9965C51.6817 50.9988 51.593 51 51.544 51H49.99ZM50.6305 50.405H51.544C51.6327 50.405 51.7318 50.4027 51.8415 50.398C51.9512 50.391 52.0468 50.3805 52.1285 50.3665C52.4038 50.3152 52.6267 50.1997 52.797 50.02C52.9673 49.8403 53.0922 49.6163 53.1715 49.348C53.2508 49.0797 53.2905 48.7903 53.2905 48.48C53.2905 48.1627 53.2497 47.8698 53.168 47.6015C53.0887 47.3332 52.9638 47.1103 52.7935 46.933C52.6232 46.7557 52.4015 46.6425 52.1285 46.5935C52.0468 46.5772 51.95 46.5667 51.838 46.562C51.726 46.5573 51.628 46.555 51.544 46.555H50.6305V50.405ZM55.8291 51.105C55.5468 51.105 55.31 51.0537 55.1186 50.951C54.9296 50.846 54.7861 50.7083 54.6881 50.538C54.5925 50.3677 54.5446 50.181 54.5446 49.978C54.5446 49.7797 54.582 49.6082 54.6566 49.4635C54.7336 49.3165 54.841 49.1952 54.9786 49.0995C55.1163 49.0015 55.2808 48.9245 55.4721 48.8685C55.6518 48.8195 55.8525 48.7775 56.0741 48.7425C56.2981 48.7052 56.5245 48.6713 56.7531 48.641C56.9818 48.6107 57.1953 48.5815 57.3936 48.5535L57.1696 48.683C57.1766 48.347 57.109 48.0985 56.9666 47.9375C56.8266 47.7765 56.584 47.696 56.2386 47.696C56.01 47.696 55.8093 47.7485 55.6366 47.8535C55.4663 47.9562 55.3461 48.1242 55.2761 48.3575L54.6846 48.179C54.7756 47.8477 54.9518 47.5875 55.2131 47.3985C55.4745 47.2095 55.8186 47.115 56.2456 47.115C56.5886 47.115 56.8826 47.1768 57.1276 47.3005C57.375 47.4218 57.5523 47.6062 57.6596 47.8535C57.7133 47.9702 57.7471 48.0973 57.7611 48.235C57.7751 48.3703 57.7821 48.5127 57.7821 48.662V51H57.2291V50.0935L57.3586 50.1775C57.2163 50.4832 57.0168 50.7142 56.7601 50.8705C56.5058 51.0268 56.1955 51.105 55.8291 51.105ZM55.9236 50.5835C56.1476 50.5835 56.3413 50.5438 56.5046 50.4645C56.6703 50.3828 56.8033 50.2767 56.9036 50.146C57.004 50.013 57.0693 49.8683 57.0996 49.712C57.1346 49.5953 57.1533 49.4658 57.1556 49.3235C57.1603 49.1788 57.1626 49.068 57.1626 48.991L57.3796 49.0855C57.1766 49.1135 56.9771 49.1403 56.7811 49.166C56.5851 49.1917 56.3996 49.2197 56.2246 49.25C56.0496 49.278 55.8921 49.3118 55.7521 49.3515C55.6495 49.3842 55.5526 49.4262 55.4616 49.4775C55.373 49.5288 55.3006 49.5953 55.2446 49.677C55.191 49.7563 55.1641 49.8555 55.1641 49.9745C55.1641 50.0772 55.1898 50.1752 55.2411 50.2685C55.2948 50.3618 55.3765 50.4377 55.4861 50.496C55.5981 50.5543 55.744 50.5835 55.9236 50.5835ZM60.1201 51.1015C59.6698 51.1015 59.3 51.0035 59.0106 50.8075C58.7236 50.6092 58.5475 50.3327 58.4821 49.978L59.1191 49.8765C59.1705 50.0818 59.2883 50.2452 59.4726 50.3665C59.657 50.4855 59.8856 50.545 60.1586 50.545C60.4176 50.545 60.6206 50.4913 60.7676 50.384C60.9146 50.2767 60.9881 50.1308 60.9881 49.9465C60.9881 49.8392 60.9636 49.7528 60.9146 49.6875C60.8656 49.6198 60.7641 49.5568 60.6101 49.4985C60.4585 49.4402 60.2286 49.3702 59.9206 49.2885C59.587 49.1998 59.3245 49.1077 59.1331 49.012C58.9418 48.9163 58.8053 48.8055 58.7236 48.6795C58.642 48.5535 58.6011 48.4007 58.6011 48.221C58.6011 47.9993 58.6618 47.8057 58.7831 47.64C58.9045 47.472 59.0736 47.3425 59.2906 47.2515C59.51 47.1605 59.7643 47.115 60.0536 47.115C60.3406 47.115 60.5973 47.1605 60.8236 47.2515C61.05 47.3425 61.232 47.472 61.3696 47.64C61.5096 47.8057 61.5925 47.9993 61.6181 48.221L60.9811 48.3365C60.9508 48.1335 60.8528 47.9737 60.6871 47.857C60.5238 47.7403 60.3126 47.6785 60.0536 47.6715C59.8086 47.6622 59.6091 47.7053 59.4551 47.801C59.3035 47.8967 59.2276 48.0262 59.2276 48.1895C59.2276 48.2805 59.2556 48.3587 59.3116 48.424C59.37 48.4893 59.4761 48.5512 59.6301 48.6095C59.7865 48.6678 60.0128 48.7343 60.3091 48.809C60.6428 48.893 60.9053 48.9852 61.0966 49.0855C61.2903 49.1835 61.428 49.3002 61.5096 49.4355C61.5913 49.5685 61.6321 49.733 61.6321 49.929C61.6321 50.293 61.498 50.58 61.2296 50.79C60.9613 50.9977 60.5915 51.1015 60.1201 51.1015ZM65.0956 51V49.1065C65.0956 48.9268 65.0792 48.7542 65.0466 48.5885C65.0162 48.4228 64.9614 48.2747 64.8821 48.144C64.8051 48.011 64.7001 47.906 64.5671 47.829C64.4364 47.752 64.2707 47.7135 64.0701 47.7135C63.9137 47.7135 63.7714 47.7403 63.6431 47.794C63.5171 47.8453 63.4086 47.9247 63.3176 48.032C63.2266 48.1393 63.1554 48.2747 63.1041 48.438C63.0551 48.599 63.0306 48.7892 63.0306 49.0085L62.6211 48.8825C62.6211 48.5162 62.6864 48.2023 62.8171 47.941C62.9501 47.6773 63.1356 47.4755 63.3736 47.3355C63.6139 47.1932 63.8962 47.122 64.2206 47.122C64.4656 47.122 64.6744 47.1605 64.8471 47.2375C65.0197 47.3145 65.1632 47.4172 65.2776 47.5455C65.3919 47.6715 65.4817 47.8138 65.5471 47.9725C65.6124 48.1288 65.6579 48.2887 65.6836 48.452C65.7116 48.613 65.7256 48.7658 65.7256 48.9105V51H65.0956ZM62.4006 51V45.96H62.9606V48.7425H63.0306V51H62.4006ZM68.3715 51.105C68.0168 51.105 67.7182 51.0175 67.4755 50.8425C67.2328 50.6652 67.0485 50.426 66.9225 50.125C66.7988 49.8217 66.737 49.4822 66.737 49.1065C66.737 48.7262 66.7988 48.3855 66.9225 48.0845C67.0485 47.7835 67.2328 47.5467 67.4755 47.374C67.7205 47.2013 68.0203 47.115 68.375 47.115C68.725 47.115 69.026 47.2025 69.278 47.3775C69.5323 47.5502 69.7272 47.787 69.8625 48.088C69.9978 48.389 70.0655 48.7285 70.0655 49.1065C70.0655 49.4845 69.9978 49.824 69.8625 50.125C69.7272 50.426 69.5323 50.6652 69.278 50.8425C69.026 51.0175 68.7238 51.105 68.3715 51.105ZM66.632 51V45.96H67.2585V48.2175H67.1885V51H66.632ZM68.2945 50.5345C68.5442 50.5345 68.7507 50.4715 68.914 50.3455C69.0773 50.2195 69.1998 50.0492 69.2815 49.8345C69.3632 49.6175 69.404 49.3748 69.404 49.1065C69.404 48.8405 69.3632 48.6002 69.2815 48.3855C69.2022 48.1708 69.0785 48.0005 68.9105 47.8745C68.7448 47.7485 68.5337 47.6855 68.277 47.6855C68.032 47.6855 67.829 47.7462 67.668 47.8675C67.507 47.9865 67.3868 48.1533 67.3075 48.368C67.2282 48.5803 67.1885 48.8265 67.1885 49.1065C67.1885 49.3818 67.227 49.628 67.304 49.845C67.3833 50.0597 67.5047 50.2288 67.668 50.3525C67.8313 50.4738 68.0402 50.5345 68.2945 50.5345ZM72.4428 51.105C72.0671 51.105 71.7428 51.0198 71.4698 50.8495C71.1991 50.6792 70.9903 50.4435 70.8433 50.1425C70.6963 49.8415 70.6228 49.4962 70.6228 49.1065C70.6228 48.7098 70.6974 48.3622 70.8468 48.0635C70.9961 47.7648 71.2073 47.5327 71.4803 47.367C71.7533 47.199 72.0741 47.115 72.4428 47.115C72.8208 47.115 73.1463 47.2002 73.4193 47.3705C73.6923 47.5385 73.9011 47.773 74.0458 48.074C74.1928 48.3727 74.2663 48.7168 74.2663 49.1065C74.2663 49.5008 74.1928 49.8485 74.0458 50.1495C73.8988 50.4482 73.6888 50.6827 73.4158 50.853C73.1428 51.021 72.8184 51.105 72.4428 51.105ZM72.4428 50.5135C72.8348 50.5135 73.1264 50.3828 73.3178 50.1215C73.5091 49.8602 73.6048 49.5218 73.6048 49.1065C73.6048 48.6795 73.5079 48.34 73.3143 48.088C73.1206 47.8337 72.8301 47.7065 72.4428 47.7065C72.1791 47.7065 71.9621 47.766 71.7918 47.885C71.6214 48.004 71.4943 48.1685 71.4103 48.3785C71.3263 48.5885 71.2843 48.8312 71.2843 49.1065C71.2843 49.5312 71.3823 49.8718 71.5783 50.1285C71.7743 50.3852 72.0624 50.5135 72.4428 50.5135ZM76.1114 51.105C75.829 51.105 75.5922 51.0537 75.4009 50.951C75.2119 50.846 75.0684 50.7083 74.9704 50.538C74.8747 50.3677 74.8269 50.181 74.8269 49.978C74.8269 49.7797 74.8642 49.6082 74.9389 49.4635C75.0159 49.3165 75.1232 49.1952 75.2609 49.0995C75.3985 49.0015 75.563 48.9245 75.7544 48.8685C75.934 48.8195 76.1347 48.7775 76.3564 48.7425C76.5804 48.7052 76.8067 48.6713 77.0354 48.641C77.264 48.6107 77.4775 48.5815 77.6759 48.5535L77.4519 48.683C77.4589 48.347 77.3912 48.0985 77.2489 47.9375C77.1089 47.7765 76.8662 47.696 76.5209 47.696C76.2922 47.696 76.0915 47.7485 75.9189 47.8535C75.7485 47.9562 75.6284 48.1242 75.5584 48.3575L74.9669 48.179C75.0579 47.8477 75.234 47.5875 75.4954 47.3985C75.7567 47.2095 76.1009 47.115 76.5279 47.115C76.8709 47.115 77.1649 47.1768 77.4099 47.3005C77.6572 47.4218 77.8345 47.6062 77.9419 47.8535C77.9955 47.9702 78.0294 48.0973 78.0434 48.235C78.0574 48.3703 78.0644 48.5127 78.0644 48.662V51H77.5114V50.0935L77.6409 50.1775C77.4985 50.4832 77.299 50.7142 77.0424 50.8705C76.788 51.0268 76.4777 51.105 76.1114 51.105ZM76.2059 50.5835C76.4299 50.5835 76.6235 50.5438 76.7869 50.4645C76.9525 50.3828 77.0855 50.2767 77.1859 50.146C77.2862 50.013 77.3515 49.8683 77.3819 49.712C77.4169 49.5953 77.4355 49.4658 77.4379 49.3235C77.4425 49.1788 77.4449 49.068 77.4449 48.991L77.6619 49.0855C77.4589 49.1135 77.2594 49.1403 77.0634 49.166C76.8674 49.1917 76.6819 49.2197 76.5069 49.25C76.3319 49.278 76.1744 49.3118 76.0344 49.3515C75.9317 49.3842 75.8349 49.4262 75.7439 49.4775C75.6552 49.5288 75.5829 49.5953 75.5269 49.677C75.4732 49.7563 75.4464 49.8555 75.4464 49.9745C75.4464 50.0772 75.472 50.1752 75.5234 50.2685C75.577 50.3618 75.6587 50.4377 75.7684 50.496C75.8804 50.5543 76.0262 50.5835 76.2059 50.5835ZM78.9744 51V47.22H79.5309V48.1335L79.4399 48.0145C79.4842 47.8978 79.5414 47.7905 79.6114 47.6925C79.6837 47.5945 79.7642 47.514 79.8529 47.451C79.9509 47.3717 80.0617 47.311 80.1854 47.269C80.309 47.227 80.435 47.2025 80.5634 47.1955C80.6917 47.1862 80.8119 47.1943 80.9239 47.22V47.8045C80.7932 47.7695 80.6497 47.7602 80.4934 47.7765C80.337 47.7928 80.1924 47.85 80.0594 47.948C79.938 48.0343 79.8435 48.1393 79.7759 48.263C79.7105 48.3867 79.665 48.5208 79.6394 48.6655C79.6137 48.8078 79.6009 48.9537 79.6009 49.103V51H78.9744ZM83.0013 51.105C82.649 51.105 82.3468 51.0175 82.0948 50.8425C81.8428 50.6652 81.648 50.426 81.5103 50.125C81.375 49.824 81.3073 49.4845 81.3073 49.1065C81.3073 48.7285 81.375 48.389 81.5103 48.088C81.648 47.787 81.8428 47.5502 82.0948 47.3775C82.3468 47.2025 82.6478 47.115 82.9978 47.115C83.3548 47.115 83.6547 47.2013 83.8973 47.374C84.14 47.5467 84.3232 47.7835 84.4468 48.0845C84.5728 48.3855 84.6358 48.7262 84.6358 49.1065C84.6358 49.4822 84.5728 49.8217 84.4468 50.125C84.3232 50.426 84.14 50.6652 83.8973 50.8425C83.6547 51.0175 83.356 51.105 83.0013 51.105ZM83.0783 50.5345C83.3327 50.5345 83.5415 50.4738 83.7048 50.3525C83.8682 50.2288 83.9883 50.0597 84.0653 49.845C84.1447 49.628 84.1843 49.3818 84.1843 49.1065C84.1843 48.8265 84.1447 48.5803 84.0653 48.368C83.9883 48.1533 83.8693 47.9865 83.7083 47.8675C83.5473 47.7462 83.3432 47.6855 83.0958 47.6855C82.8392 47.6855 82.6268 47.7485 82.4588 47.8745C82.2932 48.0005 82.1695 48.1708 82.0878 48.3855C82.0085 48.6002 81.9688 48.8405 81.9688 49.1065C81.9688 49.3748 82.0097 49.6175 82.0913 49.8345C82.173 50.0492 82.2955 50.2195 82.4588 50.3455C82.6245 50.4715 82.831 50.5345 83.0783 50.5345ZM84.1843 51V48.2175H84.1143V45.96H84.7408V51H84.1843Z" fill="#808191"/>
<path d="M41.0066 47.0495L41.006 47.049C40.911 46.9542 40.8694 46.8529 40.8694 46.7222V45.3889C40.8694 45.2582 40.9111 45.1566 41.0063 45.0614C41.1011 44.9666 41.2024 44.925 41.3333 44.925H43.1111C43.242 44.925 43.3435 44.9666 43.4386 45.0614C43.5334 45.1565 43.575 45.2581 43.575 45.3889V46.7222C43.575 46.8532 43.5334 46.9545 43.4386 47.0493C43.3434 47.1445 43.2418 47.1861 43.1111 47.1861H41.3333C41.2026 47.1861 41.1014 47.1445 41.0066 47.0495ZM36.8889 52.075C36.7581 52.075 36.6565 52.0334 36.5614 51.9386C36.4666 51.8435 36.425 51.742 36.425 51.6111V45.3889C36.425 45.258 36.4666 45.1565 36.5614 45.0614C36.6565 44.9666 36.758 44.925 36.8889 44.925H38.6667C38.7975 44.925 38.8991 44.9666 38.9942 45.0614C39.089 45.1565 39.1306 45.2581 39.1306 45.3889V51.6111C39.1306 51.742 39.089 51.8435 38.9941 51.9386C38.899 52.0334 38.7975 52.075 38.6667 52.075H36.8889ZM41.3333 52.075C41.2024 52.075 41.1011 52.0334 41.0063 51.9386C40.9111 51.8434 40.8694 51.7418 40.8694 51.6111V49.3889C40.8694 49.2582 40.9111 49.1566 41.0063 49.0614C41.1011 48.9666 41.2024 48.925 41.3333 48.925H43.1111C43.242 48.925 43.3435 48.9666 43.4386 49.0614C43.5334 49.1565 43.575 49.258 43.575 49.3889V51.6111C43.575 51.742 43.5334 51.8435 43.4386 51.9386C43.3435 52.0334 43.242 52.075 43.1111 52.075H41.3333Z" stroke="#808191" stroke-width="0.85"/>
<path d="M52.0935 77.605C51.5895 77.605 51.1602 77.4953 50.8055 77.276C50.4508 77.0543 50.179 76.7463 49.99 76.352C49.8033 75.9577 49.71 75.5003 49.71 74.98C49.71 74.4597 49.8033 74.0023 49.99 73.608C50.179 73.2137 50.4508 72.9068 50.8055 72.6875C51.1602 72.4658 51.5895 72.355 52.0935 72.355C52.5952 72.355 53.0233 72.4658 53.378 72.6875C53.735 72.9068 54.0068 73.2137 54.1935 73.608C54.3802 74.0023 54.4735 74.4597 54.4735 74.98C54.4735 75.5003 54.3802 75.9577 54.1935 76.352C54.0068 76.7463 53.735 77.0543 53.378 77.276C53.0233 77.4953 52.5952 77.605 52.0935 77.605ZM52.0935 76.9085C52.4505 76.9132 52.7468 76.835 52.9825 76.674C53.2205 76.5107 53.399 76.2843 53.518 75.995C53.637 75.7033 53.6965 75.365 53.6965 74.98C53.6965 74.595 53.637 74.259 53.518 73.972C53.399 73.6827 53.2205 73.4575 52.9825 73.2965C52.7468 73.1355 52.4505 73.0538 52.0935 73.0515C51.7365 73.0468 51.439 73.125 51.201 73.286C50.9653 73.447 50.788 73.6733 50.669 73.965C50.55 74.2567 50.4893 74.595 50.487 74.98C50.4847 75.365 50.543 75.7022 50.662 75.9915C50.781 76.2785 50.9595 76.5025 51.1975 76.6635C51.4378 76.8245 51.7365 76.9062 52.0935 76.9085ZM55.1716 77.5V73.72H55.8226V74.637L55.7316 74.518C55.7783 74.3967 55.839 74.2858 55.9136 74.1855C55.9883 74.0828 56.0746 73.9988 56.1726 73.9335C56.2683 73.8635 56.3745 73.8098 56.4911 73.7725C56.6101 73.7328 56.7315 73.7095 56.8551 73.7025C56.9788 73.6932 57.0978 73.699 57.2121 73.72V74.406C57.0885 74.3733 56.9508 74.364 56.7991 74.378C56.6498 74.392 56.5121 74.4398 56.3861 74.5215C56.2671 74.5985 56.1726 74.6918 56.1026 74.8015C56.035 74.9112 55.986 75.0337 55.9556 75.169C55.9253 75.302 55.9101 75.4432 55.9101 75.5925V77.5H55.1716ZM59.3118 77.605C58.9595 77.605 58.655 77.5175 58.3983 77.3425C58.144 77.1675 57.9468 76.9295 57.8068 76.6285C57.6691 76.3252 57.6003 75.9845 57.6003 75.6065C57.6003 75.2262 57.6703 74.8867 57.8103 74.588C57.9503 74.287 58.1486 74.0502 58.4053 73.8775C58.6643 73.7025 58.9711 73.615 59.3258 73.615C59.6828 73.615 59.9826 73.7025 60.2253 73.8775C60.4703 74.0502 60.6546 74.287 60.7783 74.588C60.9043 74.889 60.9673 75.2285 60.9673 75.6065C60.9673 75.9845 60.9043 76.324 60.7783 76.625C60.6523 76.926 60.4668 77.1652 60.2218 77.3425C59.9768 77.5175 59.6735 77.605 59.3118 77.605ZM59.4133 76.9435C59.6536 76.9435 59.8496 76.8863 60.0013 76.772C60.153 76.6577 60.2638 76.5002 60.3338 76.2995C60.4038 76.0988 60.4388 75.8678 60.4388 75.6065C60.4388 75.3452 60.4026 75.1142 60.3303 74.9135C60.2603 74.7128 60.1506 74.5565 60.0013 74.4445C59.8543 74.3325 59.6665 74.2765 59.4378 74.2765C59.1951 74.2765 58.9956 74.336 58.8393 74.455C58.683 74.574 58.5663 74.7338 58.4893 74.9345C58.4146 75.1352 58.3773 75.3592 58.3773 75.6065C58.3773 75.8562 58.4146 76.0825 58.4893 76.2855C58.5663 76.4862 58.6806 76.646 58.8323 76.765C58.9863 76.884 59.18 76.9435 59.4133 76.9435ZM60.4388 77.5V74.7805H60.3548V72.46H61.0898V77.5H60.4388ZM63.7456 77.605C63.3699 77.605 63.0398 77.5233 62.7551 77.36C62.4728 77.1943 62.2523 76.9645 62.0936 76.6705C61.9373 76.3742 61.8591 76.0312 61.8591 75.6415C61.8591 75.2285 61.9361 74.8703 62.0901 74.567C62.2464 74.2637 62.4634 74.0292 62.7411 73.8635C63.0188 73.6978 63.3419 73.615 63.7106 73.615C64.0956 73.615 64.4234 73.7048 64.6941 73.8845C64.9648 74.0618 65.1666 74.315 65.2996 74.644C65.4349 74.973 65.4886 75.3638 65.4606 75.8165H64.7291V75.5505C64.7244 75.1118 64.6404 74.7875 64.4771 74.5775C64.3161 74.3675 64.0699 74.2625 63.7386 74.2625C63.3723 74.2625 63.0969 74.378 62.9126 74.609C62.7283 74.84 62.6361 75.1737 62.6361 75.61C62.6361 76.0253 62.7283 76.3473 62.9126 76.576C63.0969 76.8023 63.3629 76.9155 63.7106 76.9155C63.9393 76.9155 64.1364 76.8642 64.3021 76.7615C64.4701 76.6565 64.6008 76.5072 64.6941 76.3135L65.4116 76.541C65.2646 76.8793 65.0418 77.1418 64.7431 77.3285C64.4444 77.5128 64.1119 77.605 63.7456 77.605ZM62.3981 75.8165V75.246H65.0966V75.8165H62.3981ZM66.2459 77.5V73.72H66.8969V74.637L66.8059 74.518C66.8525 74.3967 66.9132 74.2858 66.9879 74.1855C67.0625 74.0828 67.1489 73.9988 67.2469 73.9335C67.3425 73.8635 67.4487 73.8098 67.5654 73.7725C67.6844 73.7328 67.8057 73.7095 67.9294 73.7025C68.053 73.6932 68.172 73.699 68.2864 73.72V74.406C68.1627 74.3733 68.025 74.364 67.8734 74.378C67.724 74.392 67.5864 74.4398 67.4604 74.5215C67.3414 74.5985 67.2469 74.6918 67.1769 74.8015C67.1092 74.9112 67.0602 75.0337 67.0299 75.169C66.9995 75.302 66.9844 75.4432 66.9844 75.5925V77.5H66.2459ZM70.2617 77.6015C69.802 77.6015 69.4275 77.5 69.1382 77.297C68.8488 77.094 68.6715 76.8082 68.6062 76.4395L69.3552 76.324C69.4018 76.52 69.5092 76.6752 69.6772 76.7895C69.8475 76.9015 70.0587 76.9575 70.3107 76.9575C70.5393 76.9575 70.7178 76.9108 70.8462 76.8175C70.9768 76.7242 71.0422 76.5958 71.0422 76.4325C71.0422 76.3368 71.0188 76.2598 70.9722 76.2015C70.9278 76.1408 70.8333 76.0837 70.6887 76.03C70.544 75.9763 70.3235 75.9098 70.0272 75.8305C69.7028 75.7465 69.445 75.6567 69.2537 75.561C69.0647 75.463 68.9293 75.3498 68.8477 75.2215C68.7683 75.0908 68.7287 74.9333 68.7287 74.749C68.7287 74.5203 68.7893 74.3208 68.9107 74.1505C69.032 73.9802 69.2023 73.8483 69.4217 73.755C69.6433 73.6617 69.9023 73.615 70.1987 73.615C70.488 73.615 70.7458 73.6605 70.9722 73.7515C71.1985 73.8425 71.3817 73.972 71.5217 74.14C71.6617 74.3057 71.7457 74.5005 71.7737 74.7245L71.0247 74.861C70.999 74.679 70.9138 74.5355 70.7692 74.4305C70.6245 74.3255 70.4367 74.2683 70.2057 74.259C69.984 74.2497 69.8043 74.287 69.6667 74.371C69.529 74.4527 69.4602 74.5658 69.4602 74.7105C69.4602 74.7945 69.4858 74.8657 69.5372 74.924C69.5908 74.9823 69.6935 75.0383 69.8452 75.092C69.9968 75.1457 70.2208 75.2098 70.5172 75.2845C70.8345 75.3662 71.0865 75.4572 71.2732 75.5575C71.4598 75.6555 71.5928 75.7733 71.6722 75.911C71.7538 76.0463 71.7947 76.2108 71.7947 76.4045C71.7947 76.7778 71.6582 77.0707 71.3852 77.283C71.1145 77.4953 70.74 77.6015 70.2617 77.6015Z" fill="#808191"/>
<path d="M49.99 104V98.96H52.027C52.076 98.96 52.1367 98.9623 52.209 98.967C52.2813 98.9693 52.3502 98.9763 52.4155 98.988C52.6955 99.0323 52.9288 99.128 53.1155 99.275C53.3045 99.422 53.4457 99.6075 53.539 99.8315C53.6323 100.055 53.679 100.303 53.679 100.573C53.679 100.846 53.6323 101.095 53.539 101.319C53.4457 101.543 53.3045 101.728 53.1155 101.875C52.9288 102.022 52.6955 102.118 52.4155 102.162C52.3502 102.172 52.2802 102.179 52.2055 102.183C52.1332 102.188 52.0737 102.19 52.027 102.19H50.7215V104H49.99ZM50.7215 101.497H51.999C52.0457 101.497 52.097 101.495 52.153 101.49C52.2113 101.486 52.2662 101.478 52.3175 101.466C52.4668 101.431 52.587 101.367 52.678 101.273C52.769 101.178 52.8343 101.068 52.874 100.944C52.9137 100.821 52.9335 100.697 52.9335 100.573C52.9335 100.45 52.9137 100.327 52.874 100.206C52.8343 100.082 52.769 99.9738 52.678 99.8805C52.587 99.7848 52.4668 99.7195 52.3175 99.6845C52.2662 99.6705 52.2113 99.6612 52.153 99.6565C52.097 99.6518 52.0457 99.6495 51.999 99.6495H50.7215V101.497ZM55.33 104.105C55.05 104.105 54.8155 104.054 54.6265 103.951C54.4375 103.846 54.294 103.708 54.196 103.538C54.1003 103.365 54.0525 103.176 54.0525 102.971C54.0525 102.78 54.0863 102.612 54.154 102.467C54.2216 102.322 54.322 102.2 54.455 102.099C54.588 101.997 54.7513 101.914 54.945 101.851C55.113 101.802 55.3031 101.759 55.5155 101.721C55.7278 101.684 55.9506 101.649 56.184 101.616C56.4196 101.584 56.653 101.551 56.884 101.518L56.618 101.665C56.6226 101.369 56.5596 101.15 56.429 101.007C56.3006 100.863 56.079 100.79 55.764 100.79C55.5656 100.79 55.3836 100.837 55.218 100.93C55.0523 101.021 54.9368 101.173 54.8715 101.385L54.189 101.175C54.2823 100.851 54.4596 100.593 54.721 100.402C54.9846 100.211 55.3346 100.115 55.771 100.115C56.1093 100.115 56.4033 100.173 56.653 100.29C56.905 100.404 57.0893 100.586 57.206 100.836C57.2666 100.96 57.304 101.09 57.318 101.228C57.332 101.366 57.339 101.514 57.339 101.672V104H56.6915V103.135L56.8175 103.247C56.6611 103.537 56.4616 103.753 56.219 103.895C55.9786 104.035 55.6823 104.105 55.33 104.105ZM55.4595 103.506C55.6671 103.506 55.8456 103.47 55.995 103.398C56.1443 103.323 56.2645 103.229 56.3555 103.114C56.4465 103 56.506 102.881 56.534 102.757C56.5736 102.645 56.5958 102.519 56.6005 102.379C56.6075 102.239 56.611 102.127 56.611 102.043L56.849 102.131C56.618 102.166 56.408 102.197 56.219 102.225C56.03 102.253 55.8585 102.281 55.7045 102.309C55.5528 102.335 55.4175 102.367 55.2985 102.404C55.1981 102.439 55.1083 102.481 55.029 102.53C54.952 102.579 54.8901 102.638 54.8435 102.708C54.7991 102.778 54.777 102.864 54.777 102.964C54.777 103.062 54.8015 103.153 54.8505 103.237C54.8995 103.319 54.9741 103.384 55.0745 103.433C55.1748 103.482 55.3031 103.506 55.4595 103.506ZM58.5469 105.68L59.2784 103.688L59.2889 104.277L57.6404 100.22H58.4034L59.6354 103.352H59.4114L60.5874 100.22H61.3294L59.2434 105.68H58.5469ZM66.4067 104L66.4102 101.644C66.4102 101.371 66.3402 101.159 66.2002 101.007C66.0602 100.853 65.8759 100.776 65.6472 100.776C65.5072 100.776 65.3789 100.809 65.2622 100.874C65.1479 100.937 65.0545 101.033 64.9822 101.161C64.9122 101.287 64.8772 101.446 64.8772 101.637L64.5237 101.459C64.519 101.193 64.575 100.96 64.6917 100.759C64.8107 100.558 64.9717 100.403 65.1747 100.293C65.3777 100.181 65.6052 100.126 65.8572 100.126C66.2655 100.126 66.5817 100.248 66.8057 100.493C67.0297 100.738 67.1417 101.063 67.1417 101.469L67.1382 104H66.4067ZM61.8742 104V100.22H62.5252V101.312H62.6092V104H61.8742ZM64.1422 104L64.1457 101.658C64.1457 101.383 64.0757 101.167 63.9357 101.011C63.798 100.855 63.6125 100.776 63.3792 100.776C63.1482 100.776 62.9615 100.856 62.8192 101.014C62.6792 101.173 62.6092 101.381 62.6092 101.637L62.2592 101.413C62.2592 101.166 62.3187 100.946 62.4377 100.752C62.5567 100.558 62.7177 100.405 62.9207 100.293C63.1237 100.181 63.3535 100.126 63.6102 100.126C63.8785 100.126 64.1072 100.183 64.2962 100.297C64.4852 100.409 64.6287 100.566 64.7267 100.769C64.827 100.972 64.8772 101.208 64.8772 101.476L64.8737 104H64.1422ZM69.6792 104.105C69.3035 104.105 68.9734 104.023 68.6887 103.86C68.4064 103.694 68.1859 103.464 68.0272 103.17C67.8709 102.874 67.7927 102.531 67.7927 102.141C67.7927 101.728 67.8697 101.37 68.0237 101.067C68.18 100.764 68.397 100.529 68.6747 100.363C68.9524 100.198 69.2755 100.115 69.6442 100.115C70.0292 100.115 70.357 100.205 70.6277 100.385C70.8984 100.562 71.1002 100.815 71.2332 101.144C71.3685 101.473 71.4222 101.864 71.3942 102.316H70.6627V102.05C70.658 101.612 70.574 101.287 70.4107 101.077C70.2497 100.867 70.0035 100.762 69.6722 100.762C69.3059 100.762 69.0305 100.878 68.8462 101.109C68.6619 101.34 68.5697 101.674 68.5697 102.11C68.5697 102.525 68.6619 102.847 68.8462 103.076C69.0305 103.302 69.2965 103.415 69.6442 103.415C69.8729 103.415 70.07 103.364 70.2357 103.261C70.4037 103.156 70.5344 103.007 70.6277 102.813L71.3452 103.041C71.1982 103.379 70.9754 103.642 70.6767 103.828C70.378 104.013 70.0455 104.105 69.6792 104.105ZM68.3317 102.316V101.746H71.0302V102.316H68.3317ZM74.7299 104V102.141C74.7299 101.994 74.7171 101.844 74.6914 101.69C74.6681 101.534 74.6214 101.389 74.5514 101.256C74.4837 101.123 74.3869 101.016 74.2609 100.934C74.1372 100.852 73.9751 100.811 73.7744 100.811C73.6437 100.811 73.5201 100.834 73.4034 100.878C73.2867 100.92 73.1841 100.989 73.0954 101.084C73.0091 101.18 72.9402 101.306 72.8889 101.462C72.8399 101.619 72.8154 101.809 72.8154 102.033L72.3604 101.861C72.3604 101.518 72.4246 101.216 72.5529 100.955C72.6812 100.691 72.8656 100.486 73.1059 100.339C73.3462 100.192 73.6367 100.118 73.9774 100.118C74.2387 100.118 74.4581 100.16 74.6354 100.244C74.8127 100.328 74.9562 100.439 75.0659 100.577C75.1779 100.712 75.2631 100.86 75.3214 101.021C75.3797 101.182 75.4194 101.34 75.4404 101.494C75.4614 101.648 75.4719 101.783 75.4719 101.9V104H74.7299ZM72.0734 104V100.22H72.7279V101.312H72.8154V104H72.0734ZM78.5466 104C78.3086 104.047 78.0752 104.067 77.8466 104.06C77.6179 104.053 77.4137 104.008 77.2341 103.926C77.0544 103.845 76.9191 103.716 76.8281 103.541C76.7464 103.385 76.7021 103.226 76.6951 103.065C76.6904 102.902 76.6881 102.718 76.6881 102.512V99.17H77.4231V102.477C77.4231 102.629 77.4242 102.761 77.4266 102.873C77.4312 102.985 77.4557 103.079 77.5001 103.156C77.5841 103.301 77.7171 103.384 77.8991 103.405C78.0834 103.424 78.2992 103.415 78.5466 103.38V104ZM75.9636 100.808V100.22H78.5466V100.808H75.9636Z" fill="#808191"/>
<path d="M40.2501 97C40.5266 97 40.75 97.2519 40.75 97.5625V98.1897C40.775 98.1934 40.7985 98.1974 40.8235 98.2015C40.9891 98.2292 41.4828 98.3187 41.686 98.3765C41.9391 98.4528 42.1156 98.7596 42.0469 99.0602C41.9797 99.3607 41.7078 99.5436 41.4391 99.468C41.2938 99.41 40.8516 99.3432 40.6766 99.315C40.1751 99.2307 39.7454 99.2729 39.4501 99.3994C39.1645 99.5225 39.0459 99.6965 39.0145 99.8916C38.9842 100.08 39.0071 100.187 39.0346 100.254C39.0642 100.324 39.1218 100.403 39.2367 100.489C39.4907 100.677 39.8782 100.804 40.3813 100.957L40.4251 100.971C40.8688 101.106 41.4125 101.273 41.8156 101.574C42.0359 101.739 42.2438 101.962 42.3719 102.272C42.5016 102.585 42.5297 102.936 42.4703 103.295C42.3609 103.979 41.9391 104.425 41.4438 104.657C41.2313 104.755 40.9969 104.819 40.75 104.85V105.438C40.75 105.749 40.5266 106 40.2501 106C39.9735 106 39.7501 105.749 39.7501 105.438V104.824C39.7438 104.824 39.736 104.806 39.7298 104.821H39.7266C39.347 104.754 38.7199 104.569 38.297 104.358C38.0447 104.232 37.9311 103.899 38.0432 103.615C38.1554 103.332 38.4509 103.203 38.6892 103.33C39.0298 103.493 39.5673 103.653 39.8782 103.708C40.3782 103.792 40.7891 103.743 41.0672 103.616C41.3313 103.495 41.4516 103.319 41.486 103.108C41.5157 102.92 41.4938 102.813 41.4657 102.746C41.436 102.676 41.3782 102.597 41.2641 102.511C41.0094 102.323 40.6219 102.196 40.1188 102.043L40.0751 102.029C39.6313 101.894 39.0873 101.727 38.6839 101.426C38.4634 101.261 38.2568 101.038 38.1286 100.728C37.9984 100.415 37.9701 100.064 38.0306 99.6895C38.1412 99.0057 38.579 98.5696 39.0932 98.3488C39.2967 98.2614 39.5173 98.2039 39.7501 98.173V97.5625C39.7501 97.2519 39.9735 97 40.2501 97Z" fill="#808191"/>
<g filter="url(#filter1_d_217_518)">
<circle cx="115.5" cy="14.5" r="5" fill="white"/>
</g>
<path d="M113.5 14L115.5 16L117.5 14" stroke="#7E57C2" stroke-width="0.75" stroke-linecap="round" stroke-linejoin="round"/>
</g>
<rect x="30" y="66" width="92.5" height="22.5" rx="4" fill="#7E57C2"/>
<path d="M52.5935 80.105C52.0895 80.105 51.6602 79.9953 51.3055 79.776C50.9508 79.5543 50.679 79.2463 50.49 78.852C50.3033 78.4577 50.21 78.0003 50.21 77.48C50.21 76.9597 50.3033 76.5023 50.49 76.108C50.679 75.7137 50.9508 75.4068 51.3055 75.1875C51.6602 74.9658 52.0895 74.855 52.5935 74.855C53.0952 74.855 53.5233 74.9658 53.878 75.1875C54.235 75.4068 54.5068 75.7137 54.6935 76.108C54.8802 76.5023 54.9735 76.9597 54.9735 77.48C54.9735 78.0003 54.8802 78.4577 54.6935 78.852C54.5068 79.2463 54.235 79.5543 53.878 79.776C53.5233 79.9953 53.0952 80.105 52.5935 80.105ZM52.5935 79.4085C52.9505 79.4132 53.2468 79.335 53.4825 79.174C53.7205 79.0107 53.899 78.7843 54.018 78.495C54.137 78.2033 54.1965 77.865 54.1965 77.48C54.1965 77.095 54.137 76.759 54.018 76.472C53.899 76.1827 53.7205 75.9575 53.4825 75.7965C53.2468 75.6355 52.9505 75.5538 52.5935 75.5515C52.2365 75.5468 51.939 75.625 51.701 75.786C51.4653 75.947 51.288 76.1733 51.169 76.465C51.05 76.7567 50.9893 77.095 50.987 77.48C50.9847 77.865 51.043 78.2022 51.162 78.4915C51.281 78.7785 51.4595 79.0025 51.6975 79.1635C51.9378 79.3245 52.2365 79.4062 52.5935 79.4085ZM55.6716 80V76.22H56.3226V77.137L56.2316 77.018C56.2783 76.8967 56.339 76.7858 56.4136 76.6855C56.4883 76.5828 56.5746 76.4988 56.6726 76.4335C56.7683 76.3635 56.8745 76.3098 56.9911 76.2725C57.1101 76.2328 57.2315 76.2095 57.3551 76.2025C57.4788 76.1932 57.5978 76.199 57.7121 76.22V76.906C57.5885 76.8733 57.4508 76.864 57.2991 76.878C57.1498 76.892 57.0121 76.9398 56.8861 77.0215C56.7671 77.0985 56.6726 77.1918 56.6026 77.3015C56.535 77.4112 56.486 77.5337 56.4556 77.669C56.4253 77.802 56.4101 77.9432 56.4101 78.0925V80H55.6716ZM59.8118 80.105C59.4595 80.105 59.155 80.0175 58.8983 79.8425C58.644 79.6675 58.4468 79.4295 58.3068 79.1285C58.1691 78.8252 58.1003 78.4845 58.1003 78.1065C58.1003 77.7262 58.1703 77.3867 58.3103 77.088C58.4503 76.787 58.6486 76.5502 58.9053 76.3775C59.1643 76.2025 59.4711 76.115 59.8258 76.115C60.1828 76.115 60.4826 76.2025 60.7253 76.3775C60.9703 76.5502 61.1546 76.787 61.2783 77.088C61.4043 77.389 61.4673 77.7285 61.4673 78.1065C61.4673 78.4845 61.4043 78.824 61.2783 79.125C61.1523 79.426 60.9668 79.6652 60.7218 79.8425C60.4768 80.0175 60.1735 80.105 59.8118 80.105ZM59.9133 79.4435C60.1536 79.4435 60.3496 79.3863 60.5013 79.272C60.653 79.1577 60.7638 79.0002 60.8338 78.7995C60.9038 78.5988 60.9388 78.3678 60.9388 78.1065C60.9388 77.8452 60.9026 77.6142 60.8303 77.4135C60.7603 77.2128 60.6506 77.0565 60.5013 76.9445C60.3543 76.8325 60.1665 76.7765 59.9378 76.7765C59.6951 76.7765 59.4956 76.836 59.3393 76.955C59.183 77.074 59.0663 77.2338 58.9893 77.4345C58.9146 77.6352 58.8773 77.8592 58.8773 78.1065C58.8773 78.3562 58.9146 78.5825 58.9893 78.7855C59.0663 78.9862 59.1806 79.146 59.3323 79.265C59.4863 79.384 59.68 79.4435 59.9133 79.4435ZM60.9388 80V77.2805H60.8548V74.96H61.5898V80H60.9388ZM64.2456 80.105C63.8699 80.105 63.5398 80.0233 63.2551 79.86C62.9728 79.6943 62.7523 79.4645 62.5936 79.1705C62.4373 78.8742 62.3591 78.5312 62.3591 78.1415C62.3591 77.7285 62.4361 77.3703 62.5901 77.067C62.7464 76.7637 62.9634 76.5292 63.2411 76.3635C63.5188 76.1978 63.8419 76.115 64.2106 76.115C64.5956 76.115 64.9234 76.2048 65.1941 76.3845C65.4648 76.5618 65.6666 76.815 65.7996 77.144C65.9349 77.473 65.9886 77.8638 65.9606 78.3165H65.2291V78.0505C65.2244 77.6118 65.1404 77.2875 64.9771 77.0775C64.8161 76.8675 64.5699 76.7625 64.2386 76.7625C63.8723 76.7625 63.5969 76.878 63.4126 77.109C63.2283 77.34 63.1361 77.6737 63.1361 78.11C63.1361 78.5253 63.2283 78.8473 63.4126 79.076C63.5969 79.3023 63.8629 79.4155 64.2106 79.4155C64.4393 79.4155 64.6364 79.3642 64.8021 79.2615C64.9701 79.1565 65.1008 79.0072 65.1941 78.8135L65.9116 79.041C65.7646 79.3793 65.5418 79.6418 65.2431 79.8285C64.9444 80.0128 64.6119 80.105 64.2456 80.105ZM62.8981 78.3165V77.746H65.5966V78.3165H62.8981ZM66.7459 80V76.22H67.3969V77.137L67.3059 77.018C67.3525 76.8967 67.4132 76.7858 67.4879 76.6855C67.5625 76.5828 67.6489 76.4988 67.7469 76.4335C67.8425 76.3635 67.9487 76.3098 68.0654 76.2725C68.1844 76.2328 68.3057 76.2095 68.4294 76.2025C68.553 76.1932 68.672 76.199 68.7864 76.22V76.906C68.6627 76.8733 68.525 76.864 68.3734 76.878C68.224 76.892 68.0864 76.9398 67.9604 77.0215C67.8414 77.0985 67.7469 77.1918 67.6769 77.3015C67.6092 77.4112 67.5602 77.5337 67.5299 77.669C67.4995 77.802 67.4844 77.9432 67.4844 78.0925V80H66.7459ZM70.7617 80.1015C70.302 80.1015 69.9275 80 69.6382 79.797C69.3488 79.594 69.1715 79.3082 69.1062 78.9395L69.8552 78.824C69.9018 79.02 70.0092 79.1752 70.1772 79.2895C70.3475 79.4015 70.5587 79.4575 70.8107 79.4575C71.0393 79.4575 71.2178 79.4108 71.3462 79.3175C71.4768 79.2242 71.5422 79.0958 71.5422 78.9325C71.5422 78.8368 71.5188 78.7598 71.4722 78.7015C71.4278 78.6408 71.3333 78.5837 71.1887 78.53C71.044 78.4763 70.8235 78.4098 70.5272 78.3305C70.2028 78.2465 69.945 78.1567 69.7537 78.061C69.5647 77.963 69.4293 77.8498 69.3477 77.7215C69.2683 77.5908 69.2287 77.4333 69.2287 77.249C69.2287 77.0203 69.2893 76.8208 69.4107 76.6505C69.532 76.4802 69.7023 76.3483 69.9217 76.255C70.1433 76.1617 70.4023 76.115 70.6987 76.115C70.988 76.115 71.2458 76.1605 71.4722 76.2515C71.6985 76.3425 71.8817 76.472 72.0217 76.64C72.1617 76.8057 72.2457 77.0005 72.2737 77.2245L71.5247 77.361C71.499 77.179 71.4138 77.0355 71.2692 76.9305C71.1245 76.8255 70.9367 76.7683 70.7057 76.759C70.484 76.7497 70.3043 76.787 70.1667 76.871C70.029 76.9527 69.9602 77.0658 69.9602 77.2105C69.9602 77.2945 69.9858 77.3657 70.0372 77.424C70.0908 77.4823 70.1935 77.5383 70.3452 77.592C70.4968 77.6457 70.7208 77.7098 71.0172 77.7845C71.3345 77.8662 71.5865 77.9572 71.7732 78.0575C71.9598 78.1555 72.0928 78.2733 72.1722 78.411C72.2538 78.5463 72.2947 78.7108 72.2947 78.9045C72.2947 79.2778 72.1582 79.5707 71.8852 79.783C71.6145 79.9953 71.24 80.1015 70.7617 80.1015Z" fill="white"/>
<path d="M44.0626 78.943H38.1217C38.0092 78.943 37.9013 78.8983 37.8217 78.8187C37.7421 78.7391 37.6974 78.6311 37.6974 78.5185C37.6974 78.4059 37.7421 78.298 37.8217 78.2183C37.9013 78.1387 38.0092 78.094 38.1217 78.094H42.5519C42.8357 78.094 43.1113 77.9992 43.335 77.8246C43.5587 77.6501 43.7177 77.4057 43.7868 77.1304L44.487 74.3754C44.5029 74.3127 44.5042 74.2473 44.491 74.184C44.4778 74.1207 44.4503 74.0613 44.4106 74.0103C44.3693 73.958 44.3163 73.9161 44.2559 73.8881C44.1954 73.8601 44.1292 73.8467 44.0626 73.849H38.8018C38.3332 73.849 37.9383 73.5059 37.5561 73.2347C37.3419 73.0827 37.0859 73.0007 36.8232 73H36.4243C36.3118 73 36.2039 73.0447 36.1243 73.1243C36.0447 73.2039 36 73.3119 36 73.4245C36 73.5371 36.0447 73.6451 36.1243 73.7247C36.2039 73.8043 36.3118 73.849 36.4243 73.849H36.8232C36.9202 73.8462 37.0151 73.8767 37.0924 73.9354C37.1696 73.9941 37.2244 74.0774 37.2476 74.1716L37.273 74.3754L37.7591 76.2753C37.887 76.7755 37.472 77.2774 37.1238 77.6585C36.8958 77.9081 36.7762 78.2381 36.7914 78.5758C36.8066 78.9136 36.9553 79.2315 37.2048 79.4595C37.4543 79.6876 37.7841 79.8072 38.1217 79.792C38.1589 79.792 38.1848 79.8289 38.1742 79.8646C38.1235 80.0357 38.1093 80.216 38.1327 80.3936C38.1596 80.5964 38.2349 80.7898 38.3523 80.9574C38.4697 81.125 38.6257 81.2618 38.8072 81.3562C38.9887 81.4507 39.1902 81.5 39.3948 81.5C39.5993 81.5 39.8009 81.4507 39.9824 81.3562C40.1638 81.2618 40.3199 81.125 40.4373 80.9574C40.5547 80.7898 40.63 80.5964 40.6568 80.3936C40.6617 80.3571 40.6649 80.3205 40.6665 80.2838C40.6775 80.0406 40.8487 79.792 41.0922 79.792C41.3356 79.792 41.5069 80.0406 41.5178 80.2838C41.5195 80.3205 41.5227 80.3571 41.5275 80.3936C41.5544 80.5964 41.6297 80.7898 41.7471 80.9574C41.8645 81.125 42.0205 81.2618 42.202 81.3562C42.3835 81.4507 42.585 81.5 42.7896 81.5C42.9941 81.5 43.1957 81.4507 43.3771 81.3562C43.5586 81.2618 43.7147 81.125 43.8321 80.9574C43.9495 80.7898 44.0248 80.5964 44.0516 80.3936C44.0751 80.216 44.0608 80.0357 44.0101 79.8646C43.9996 79.8289 44.0255 79.792 44.0626 79.792C44.1752 79.792 44.2831 79.7473 44.3627 79.6677C44.4423 79.5881 44.487 79.4801 44.487 79.3675C44.487 79.2549 44.4423 79.147 44.3627 79.0673C44.2831 78.9877 44.1752 78.943 44.0626 78.943ZM41.2267 74.698C42.3913 74.698 43.2459 75.7925 42.9636 76.9224C42.9403 77.0166 42.8855 77.1 42.8083 77.1587C42.7311 77.2174 42.6361 77.2478 42.5392 77.245H39.8715C39.2871 77.245 38.7777 76.8472 38.636 76.2803C38.4351 75.4765 39.043 74.698 39.8715 74.698H41.2267ZM39.3948 80.641C39.3109 80.641 39.2288 80.6161 39.159 80.5695C39.0892 80.5228 39.0349 80.4565 39.0027 80.379C38.9706 80.3014 38.9622 80.216 38.9786 80.1337C38.995 80.0514 39.0354 79.9757 39.0947 79.9163C39.1541 79.857 39.2297 79.8165 39.312 79.8002C39.3943 79.7838 39.4796 79.7922 39.5572 79.8243C39.6347 79.8565 39.701 79.9109 39.7476 79.9807C39.7942 80.0505 39.8191 80.1326 39.8191 80.2165C39.8191 80.3291 39.7744 80.4371 39.6948 80.5167C39.6153 80.5963 39.5073 80.641 39.3948 80.641ZM42.7896 80.641C42.7056 80.641 42.6236 80.6161 42.5538 80.5695C42.484 80.5228 42.4296 80.4565 42.3975 80.379C42.3654 80.3014 42.357 80.216 42.3734 80.1337C42.3897 80.0514 42.4302 79.9757 42.4895 79.9163C42.5489 79.857 42.6245 79.8165 42.7068 79.8002C42.7891 79.7838 42.8744 79.7922 42.952 79.8243C43.0295 79.8565 43.0958 79.9109 43.1424 79.9807C43.189 80.0505 43.2139 80.1326 43.2139 80.2165C43.2139 80.3291 43.1692 80.4371 43.0896 80.5167C43.01 80.5963 42.9021 80.641 42.7896 80.641Z" fill="white"/>
</g>
<defs>
<filter id="filter0_d_217_518" x="27.5" y="6" width="22" height="22" filterUnits="userSpaceOnUse" color-interpolation-filters="sRGB">
<feFlood flood-opacity="0" result="BackgroundImageFix"/>
<feColorMatrix in="SourceAlpha" type="matrix" values="0 0 0 0 0 0 0 0 0 0 0 0 0 0 0 0 0 0 127 0" result="hardAlpha"/>
<feOffset dy="3"/>
<feGaussianBlur stdDeviation="2.25"/>
<feComposite in2="hardAlpha" operator="out"/>
<feColorMatrix type="matrix" values="0 0 0 0 0 0 0 0 0 0 0 0 0 0 0 0 0 0 0.09 0"/>
<feBlend mode="normal" in2="BackgroundImageFix" result="effect1_dropShadow_217_518"/>
<feBlend mode="normal" in="SourceGraphic" in2="effect1_dropShadow_217_518" result="shape"/>
</filter>
<filter id="filter1_d_217_518" x="107.5" y="6.5" width="16" height="16" filterUnits="userSpaceOnUse" color-interpolation-filters="sRGB">
<feFlood flood-opacity="0" result="BackgroundImageFix"/>
<feColorMatrix in="SourceAlpha" type="matrix" values="0 0 0 0 0 0 0 0 0 0 0 0 0 0 0 0 0 0 127 0" result="hardAlpha"/>
<feMorphology radius="1" operator="dilate" in="SourceAlpha" result="effect1_dropShadow_217_518"/>
<feOffset/>
<feGaussianBlur stdDeviation="1"/>
<feComposite in2="hardAlpha" operator="out"/>
<feColorMatrix type="matrix" values="0 0 0 0 0.278431 0 0 0 0 0.356863 0 0 0 0 0.909804 0 0 0 0.11 0"/>
<feBlend mode="normal" in2="BackgroundImageFix" result="effect1_dropShadow_217_518"/>
<feBlend mode="normal" in="SourceGraphic" in2="effect1_dropShadow_217_518" result="shape"/>
</filter>
<clipPath id="clip0_217_518">
<rect x="24" y="-1" width="104.5" height="478" rx="2" fill="white"/>
</clipPath>
</defs>
</svg>
