<svg width="120" height="15" viewBox="0 0 120 15" fill="none" xmlns="http://www.w3.org/2000/svg">
<path d="M0.107807 14.92L5.41981 1.72H7.70781L2.39581 14.92H0.107807ZM12.0976 13V1.08H14.2736V6.28H19.3456V1.08H21.5376V13H19.3456V8.2H14.2736V13H12.0976ZM26.8319 13V1.08H34.7519V3H29.0079V6.056H34.4319V7.976H29.0079V11.08H34.7519V13H26.8319ZM39.3476 13V1.08H41.5236V11.08H46.6276V13H39.3476ZM51.0351 13V1.08H53.2111V11.08H58.3151V13H51.0351ZM68.2821 13.192C67.4074 13.192 66.5914 13.0373 65.8341 12.728C65.0767 12.4187 64.4154 11.9867 63.8501 11.432C63.2847 10.8773 62.8421 10.2267 62.5221 9.48C62.2127 8.72267 62.0581 7.90667 62.0581 7.032C62.0581 6.14667 62.2127 5.33067 62.5221 4.584C62.8314 3.83733 63.2687 3.18667 63.8341 2.632C64.3994 2.07733 65.0607 1.65067 65.8181 1.352C66.5754 1.04267 67.3967 0.888 68.2821 0.888C69.1674 0.888 69.9887 1.04267 70.7461 1.352C71.5034 1.66133 72.1647 2.09333 72.7301 2.648C73.2954 3.192 73.7327 3.83733 74.0421 4.584C74.3621 5.33067 74.5221 6.14667 74.5221 7.032C74.5221 7.90667 74.3621 8.72267 74.0421 9.48C73.7221 10.2267 73.2794 10.8773 72.7141 11.432C72.1487 11.9867 71.4874 12.4187 70.7301 12.728C69.9834 13.0373 69.1674 13.192 68.2821 13.192ZM68.2821 11.208C68.8687 11.208 69.4074 11.1067 69.8981 10.904C70.3887 10.6907 70.8154 10.3973 71.1781 10.024C71.5514 9.65067 71.8341 9.208 72.0261 8.696C72.2287 8.184 72.3301 7.62933 72.3301 7.032C72.3301 6.43467 72.2287 5.88533 72.0261 5.384C71.8341 4.872 71.5514 4.42933 71.1781 4.056C70.8154 3.672 70.3887 3.37867 69.8981 3.176C69.4074 2.97333 68.8687 2.872 68.2821 2.872C67.7061 2.872 67.1727 2.97333 66.6821 3.176C66.1914 3.37867 65.7594 3.672 65.3861 4.056C65.0234 4.42933 64.7407 4.872 64.5381 5.384C64.3354 5.88533 64.2341 6.43467 64.2341 7.032C64.2341 7.62933 64.3354 8.184 64.5381 8.696C64.7407 9.208 65.0234 9.65067 65.3861 10.024C65.7594 10.3973 66.1914 10.6907 66.6821 10.904C67.1727 11.1067 67.7061 11.208 68.2821 11.208ZM83.7129 13.192C82.9556 13.192 82.2516 13.0533 81.6009 12.776C80.9609 12.4987 80.4063 12.1147 79.9369 11.624C79.4783 11.1227 79.1423 10.5413 78.9289 9.88L80.7369 9.096C81.0249 9.77867 81.4409 10.3173 81.9849 10.712C82.5289 11.096 83.1423 11.288 83.8249 11.288C84.2089 11.288 84.5396 11.2293 84.8169 11.112C85.1049 10.984 85.3236 10.8133 85.4729 10.6C85.6329 10.3867 85.7129 10.1307 85.7129 9.832C85.7129 9.48 85.6063 9.192 85.3929 8.968C85.1903 8.73333 84.8809 8.552 84.4649 8.424L82.1769 7.688C81.2489 7.4 80.5503 6.968 80.0809 6.392C79.6116 5.816 79.3769 5.13867 79.3769 4.36C79.3769 3.67733 79.5423 3.07467 79.8729 2.552C80.2143 2.02933 80.6836 1.624 81.2809 1.336C81.8889 1.03733 82.5823 0.888 83.3609 0.888C84.0756 0.888 84.7316 1.016 85.3289 1.272C85.9263 1.51733 86.4383 1.864 86.8649 2.312C87.3023 2.74933 87.6276 3.26667 87.8409 3.864L86.0489 4.664C85.8143 4.06667 85.4623 3.608 84.9929 3.288C84.5236 2.95733 83.9796 2.792 83.3609 2.792C82.9983 2.792 82.6783 2.856 82.4009 2.984C82.1236 3.10133 81.9049 3.272 81.7449 3.496C81.5956 3.70933 81.5209 3.96533 81.5209 4.264C81.5209 4.59467 81.6276 4.888 81.8409 5.144C82.0543 5.38933 82.3796 5.58133 82.8169 5.72L85.0089 6.408C85.9583 6.71733 86.6676 7.144 87.1369 7.688C87.6169 8.232 87.8569 8.904 87.8569 9.704C87.8569 10.3867 87.6809 10.9893 87.3289 11.512C86.9769 12.0347 86.4916 12.4453 85.8729 12.744C85.2543 13.0427 84.5343 13.192 83.7129 13.192ZM92.8163 13V1.08H94.9923V13H92.8163ZM102.397 13V3H99.3091V1.08H107.629V3H104.589V13H102.397ZM111.957 13V1.08H119.877V3H114.133V6.056H119.557V7.976H114.133V11.08H119.877V13H111.957Z" fill="url(#paint0_linear_100_1189)"/>
<defs>
<linearGradient id="paint0_linear_100_1189" x1="-0.148193" y1="6" x2="120.852" y2="6" gradientUnits="userSpaceOnUse">
<stop stop-color="#B92B27"/>
<stop offset="1" stop-color="#1565C0"/>
</linearGradient>
</defs>
</svg>
