<svg width="90" height="15" viewBox="0 0 90 15" fill="none" xmlns="http://www.w3.org/2000/svg">
<path d="M0.32 14.92L5.6 1.72H8.192L2.912 14.92H0.32ZM63.9094 13V4.264H66.3094V13H63.9094ZM63.9094 3.48V1.08H66.3094V3.48H63.9094ZM72.8336 13.096C71.7776 13.096 70.9563 12.8133 70.3696 12.248C69.7936 11.672 69.5056 10.872 69.5056 9.848V6.344H68.0336V4.264H68.1136C68.5616 4.264 68.903 4.152 69.1376 3.928C69.383 3.704 69.5056 3.368 69.5056 2.92V2.28H71.9056V4.264H73.9536V6.344H71.9056V9.688C71.9056 9.98667 71.959 10.2373 72.0656 10.44C72.1723 10.632 72.3376 10.776 72.5616 10.872C72.7856 10.968 73.063 11.016 73.3936 11.016C73.4683 11.016 73.5536 11.0107 73.6496 11C73.7456 10.9893 73.847 10.9787 73.9536 10.968V13C73.7936 13.0213 73.6123 13.0427 73.4096 13.064C73.207 13.0853 73.015 13.096 72.8336 13.096ZM80.128 13.192C79.2 13.192 78.3947 12.9893 77.712 12.584C77.0293 12.168 76.5013 11.6133 76.128 10.92C75.7547 10.2267 75.568 9.45867 75.568 8.616C75.568 7.74133 75.76 6.96267 76.144 6.28C76.5387 5.59733 77.0667 5.05867 77.728 4.664C78.3893 4.26933 79.136 4.072 79.968 4.072C80.6613 4.072 81.2747 4.184 81.808 4.408C82.3413 4.62133 82.7893 4.92533 83.152 5.32C83.5253 5.71467 83.808 6.17333 84 6.696C84.192 7.208 84.288 7.768 84.288 8.376C84.288 8.54667 84.2773 8.71733 84.256 8.888C84.2453 9.048 84.2187 9.18667 84.176 9.304H77.632V7.544H82.816L81.68 8.376C81.7867 7.91733 81.7813 7.512 81.664 7.16C81.5467 6.79733 81.3387 6.51467 81.04 6.312C80.752 6.09867 80.3947 5.992 79.968 5.992C79.552 5.992 79.1947 6.09333 78.896 6.296C78.5973 6.49867 78.3733 6.79733 78.224 7.192C78.0747 7.58667 78.016 8.06667 78.048 8.632C78.0053 9.12267 78.064 9.55467 78.224 9.928C78.384 10.3013 78.6293 10.5947 78.96 10.808C79.2907 11.0107 79.6907 11.112 80.16 11.112C80.5867 11.112 80.9493 11.0267 81.248 10.856C81.5573 10.6853 81.7973 10.4507 81.968 10.152L83.888 11.064C83.7173 11.4907 83.4453 11.864 83.072 12.184C82.7093 12.504 82.2773 12.7547 81.776 12.936C81.2747 13.1067 80.7253 13.192 80.128 13.192Z" fill="#1E1729"/>
<path d="M10.1316 13V1.08H12.6116V6.232H17.2516V1.08H19.7316V13H17.2516V8.392H12.6116V13H10.1316ZM26.4424 13.192C25.5144 13.192 24.709 12.9893 24.0264 12.584C23.3437 12.168 22.8157 11.6133 22.4424 10.92C22.069 10.2267 21.8824 9.45867 21.8824 8.616C21.8824 7.74133 22.0744 6.96267 22.4584 6.28C22.853 5.59733 23.381 5.05867 24.0424 4.664C24.7037 4.26933 25.4504 4.072 26.2824 4.072C26.9757 4.072 27.589 4.184 28.1224 4.408C28.6557 4.62133 29.1037 4.92533 29.4664 5.32C29.8397 5.71467 30.1224 6.17333 30.3144 6.696C30.5064 7.208 30.6024 7.768 30.6024 8.376C30.6024 8.54667 30.5917 8.71733 30.5704 8.888C30.5597 9.048 30.533 9.18667 30.4904 9.304H23.9464V7.544H29.1304L27.9944 8.376C28.101 7.91733 28.0957 7.512 27.9784 7.16C27.861 6.79733 27.653 6.51467 27.3544 6.312C27.0664 6.09867 26.709 5.992 26.2824 5.992C25.8664 5.992 25.509 6.09333 25.2104 6.296C24.9117 6.49867 24.6877 6.79733 24.5384 7.192C24.389 7.58667 24.3304 8.06667 24.3624 8.632C24.3197 9.12267 24.3784 9.55467 24.5384 9.928C24.6984 10.3013 24.9437 10.5947 25.2744 10.808C25.605 11.0107 26.005 11.112 26.4744 11.112C26.901 11.112 27.2637 11.0267 27.5624 10.856C27.8717 10.6853 28.1117 10.4507 28.2824 10.152L30.2024 11.064C30.0317 11.4907 29.7597 11.864 29.3864 12.184C29.0237 12.504 28.5917 12.7547 28.0904 12.936C27.589 13.1067 27.0397 13.192 26.4424 13.192ZM32.5756 13V0.888H34.9756V13H32.5756ZM37.2919 13V0.888H39.6919V13H37.2919ZM46.3441 13.192C45.4801 13.192 44.6908 12.9947 43.9761 12.6C43.2721 12.2053 42.7068 11.6667 42.2801 10.984C41.8641 10.2907 41.6561 9.50667 41.6561 8.632C41.6561 7.74667 41.8641 6.96267 42.2801 6.28C42.7068 5.59733 43.2721 5.05867 43.9761 4.664C44.6908 4.26933 45.4801 4.072 46.3441 4.072C47.2081 4.072 47.9921 4.26933 48.6961 4.664C49.4001 5.05867 49.9601 5.59733 50.3761 6.28C50.8028 6.96267 51.0161 7.74667 51.0161 8.632C51.0161 9.50667 50.8028 10.2907 50.3761 10.984C49.9601 11.6667 49.4001 12.2053 48.6961 12.6C47.9921 12.9947 47.2081 13.192 46.3441 13.192ZM46.3441 11.032C46.7815 11.032 47.1601 10.9307 47.4801 10.728C47.8108 10.5253 48.0668 10.2427 48.2481 9.88C48.4401 9.51733 48.5361 9.10133 48.5361 8.632C48.5361 8.16267 48.4401 7.752 48.2481 7.4C48.0668 7.03733 47.8108 6.75467 47.4801 6.552C47.1601 6.33867 46.7815 6.232 46.3441 6.232C45.9068 6.232 45.5228 6.33867 45.1921 6.552C44.8615 6.75467 44.6001 7.03733 44.4081 7.4C44.2268 7.752 44.1361 8.16267 44.1361 8.632C44.1361 9.10133 44.2268 9.51733 44.4081 9.88C44.6001 10.2427 44.8615 10.5253 45.1921 10.728C45.5228 10.9307 45.9068 11.032 46.3441 11.032ZM87.4452 13V10.6H89.8452V13H87.4452Z" fill="#7E57C2"/>
<path d="M57.502 13.192C56.7553 13.192 56.0513 13.0587 55.39 12.792C54.7393 12.5147 54.174 12.1253 53.694 11.624C53.2247 11.1227 52.8727 10.5307 52.638 9.848L54.67 8.936C54.9687 9.58667 55.3793 10.0987 55.902 10.472C56.4353 10.8453 57.022 11.032 57.662 11.032C58.0033 11.032 58.2967 10.9787 58.542 10.872C58.7873 10.7653 58.9793 10.6213 59.118 10.44C59.2567 10.248 59.326 10.024 59.326 9.768C59.326 9.49067 59.2407 9.256 59.07 9.064C58.8993 8.86133 58.6327 8.70133 58.27 8.584L55.934 7.816C54.9847 7.50667 54.27 7.06933 53.79 6.504C53.31 5.928 53.07 5.24 53.07 4.44C53.07 3.736 53.2407 3.11733 53.582 2.584C53.934 2.05067 54.4193 1.63467 55.038 1.336C55.6673 1.03733 56.3873 0.888 57.198 0.888C57.9127 0.888 58.574 1.01067 59.182 1.256C59.79 1.50133 60.3127 1.848 60.75 2.296C61.198 2.744 61.534 3.28267 61.758 3.912L59.742 4.824C59.518 4.26933 59.182 3.83733 58.734 3.528C58.286 3.208 57.774 3.048 57.198 3.048C56.8673 3.048 56.574 3.10133 56.318 3.208C56.062 3.31467 55.8647 3.46933 55.726 3.672C55.5873 3.864 55.518 4.088 55.518 4.344C55.518 4.62133 55.6087 4.86667 55.79 5.08C55.9713 5.28267 56.2433 5.44267 56.606 5.56L58.894 6.296C59.854 6.60533 60.5687 7.03733 61.038 7.592C61.518 8.14667 61.758 8.824 61.758 9.624C61.758 10.3173 61.5767 10.936 61.214 11.48C60.8513 12.0133 60.35 12.4347 59.71 12.744C59.0807 13.0427 58.3447 13.192 57.502 13.192Z" fill="black"/>
</svg>
