<svg width="866" height="997" viewBox="0 0 866 997" fill="none" xmlns="http://www.w3.org/2000/svg">
<path opacity="0.2" d="M1023.37 1L1.00007 498.783" stroke="black" stroke-width="0.683033"/>
<path opacity="0.2" d="M1083.51 30.2814L61.1397 528.064" stroke="black" stroke-width="0.683033"/>
<path opacity="0.2" d="M1143.65 59.5627L121.279 557.345" stroke="black" stroke-width="0.683033"/>
<path opacity="0.2" d="M1203.79 88.844L181.418 586.627" stroke="black" stroke-width="0.683033"/>
<path opacity="0.2" d="M1263.93 118.125L241.558 615.908" stroke="black" stroke-width="0.683033"/>
<path opacity="0.2" d="M1324.07 147.407L301.697 645.189" stroke="black" stroke-width="0.683033"/>
<path opacity="0.2" d="M1384.2 176.688L361.836 674.471" stroke="black" stroke-width="0.683033"/>
<path opacity="0.2" d="M1444.35 205.969L421.976 703.752" stroke="black" stroke-width="0.683033"/>
<path opacity="0.2" d="M1504.48 235.251L482.116 733.033" stroke="black" stroke-width="0.683033"/>
<path opacity="0.2" d="M1564.62 264.532L542.254 762.315" stroke="black" stroke-width="0.683033"/>
<path opacity="0.2" d="M1624.76 293.813L602.394 791.596" stroke="black" stroke-width="0.683033"/>
<path opacity="0.2" d="M1684.9 323.095L662.533 820.878" stroke="black" stroke-width="0.683033"/>
<path opacity="0.2" d="M1745.04 352.376L722.672 850.159" stroke="black" stroke-width="0.683033"/>
<path opacity="0.2" d="M1805.18 381.657L782.812 879.44" stroke="black" stroke-width="0.683033"/>
<path opacity="0.2" d="M1865.32 410.939L842.951 908.721" stroke="black" stroke-width="0.683033"/>
<path opacity="0.2" d="M842.951 88.844L1865.32 586.627" stroke="black" stroke-width="0.683033"/>
<path opacity="0.2" d="M782.812 118.125L1805.18 615.908" stroke="black" stroke-width="0.683033"/>
<path opacity="0.2" d="M722.672 147.407L1745.04 645.189" stroke="black" stroke-width="0.683033"/>
<path opacity="0.2" d="M662.533 176.688L1684.9 674.471" stroke="black" stroke-width="0.683033"/>
<path opacity="0.2" d="M602.394 205.969L1624.76 703.752" stroke="black" stroke-width="0.683033"/>
<path opacity="0.2" d="M542.254 235.251L1564.62 733.033" stroke="black" stroke-width="0.683033"/>
<path opacity="0.2" d="M482.127 264.532L1504.5 762.315" stroke="black" stroke-width="0.683033"/>
<path opacity="0.2" d="M421.987 293.813L1444.36 791.596" stroke="black" stroke-width="0.683033"/>
<path opacity="0.2" d="M361.848 323.095L1384.22 820.878" stroke="black" stroke-width="0.683033"/>
<path opacity="0.2" d="M301.709 352.376L1324.08 850.159" stroke="black" stroke-width="0.683033"/>
<path opacity="0.2" d="M241.569 381.657L1263.94 879.44" stroke="black" stroke-width="0.683033"/>
<path opacity="0.2" d="M181.43 410.939L1203.8 908.721" stroke="black" stroke-width="0.683033"/>
<path opacity="0.2" d="M121.291 440.22L1143.66 938.003" stroke="black" stroke-width="0.683033"/>
</svg>
