<svg width="252" height="95" viewBox="0 0 252 95" fill="none" xmlns="http://www.w3.org/2000/svg">
<rect width="252" height="94.5" rx="3.75" fill="white"/>
<path d="M18.1478 19.5687H15.8588V26H14.4465V19.5687H12.1575V18.4085H18.1478V19.5687ZM20.0587 20.5295C20.4577 20.5295 20.8199 20.5942 21.1454 20.7238C21.4744 20.8532 21.7544 21.037 21.9854 21.275C22.2199 21.513 22.4002 21.8035 22.5262 22.1465C22.6522 22.4895 22.7152 22.8727 22.7152 23.2962C22.7152 23.7232 22.6522 24.1082 22.5262 24.4512C22.4002 24.7942 22.2199 25.0865 21.9854 25.328C21.7544 25.5695 21.4744 25.755 21.1454 25.8845C20.8199 26.014 20.4577 26.0788 20.0587 26.0788C19.6562 26.0788 19.2904 26.014 18.9614 25.8845C18.6324 25.755 18.3507 25.5695 18.1162 25.328C17.8852 25.0865 17.7049 24.7942 17.5754 24.4512C17.4494 24.1082 17.3864 23.7232 17.3864 23.2962C17.3864 22.8727 17.4494 22.4895 17.5754 22.1465C17.7049 21.8035 17.8852 21.513 18.1162 21.275C18.3507 21.037 18.6324 20.8532 18.9614 20.7238C19.2904 20.5942 19.6562 20.5295 20.0587 20.5295ZM20.0587 25.0812C20.5067 25.0812 20.8374 24.9307 21.0509 24.6297C21.2679 24.3287 21.3764 23.8877 21.3764 23.3067C21.3764 22.7257 21.2679 22.283 21.0509 21.9785C20.8374 21.674 20.5067 21.5217 20.0587 21.5217C19.6037 21.5217 19.2659 21.6757 19.0454 21.9837C18.8284 22.2882 18.7199 22.7292 18.7199 23.3067C18.7199 23.8842 18.8284 24.3252 19.0454 24.6297C19.2659 24.9307 19.6037 25.0812 20.0587 25.0812ZM27.0855 21.989C26.9385 21.8105 26.7775 21.6845 26.6025 21.611C26.431 21.5375 26.2455 21.5007 26.046 21.5007C25.85 21.5007 25.6732 21.5375 25.5157 21.611C25.3582 21.6845 25.2235 21.7965 25.1115 21.947C24.9995 22.094 24.9137 22.283 24.8542 22.514C24.7947 22.7415 24.765 23.011 24.765 23.3225C24.765 23.6375 24.7895 23.9052 24.8385 24.1257C24.891 24.3427 24.9645 24.5212 25.059 24.6612C25.1535 24.7977 25.269 24.8975 25.4055 24.9605C25.542 25.02 25.6942 25.0497 25.8622 25.0497C26.1317 25.0497 26.361 24.9937 26.55 24.8817C26.739 24.7697 26.9175 24.6105 27.0855 24.404V21.989ZM28.3822 18.1985V26H27.5895C27.418 26 27.3095 25.9212 27.264 25.7637L27.1537 25.244C26.9367 25.4925 26.6865 25.6937 26.403 25.8477C26.123 26.0018 25.7957 26.0788 25.4212 26.0788C25.1272 26.0788 24.8577 26.0175 24.6127 25.895C24.3677 25.7725 24.156 25.5957 23.9775 25.3647C23.8025 25.1302 23.666 24.8415 23.568 24.4985C23.4735 24.1555 23.4262 23.7635 23.4262 23.3225C23.4262 22.9235 23.4805 22.5525 23.589 22.2095C23.6975 21.8665 23.8532 21.569 24.0562 21.317C24.2592 21.065 24.5025 20.869 24.786 20.729C25.0695 20.5855 25.388 20.5137 25.7415 20.5137C26.0425 20.5137 26.2997 20.561 26.5132 20.6555C26.7267 20.75 26.9175 20.8777 27.0855 21.0387V18.1985H28.3822ZM32.5075 23.7005C32.133 23.718 31.818 23.7512 31.5625 23.8002C31.307 23.8457 31.1022 23.9052 30.9482 23.9787C30.7942 24.0522 30.684 24.138 30.6175 24.236C30.551 24.334 30.5177 24.4407 30.5177 24.5562C30.5177 24.7837 30.5842 24.9465 30.7172 25.0445C30.8537 25.1425 31.0305 25.1915 31.2475 25.1915C31.5135 25.1915 31.7427 25.1442 31.9352 25.0497C32.1312 24.9517 32.322 24.8047 32.5075 24.6087V23.7005ZM29.536 21.3642C30.1555 20.7972 30.901 20.5137 31.7725 20.5137C32.0875 20.5137 32.3692 20.5662 32.6177 20.6712C32.8662 20.7727 33.0762 20.9162 33.2477 21.1017C33.4192 21.2837 33.5487 21.5025 33.6362 21.758C33.7272 22.0135 33.7727 22.2935 33.7727 22.598V26H33.1847C33.0622 26 32.9677 25.9825 32.9012 25.9475C32.8347 25.909 32.7822 25.8337 32.7437 25.7217L32.6282 25.3332C32.4917 25.4557 32.3587 25.5642 32.2292 25.6587C32.0997 25.7497 31.965 25.8267 31.825 25.8897C31.685 25.9527 31.5345 26 31.3735 26.0315C31.216 26.0665 31.041 26.084 30.8485 26.084C30.621 26.084 30.411 26.0543 30.2185 25.9947C30.026 25.9317 29.8597 25.839 29.7197 25.7165C29.5797 25.594 29.4712 25.4417 29.3942 25.2597C29.3172 25.0777 29.2787 24.866 29.2787 24.6245C29.2787 24.488 29.3015 24.3532 29.347 24.2202C29.3925 24.0837 29.466 23.9542 29.5675 23.8317C29.6725 23.7092 29.8072 23.5937 29.9717 23.4852C30.1362 23.3767 30.3375 23.2822 30.5755 23.2017C30.817 23.1212 31.097 23.0565 31.4155 23.0075C31.734 22.955 32.098 22.9235 32.5075 22.913V22.598C32.5075 22.2375 32.4305 21.9715 32.2765 21.8C32.1225 21.625 31.9002 21.5375 31.6097 21.5375C31.3997 21.5375 31.2247 21.562 31.0847 21.611C30.9482 21.66 30.8275 21.716 30.7225 21.779C30.6175 21.8385 30.5212 21.8927 30.4337 21.9417C30.3497 21.9907 30.2552 22.0152 30.1502 22.0152C30.0592 22.0152 29.9822 21.9925 29.9192 21.947C29.8562 21.898 29.8055 21.842 29.767 21.779L29.536 21.3642ZM39.7332 20.6135L36.7985 27.4805C36.76 27.5715 36.7092 27.6398 36.6462 27.6853C36.5867 27.7343 36.494 27.7588 36.368 27.7588H35.402L36.41 25.5957L34.2312 20.6135H35.3705C35.472 20.6135 35.5507 20.638 35.6067 20.687C35.6662 20.736 35.71 20.792 35.738 20.855L36.8825 23.648C36.921 23.7425 36.9525 23.837 36.977 23.9315C37.005 24.026 37.0312 24.1222 37.0557 24.2202C37.0872 24.1222 37.1187 24.026 37.1502 23.9315C37.1817 23.8335 37.2167 23.7372 37.2552 23.6427L38.3367 20.855C38.3647 20.785 38.4102 20.7272 38.4732 20.6817C38.5397 20.6362 38.6132 20.6135 38.6937 20.6135H39.7332ZM43.551 21.6635C43.516 21.7195 43.4793 21.7597 43.4408 21.7842C43.4023 21.8052 43.3533 21.8157 43.2938 21.8157C43.2308 21.8157 43.1625 21.7982 43.089 21.7632C43.019 21.7282 42.9368 21.6897 42.8423 21.6477C42.7478 21.6022 42.6393 21.562 42.5168 21.527C42.3978 21.492 42.256 21.4745 42.0915 21.4745C41.836 21.4745 41.6348 21.5287 41.4878 21.6372C41.3443 21.7457 41.2725 21.8875 41.2725 22.0625C41.2725 22.178 41.3093 22.276 41.3828 22.3565C41.4598 22.4335 41.5595 22.5017 41.682 22.5612C41.808 22.6207 41.9498 22.675 42.1073 22.724C42.2648 22.7695 42.424 22.8202 42.585 22.8762C42.7495 22.9322 42.9105 22.997 43.068 23.0705C43.2255 23.1405 43.3655 23.2315 43.488 23.3435C43.614 23.452 43.7138 23.5832 43.7873 23.7372C43.8643 23.8912 43.9028 24.0767 43.9028 24.2937C43.9028 24.5527 43.8555 24.7925 43.761 25.013C43.67 25.23 43.5335 25.419 43.3515 25.58C43.1695 25.7375 42.9438 25.8617 42.6743 25.9527C42.4083 26.0403 42.1003 26.084 41.7503 26.084C41.5648 26.084 41.3828 26.0665 41.2043 26.0315C41.0293 26 40.8595 25.9545 40.695 25.895C40.534 25.8355 40.3835 25.7655 40.2435 25.685C40.107 25.6045 39.9863 25.517 39.8813 25.4225L40.1805 24.929C40.219 24.8695 40.2645 24.824 40.317 24.7925C40.3695 24.761 40.436 24.7452 40.5165 24.7452C40.597 24.7452 40.6723 24.768 40.7423 24.8135C40.8158 24.859 40.8998 24.908 40.9943 24.9605C41.0888 25.013 41.199 25.062 41.325 25.1075C41.4545 25.153 41.6173 25.1757 41.8133 25.1757C41.9673 25.1757 42.0985 25.1582 42.207 25.1232C42.319 25.0847 42.41 25.0357 42.48 24.9762C42.5535 24.9167 42.606 24.8485 42.6375 24.7715C42.6725 24.691 42.69 24.6087 42.69 24.5247C42.69 24.3987 42.6515 24.2955 42.5745 24.215C42.501 24.1345 42.4013 24.0645 42.2753 24.005C42.1528 23.9455 42.011 23.893 41.85 23.8475C41.6925 23.7985 41.5298 23.746 41.3618 23.69C41.1973 23.634 41.0345 23.5692 40.8735 23.4957C40.716 23.4187 40.5743 23.3225 40.4483 23.207C40.3258 23.0915 40.226 22.9497 40.149 22.7817C40.0755 22.6137 40.0388 22.4107 40.0388 22.1727C40.0388 21.9522 40.0825 21.7422 40.17 21.5427C40.2575 21.3432 40.3853 21.17 40.5533 21.023C40.7248 20.8725 40.9365 20.7535 41.1885 20.666C41.444 20.575 41.738 20.5295 42.0705 20.5295C42.4415 20.5295 42.7793 20.5907 43.0838 20.7132C43.3883 20.8357 43.642 20.9967 43.845 21.1962L43.551 21.6635ZM49.931 22.0205C50.197 22.0205 50.428 21.9872 50.624 21.9207C50.8235 21.8542 50.9863 21.7632 51.1123 21.6477C51.2418 21.5287 51.338 21.3887 51.401 21.2277C51.464 21.0667 51.4955 20.89 51.4955 20.6975C51.4955 20.3125 51.3678 20.0167 51.1123 19.8102C50.8603 19.6037 50.4735 19.5005 49.952 19.5005H49.049V22.0205H49.931ZM53.564 26H52.2883C52.0468 26 51.8718 25.9055 51.7633 25.7165L50.1673 23.2857C50.1078 23.1947 50.0413 23.13 49.9678 23.0915C49.8978 23.053 49.7928 23.0338 49.6528 23.0338H49.049V26H47.6368V18.4085H49.952C50.4665 18.4085 50.9075 18.4627 51.275 18.5712C51.646 18.6762 51.9488 18.825 52.1833 19.0175C52.4213 19.21 52.5963 19.441 52.7083 19.7105C52.8203 19.9765 52.8763 20.2705 52.8763 20.5925C52.8763 20.848 52.8378 21.0895 52.7608 21.317C52.6873 21.5445 52.5788 21.751 52.4353 21.9365C52.2953 22.122 52.1203 22.2847 51.9103 22.4247C51.7038 22.5647 51.4675 22.675 51.2015 22.7555C51.2925 22.808 51.3765 22.871 51.4535 22.9445C51.5305 23.0145 51.6005 23.0985 51.6635 23.1965L53.564 26ZM57.3007 22.6872C57.3007 22.5192 57.2762 22.3617 57.2272 22.2147C57.1817 22.0642 57.1117 21.933 57.0172 21.821C56.9227 21.709 56.8019 21.6215 56.6549 21.5585C56.5114 21.492 56.3434 21.4587 56.1509 21.4587C55.7764 21.4587 55.4807 21.5655 55.2637 21.779C55.0502 21.9925 54.9137 22.2952 54.8542 22.6872H57.3007ZM54.8279 23.4695C54.8489 23.746 54.8979 23.9857 54.9749 24.1887C55.0519 24.3882 55.1534 24.5545 55.2794 24.6875C55.4054 24.817 55.5542 24.915 55.7257 24.9815C55.9007 25.0445 56.0932 25.076 56.3032 25.076C56.5132 25.076 56.6934 25.0515 56.8439 25.0025C56.9979 24.9535 57.1309 24.8992 57.2429 24.8397C57.3584 24.7802 57.4582 24.726 57.5422 24.677C57.6297 24.628 57.7137 24.6035 57.7942 24.6035C57.9027 24.6035 57.9832 24.6437 58.0357 24.7242L58.4084 25.1967C58.2649 25.3647 58.1039 25.5065 57.9254 25.622C57.7469 25.734 57.5597 25.825 57.3637 25.895C57.1712 25.9615 56.9734 26.0088 56.7704 26.0368C56.5709 26.0648 56.3767 26.0788 56.1877 26.0788C55.8132 26.0788 55.4649 26.0175 55.1429 25.895C54.8209 25.769 54.5409 25.5852 54.3029 25.3438C54.0649 25.0987 53.8777 24.7977 53.7412 24.4407C53.6047 24.0802 53.5364 23.6637 53.5364 23.1912C53.5364 22.8237 53.5959 22.479 53.7149 22.157C53.8339 21.8315 54.0037 21.5497 54.2242 21.3117C54.4482 21.0702 54.7194 20.8795 55.0379 20.7395C55.3599 20.5995 55.7222 20.5295 56.1247 20.5295C56.4642 20.5295 56.7774 20.5837 57.0644 20.6922C57.3514 20.8007 57.5982 20.96 57.8047 21.17C58.0112 21.3765 58.1722 21.632 58.2877 21.9365C58.4067 22.2375 58.4662 22.5822 58.4662 22.9707C58.4662 23.1667 58.4452 23.2997 58.4032 23.3697C58.3612 23.4362 58.2807 23.4695 58.1617 23.4695H54.8279ZM64.1623 20.6135L62.0255 26H60.8495L58.7128 20.6135H59.7838C59.8818 20.6135 59.9623 20.6362 60.0253 20.6817C60.0918 20.7272 60.1355 20.785 60.1565 20.855L61.196 23.732C61.252 23.9 61.301 24.0645 61.343 24.2255C61.385 24.3865 61.4218 24.5475 61.4533 24.7085C61.4883 24.5475 61.5268 24.3865 61.5688 24.2255C61.6108 24.0645 61.6615 23.9 61.721 23.732L62.7815 20.855C62.806 20.785 62.8498 20.7272 62.9128 20.6817C62.9758 20.6362 63.051 20.6135 63.1385 20.6135H64.1623ZM68.1596 22.6872C68.1596 22.5192 68.1351 22.3617 68.0861 22.2147C68.0406 22.0642 67.9706 21.933 67.8761 21.821C67.7816 21.709 67.6608 21.6215 67.5138 21.5585C67.3703 21.492 67.2023 21.4587 67.0098 21.4587C66.6353 21.4587 66.3396 21.5655 66.1226 21.779C65.9091 21.9925 65.7726 22.2952 65.7131 22.6872H68.1596ZM65.6868 23.4695C65.7078 23.746 65.7568 23.9857 65.8338 24.1887C65.9108 24.3882 66.0123 24.5545 66.1383 24.6875C66.2643 24.817 66.4131 24.915 66.5846 24.9815C66.7596 25.0445 66.9521 25.076 67.1621 25.076C67.3721 25.076 67.5523 25.0515 67.7028 25.0025C67.8568 24.9535 67.9898 24.8992 68.1018 24.8397C68.2173 24.7802 68.3171 24.726 68.4011 24.677C68.4886 24.628 68.5726 24.6035 68.6531 24.6035C68.7616 24.6035 68.8421 24.6437 68.8946 24.7242L69.2673 25.1967C69.1238 25.3647 68.9628 25.5065 68.7843 25.622C68.6058 25.734 68.4186 25.825 68.2226 25.895C68.0301 25.9615 67.8323 26.0088 67.6293 26.0368C67.4298 26.0648 67.2356 26.0788 67.0466 26.0788C66.6721 26.0788 66.3238 26.0175 66.0018 25.895C65.6798 25.769 65.3998 25.5852 65.1618 25.3438C64.9238 25.0987 64.7366 24.7977 64.6001 24.4407C64.4636 24.0802 64.3953 23.6637 64.3953 23.1912C64.3953 22.8237 64.4548 22.479 64.5738 22.157C64.6928 21.8315 64.8626 21.5497 65.0831 21.3117C65.3071 21.0702 65.5783 20.8795 65.8968 20.7395C66.2188 20.5995 66.5811 20.5295 66.9836 20.5295C67.3231 20.5295 67.6363 20.5837 67.9233 20.6922C68.2103 20.8007 68.4571 20.96 68.6636 21.17C68.8701 21.3765 69.0311 21.632 69.1466 21.9365C69.2656 22.2375 69.3251 22.5822 69.3251 22.9707C69.3251 23.1667 69.3041 23.2997 69.2621 23.3697C69.2201 23.4362 69.1396 23.4695 69.0206 23.4695H65.6868ZM71.511 21.275C71.6195 21.1665 71.7332 21.0667 71.8522 20.9757C71.9747 20.8812 72.1025 20.8025 72.2355 20.7395C72.372 20.673 72.5172 20.6222 72.6712 20.5872C72.8252 20.5487 72.9932 20.5295 73.1752 20.5295C73.4692 20.5295 73.73 20.5802 73.9575 20.6817C74.185 20.7797 74.374 20.9197 74.5245 21.1017C74.6785 21.2802 74.794 21.4955 74.871 21.7475C74.9515 21.996 74.9917 22.2707 74.9917 22.5717V26H73.695V22.5717C73.695 22.2427 73.6197 21.989 73.4692 21.8105C73.3187 21.6285 73.0895 21.5375 72.7815 21.5375C72.5575 21.5375 72.3475 21.5882 72.1515 21.6897C71.9555 21.7912 71.77 21.9295 71.595 22.1045V26H70.2982V20.6135H71.091C71.259 20.6135 71.3692 20.6922 71.4217 20.8497L71.511 21.275ZM80.866 20.6135V26H80.0732C79.9017 26 79.7932 25.9212 79.7477 25.7637L79.6585 25.3332C79.438 25.5572 79.1947 25.7392 78.9287 25.8792C78.6627 26.0157 78.3495 26.084 77.989 26.084C77.695 26.084 77.4342 26.035 77.2067 25.937C76.9827 25.8355 76.7937 25.6937 76.6397 25.5117C76.4857 25.3297 76.3685 25.1145 76.288 24.866C76.211 24.614 76.1725 24.3375 76.1725 24.0365V20.6135H77.4692V24.0365C77.4692 24.3655 77.5445 24.621 77.695 24.803C77.849 24.9815 78.0782 25.0707 78.3827 25.0707C78.6067 25.0707 78.8167 25.0217 79.0127 24.9237C79.2087 24.8222 79.3942 24.684 79.5692 24.509V20.6135H80.866ZM85.622 22.6872C85.622 22.5192 85.5975 22.3617 85.5485 22.2147C85.503 22.0642 85.433 21.933 85.3385 21.821C85.244 21.709 85.1232 21.6215 84.9762 21.5585C84.8327 21.492 84.6647 21.4587 84.4722 21.4587C84.0977 21.4587 83.802 21.5655 83.585 21.779C83.3715 21.9925 83.235 22.2952 83.1755 22.6872H85.622ZM83.1492 23.4695C83.1702 23.746 83.2192 23.9857 83.2962 24.1887C83.3732 24.3882 83.4747 24.5545 83.6007 24.6875C83.7267 24.817 83.8755 24.915 84.047 24.9815C84.222 25.0445 84.4145 25.076 84.6245 25.076C84.8345 25.076 85.0147 25.0515 85.1652 25.0025C85.3192 24.9535 85.4522 24.8992 85.5642 24.8397C85.6797 24.7802 85.7795 24.726 85.8635 24.677C85.951 24.628 86.035 24.6035 86.1155 24.6035C86.224 24.6035 86.3045 24.6437 86.357 24.7242L86.7297 25.1967C86.5862 25.3647 86.4252 25.5065 86.2467 25.622C86.0682 25.734 85.881 25.825 85.685 25.895C85.4925 25.9615 85.2947 26.0088 85.0917 26.0368C84.8922 26.0648 84.698 26.0788 84.509 26.0788C84.1345 26.0788 83.7862 26.0175 83.4642 25.895C83.1422 25.769 82.8622 25.5852 82.6242 25.3438C82.3862 25.0987 82.199 24.7977 82.0625 24.4407C81.926 24.0802 81.8577 23.6637 81.8577 23.1912C81.8577 22.8237 81.9172 22.479 82.0362 22.157C82.1552 21.8315 82.325 21.5497 82.5455 21.3117C82.7695 21.0702 83.0407 20.8795 83.3592 20.7395C83.6812 20.5995 84.0435 20.5295 84.446 20.5295C84.7855 20.5295 85.0987 20.5837 85.3857 20.6922C85.6727 20.8007 85.9195 20.96 86.126 21.17C86.3325 21.3765 86.4935 21.632 86.609 21.9365C86.728 22.2375 86.7875 22.5822 86.7875 22.9707C86.7875 23.1667 86.7665 23.2997 86.7245 23.3697C86.6825 23.4362 86.602 23.4695 86.483 23.4695H83.1492Z" fill="#525252"/>
<path d="M16.935 72.6912L15.8168 69.767C15.7363 69.5675 15.6558 69.3155 15.5753 69.011C15.5368 69.1615 15.4965 69.3015 15.4545 69.431C15.416 69.5605 15.3775 69.676 15.339 69.7775L14.226 72.6912H16.935ZM19.1453 75.5H18.2843C18.1863 75.5 18.1058 75.4755 18.0428 75.4265C17.9798 75.3775 17.9343 75.3145 17.9062 75.2375L17.2395 73.4892H13.9163L13.2495 75.2375C13.225 75.304 13.1795 75.3652 13.113 75.4212C13.0465 75.4737 12.966 75.5 12.8715 75.5H12.0105L15.0135 67.961H16.1423L19.1453 75.5ZM24.0866 70.166L21.9236 75.5H20.9996L18.8366 70.166H19.6818C19.7623 70.166 19.8288 70.1852 19.8813 70.2238C19.9338 70.2622 19.9688 70.3112 19.9863 70.3707L21.2621 73.6467C21.3076 73.7832 21.3461 73.9197 21.3776 74.0562C21.4126 74.1892 21.4441 74.3222 21.4721 74.4552C21.5001 74.3222 21.5316 74.1892 21.5666 74.0562C21.6016 73.9232 21.6436 73.7867 21.6926 73.6467L22.9841 70.3707C23.0051 70.3112 23.0418 70.2622 23.0943 70.2238C23.1468 70.1852 23.2098 70.166 23.2833 70.166H24.0866ZM27.6443 73.1322C27.2278 73.1462 26.8743 73.1795 26.5838 73.232C26.2933 73.281 26.0571 73.3475 25.8751 73.4315C25.6931 73.5155 25.5618 73.6152 25.4813 73.7307C25.4008 73.8427 25.3606 73.9687 25.3606 74.1087C25.3606 74.2417 25.3816 74.3572 25.4236 74.4552C25.4691 74.5497 25.5286 74.6285 25.6021 74.6915C25.6791 74.751 25.7683 74.7947 25.8698 74.8227C25.9713 74.8507 26.0816 74.8647 26.2006 74.8647C26.3581 74.8647 26.5016 74.849 26.6311 74.8175C26.7641 74.786 26.8883 74.7422 27.0038 74.6862C27.1193 74.6267 27.2296 74.555 27.3346 74.471C27.4396 74.387 27.5428 74.2907 27.6443 74.1822V73.1322ZM24.6413 70.9115C24.9388 70.628 25.2608 70.4162 25.6073 70.2762C25.9573 70.1362 26.3406 70.0662 26.7571 70.0662C27.0616 70.0662 27.3311 70.117 27.5656 70.2185C27.8001 70.3165 27.9978 70.4547 28.1588 70.6332C28.3198 70.8117 28.4406 71.0252 28.5211 71.2737C28.6051 71.5222 28.6471 71.797 28.6471 72.098V75.5H28.1903C28.0888 75.5 28.0118 75.4842 27.9593 75.4527C27.9068 75.4177 27.8648 75.3547 27.8333 75.2637L27.7231 74.7965C27.5866 74.9225 27.4518 75.0345 27.3188 75.1325C27.1858 75.227 27.0458 75.3092 26.8988 75.3792C26.7553 75.4457 26.6013 75.4965 26.4368 75.5315C26.2723 75.5665 26.0903 75.584 25.8908 75.584C25.6808 75.584 25.4831 75.556 25.2976 75.5C25.1156 75.4405 24.9563 75.3512 24.8198 75.2322C24.6833 75.1132 24.5748 74.9645 24.4943 74.786C24.4173 74.6075 24.3788 74.3992 24.3788 74.1612C24.3788 73.9512 24.4348 73.75 24.5468 73.5575C24.6623 73.3615 24.8478 73.1865 25.1033 73.0325C25.3623 72.8785 25.6983 72.7525 26.1113 72.6545C26.5278 72.5565 27.0388 72.5005 27.6443 72.4865V72.098C27.6443 71.6955 27.5586 71.3945 27.3871 71.195C27.2156 70.9955 26.9636 70.8957 26.6311 70.8957C26.4071 70.8957 26.2181 70.9237 26.0641 70.9797C25.9136 71.0357 25.7823 71.0987 25.6703 71.1687C25.5618 71.2352 25.4656 71.2965 25.3816 71.3525C25.3011 71.4085 25.2171 71.4365 25.1296 71.4365C25.0596 71.4365 24.9983 71.4172 24.9458 71.3787C24.8968 71.3402 24.8566 71.2947 24.8251 71.2422L24.6413 70.9115ZM31.0886 70.166V75.5H30.0648V70.166H31.0886ZM31.2828 68.5175C31.2828 68.612 31.2636 68.703 31.2251 68.7905C31.1866 68.8745 31.1341 68.9497 31.0676 69.0162C31.0046 69.0792 30.9293 69.13 30.8418 69.1685C30.7543 69.2035 30.6633 69.221 30.5688 69.221C30.4743 69.221 30.3851 69.2035 30.3011 69.1685C30.2171 69.13 30.1418 69.0792 30.0753 69.0162C30.0123 68.9497 29.9616 68.8745 29.9231 68.7905C29.8881 68.703 29.8706 68.612 29.8706 68.5175C29.8706 68.4195 29.8881 68.3285 29.9231 68.2445C29.9616 68.157 30.0123 68.0817 30.0753 68.0187C30.1418 67.9522 30.2171 67.9015 30.3011 67.8665C30.3851 67.828 30.4743 67.8087 30.5688 67.8087C30.6633 67.8087 30.7543 67.828 30.8418 67.8665C30.9293 67.9015 31.0046 67.9522 31.0676 68.0187C31.1341 68.0817 31.1866 68.157 31.2251 68.2445C31.2636 68.3285 31.2828 68.4195 31.2828 68.5175ZM33.6208 67.751V75.5H32.5918V67.751H33.6208ZM37.9495 73.1322C37.533 73.1462 37.1795 73.1795 36.889 73.232C36.5985 73.281 36.3623 73.3475 36.1803 73.4315C35.9983 73.5155 35.867 73.6152 35.7865 73.7307C35.706 73.8427 35.6658 73.9687 35.6658 74.1087C35.6658 74.2417 35.6868 74.3572 35.7288 74.4552C35.7743 74.5497 35.8338 74.6285 35.9073 74.6915C35.9843 74.751 36.0735 74.7947 36.175 74.8227C36.2765 74.8507 36.3868 74.8647 36.5058 74.8647C36.6633 74.8647 36.8068 74.849 36.9363 74.8175C37.0693 74.786 37.1935 74.7422 37.309 74.6862C37.4245 74.6267 37.5348 74.555 37.6398 74.471C37.7448 74.387 37.848 74.2907 37.9495 74.1822V73.1322ZM34.9465 70.9115C35.244 70.628 35.566 70.4162 35.9125 70.2762C36.2625 70.1362 36.6458 70.0662 37.0623 70.0662C37.3668 70.0662 37.6363 70.117 37.8708 70.2185C38.1053 70.3165 38.303 70.4547 38.464 70.6332C38.625 70.8117 38.7458 71.0252 38.8263 71.2737C38.9103 71.5222 38.9523 71.797 38.9523 72.098V75.5H38.4955C38.394 75.5 38.317 75.4842 38.2645 75.4527C38.212 75.4177 38.17 75.3547 38.1385 75.2637L38.0283 74.7965C37.8918 74.9225 37.757 75.0345 37.624 75.1325C37.491 75.227 37.351 75.3092 37.204 75.3792C37.0605 75.4457 36.9065 75.4965 36.742 75.5315C36.5775 75.5665 36.3955 75.584 36.196 75.584C35.986 75.584 35.7883 75.556 35.6028 75.5C35.4208 75.4405 35.2615 75.3512 35.125 75.2322C34.9885 75.1132 34.88 74.9645 34.7995 74.786C34.7225 74.6075 34.684 74.3992 34.684 74.1612C34.684 73.9512 34.74 73.75 34.852 73.5575C34.9675 73.3615 35.153 73.1865 35.4085 73.0325C35.6675 72.8785 36.0035 72.7525 36.4165 72.6545C36.833 72.5565 37.344 72.5005 37.9495 72.4865V72.098C37.9495 71.6955 37.8638 71.3945 37.6923 71.195C37.5208 70.9955 37.2688 70.8957 36.9363 70.8957C36.7123 70.8957 36.5233 70.9237 36.3693 70.9797C36.2188 71.0357 36.0875 71.0987 35.9755 71.1687C35.867 71.2352 35.7708 71.2965 35.6868 71.3525C35.6063 71.4085 35.5223 71.4365 35.4348 71.4365C35.3648 71.4365 35.3035 71.4172 35.251 71.3787C35.202 71.3402 35.1618 71.2947 35.1303 71.2422L34.9465 70.9115ZM41.3465 74.1875C41.5145 74.408 41.6965 74.562 41.8925 74.6495C42.0885 74.737 42.302 74.7807 42.533 74.7807C43.009 74.7807 43.3748 74.611 43.6303 74.2715C43.8893 73.932 44.0188 73.4192 44.0188 72.7332C44.0188 72.0997 43.905 71.636 43.6775 71.342C43.45 71.0445 43.128 70.8957 42.7115 70.8957C42.4175 70.8957 42.162 70.9622 41.945 71.0952C41.7315 71.2282 41.532 71.4172 41.3465 71.6622V74.1875ZM41.3465 70.901C41.567 70.656 41.8173 70.4582 42.0973 70.3077C42.3773 70.1572 42.6958 70.082 43.0528 70.082C43.3643 70.082 43.6443 70.1432 43.8928 70.2657C44.1448 70.3847 44.3583 70.558 44.5333 70.7855C44.7083 71.0095 44.843 71.2825 44.9375 71.6045C45.032 71.9265 45.0793 72.2905 45.0793 72.6965C45.0793 73.127 45.025 73.519 44.9165 73.8725C44.8115 74.226 44.6593 74.5287 44.4598 74.7807C44.2638 75.0327 44.024 75.2287 43.7405 75.3687C43.457 75.5053 43.1385 75.5735 42.785 75.5735C42.6135 75.5735 42.456 75.556 42.3125 75.521C42.169 75.4895 42.036 75.4422 41.9135 75.3792C41.7945 75.3162 41.6843 75.2392 41.5828 75.1482C41.4813 75.0572 41.385 74.954 41.294 74.8385L41.2468 75.2847C41.2188 75.4282 41.1313 75.5 40.9843 75.5H40.3228V67.751H41.3465V70.901ZM49.0853 73.1322C48.6688 73.1462 48.3153 73.1795 48.0248 73.232C47.7343 73.281 47.498 73.3475 47.316 73.4315C47.134 73.5155 47.0028 73.6152 46.9223 73.7307C46.8418 73.8427 46.8015 73.9687 46.8015 74.1087C46.8015 74.2417 46.8225 74.3572 46.8645 74.4552C46.91 74.5497 46.9695 74.6285 47.043 74.6915C47.12 74.751 47.2093 74.7947 47.3108 74.8227C47.4123 74.8507 47.5225 74.8647 47.6415 74.8647C47.799 74.8647 47.9425 74.849 48.072 74.8175C48.205 74.786 48.3293 74.7422 48.4448 74.6862C48.5603 74.6267 48.6705 74.555 48.7755 74.471C48.8805 74.387 48.9838 74.2907 49.0853 74.1822V73.1322ZM46.0823 70.9115C46.3798 70.628 46.7018 70.4162 47.0483 70.2762C47.3983 70.1362 47.7815 70.0662 48.198 70.0662C48.5025 70.0662 48.772 70.117 49.0065 70.2185C49.241 70.3165 49.4388 70.4547 49.5998 70.6332C49.7608 70.8117 49.8815 71.0252 49.962 71.2737C50.046 71.5222 50.088 71.797 50.088 72.098V75.5H49.6313C49.5298 75.5 49.4528 75.4842 49.4003 75.4527C49.3478 75.4177 49.3058 75.3547 49.2743 75.2637L49.164 74.7965C49.0275 74.9225 48.8928 75.0345 48.7598 75.1325C48.6268 75.227 48.4868 75.3092 48.3398 75.3792C48.1963 75.4457 48.0423 75.4965 47.8778 75.5315C47.7133 75.5665 47.5313 75.584 47.3318 75.584C47.1218 75.584 46.924 75.556 46.7385 75.5C46.5565 75.4405 46.3973 75.3512 46.2608 75.2322C46.1243 75.1132 46.0158 74.9645 45.9353 74.786C45.8583 74.6075 45.8198 74.3992 45.8198 74.1612C45.8198 73.9512 45.8758 73.75 45.9878 73.5575C46.1033 73.3615 46.2888 73.1865 46.5443 73.0325C46.8033 72.8785 47.1393 72.7525 47.5523 72.6545C47.9688 72.5565 48.4798 72.5005 49.0853 72.4865V72.098C49.0853 71.6955 48.9995 71.3945 48.828 71.195C48.6565 70.9955 48.4045 70.8957 48.072 70.8957C47.848 70.8957 47.659 70.9237 47.505 70.9797C47.3545 71.0357 47.2233 71.0987 47.1113 71.1687C47.0028 71.2352 46.9065 71.2965 46.8225 71.3525C46.742 71.4085 46.658 71.4365 46.5705 71.4365C46.5005 71.4365 46.4393 71.4172 46.3868 71.3787C46.3378 71.3402 46.2975 71.2947 46.266 71.2422L46.0823 70.9115ZM52.5085 67.751V75.5H51.4795V67.751H52.5085ZM57.504 72.2397C57.504 72.0367 57.4742 71.8495 57.4147 71.678C57.3587 71.5065 57.2747 71.3577 57.1627 71.2317C57.0507 71.1057 56.9142 71.0077 56.7532 70.9377C56.5922 70.8677 56.4067 70.8327 56.1967 70.8327C55.7662 70.8327 55.4267 70.957 55.1782 71.2055C54.9332 71.454 54.7775 71.7987 54.711 72.2397H57.504ZM58.3492 74.7387C58.2232 74.8857 58.078 75.0135 57.9135 75.122C57.749 75.227 57.574 75.3127 57.3885 75.3792C57.203 75.4457 57.0105 75.4947 56.811 75.5263C56.615 75.5578 56.4207 75.5735 56.2282 75.5735C55.8607 75.5735 55.5195 75.5122 55.2045 75.3897C54.893 75.2637 54.6217 75.0817 54.3907 74.8438C54.1632 74.6022 53.9847 74.3047 53.8552 73.9512C53.7292 73.5942 53.6662 73.1847 53.6662 72.7227C53.6662 72.3517 53.724 72.007 53.8395 71.6885C53.955 71.3665 54.1195 71.0865 54.333 70.8485C54.55 70.6105 54.8142 70.4232 55.1257 70.2867C55.4372 70.1502 55.7872 70.082 56.1757 70.082C56.5012 70.082 56.8005 70.1362 57.0735 70.2447C57.35 70.3497 57.588 70.5037 57.7875 70.7067C57.987 70.9097 58.1427 71.16 58.2547 71.4575C58.3702 71.755 58.428 72.0945 58.428 72.476C58.428 72.6335 58.4105 72.7402 58.3755 72.7962C58.3405 72.8487 58.2757 72.875 58.1812 72.875H54.6847C54.6952 73.1935 54.7407 73.4717 54.8212 73.7097C54.9017 73.9442 55.012 74.1402 55.152 74.2977C55.2955 74.4552 55.4652 74.5725 55.6612 74.6495C55.8572 74.7265 56.076 74.765 56.3175 74.765C56.545 74.765 56.741 74.7387 56.9055 74.6862C57.0735 74.6337 57.217 74.5777 57.336 74.5182C57.4585 74.4552 57.56 74.3975 57.6405 74.345C57.7245 74.2925 57.798 74.2662 57.861 74.2662C57.945 74.2662 58.0097 74.2977 58.0552 74.3607L58.3492 74.7387ZM63.8536 75.584C63.4231 75.584 63.0906 75.4632 62.8561 75.2217C62.6251 74.9802 62.5096 74.6355 62.5096 74.1875V70.9955H61.8901C61.8306 70.9955 61.7798 70.978 61.7378 70.943C61.6993 70.9045 61.6801 70.8485 61.6801 70.775V70.3602L62.5463 70.2395L62.7773 68.6487C62.7913 68.5892 62.8176 68.5437 62.8561 68.5122C62.8981 68.4772 62.9506 68.4597 63.0136 68.4597H63.5333V70.25H65.0453V70.9955H63.5333V74.1192C63.5333 74.3292 63.5841 74.4867 63.6856 74.5917C63.7906 74.6932 63.9236 74.744 64.0846 74.744C64.1791 74.744 64.2596 74.7317 64.3261 74.7072C64.3961 74.6827 64.4556 74.6565 64.5046 74.6285C64.5536 74.597 64.5956 74.569 64.6306 74.5445C64.6656 74.52 64.6971 74.5077 64.7251 74.5077C64.7601 74.5077 64.7863 74.5165 64.8038 74.534C64.8248 74.548 64.8458 74.5725 64.8668 74.6075L65.1713 75.101C65.0033 75.255 64.8038 75.374 64.5728 75.458C64.3418 75.542 64.1021 75.584 63.8536 75.584ZM68.2308 70.082C68.6228 70.082 68.9763 70.1467 69.2913 70.2762C69.6098 70.4022 69.8793 70.586 70.0998 70.8275C70.3238 71.0655 70.4953 71.3542 70.6143 71.6937C70.7333 72.0297 70.7928 72.4077 70.7928 72.8277C70.7928 73.2477 70.7333 73.6275 70.6143 73.967C70.4953 74.3065 70.3238 74.5952 70.0998 74.8332C69.8793 75.0712 69.6098 75.255 69.2913 75.3845C68.9763 75.5105 68.6228 75.5735 68.2308 75.5735C67.8353 75.5735 67.4783 75.5105 67.1598 75.3845C66.8448 75.255 66.5753 75.0712 66.3513 74.8332C66.1273 74.5952 65.954 74.3065 65.8315 73.967C65.7125 73.6275 65.653 73.2477 65.653 72.8277C65.653 72.4077 65.7125 72.0297 65.8315 71.6937C65.954 71.3542 66.1273 71.0655 66.3513 70.8275C66.5753 70.586 66.8448 70.4022 67.1598 70.2762C67.4783 70.1467 67.8353 70.082 68.2308 70.082ZM68.2308 74.7755C68.7348 74.7755 69.111 74.6057 69.3595 74.2662C69.608 73.9267 69.7323 73.449 69.7323 72.833C69.7323 72.217 69.608 71.7392 69.3595 71.3997C69.111 71.0567 68.7348 70.8852 68.2308 70.8852C67.7198 70.8852 67.3383 71.0567 67.0863 71.3997C66.8378 71.7392 66.7135 72.217 66.7135 72.833C66.7135 73.449 66.8378 73.9267 67.0863 74.2662C67.3383 74.6057 67.7198 74.7755 68.2308 74.7755ZM75.6151 74.1875C75.7831 74.408 75.9633 74.562 76.1558 74.6495C76.3518 74.737 76.5706 74.7807 76.8121 74.7807C77.2811 74.7807 77.6433 74.6127 77.8988 74.2767C78.1578 73.9372 78.2873 73.4437 78.2873 72.7962C78.2873 72.4567 78.2576 72.168 78.1981 71.93C78.1421 71.6885 78.0581 71.4925 77.9461 71.342C77.8376 71.188 77.7028 71.076 77.5418 71.006C77.3808 70.9325 77.1988 70.8957 76.9958 70.8957C76.6983 70.8957 76.4393 70.9622 76.2188 71.0952C76.0018 71.2282 75.8006 71.4172 75.6151 71.6622V74.1875ZM75.5626 70.964C75.6746 70.831 75.7936 70.7102 75.9196 70.6017C76.0491 70.4897 76.1873 70.3952 76.3343 70.3182C76.4813 70.2377 76.6371 70.1765 76.8016 70.1345C76.9696 70.089 77.1481 70.0662 77.3371 70.0662C77.6416 70.0662 77.9163 70.1257 78.1613 70.2447C78.4098 70.3637 78.6216 70.5387 78.7966 70.7697C78.9716 71.0007 79.1063 71.286 79.2008 71.6255C79.2988 71.965 79.3478 72.3552 79.3478 72.7962C79.3478 73.1917 79.2936 73.5592 79.1851 73.8987C79.0801 74.2347 78.9278 74.527 78.7283 74.7755C78.5323 75.024 78.2908 75.22 78.0038 75.3635C77.7203 75.5035 77.4001 75.5735 77.0431 75.5735C76.7246 75.5735 76.4516 75.521 76.2241 75.416C75.9966 75.311 75.7936 75.164 75.6151 74.975V77.2903H74.5913V70.166H75.2056C75.3491 70.166 75.4383 70.2342 75.4733 70.3707L75.5626 70.964ZM83.3641 73.1322C82.9476 73.1462 82.5941 73.1795 82.3036 73.232C82.0131 73.281 81.7768 73.3475 81.5948 73.4315C81.4128 73.5155 81.2816 73.6152 81.2011 73.7307C81.1206 73.8427 81.0803 73.9687 81.0803 74.1087C81.0803 74.2417 81.1013 74.3572 81.1433 74.4552C81.1888 74.5497 81.2483 74.6285 81.3218 74.6915C81.3988 74.751 81.4881 74.7947 81.5896 74.8227C81.6911 74.8507 81.8013 74.8647 81.9203 74.8647C82.0778 74.8647 82.2213 74.849 82.3508 74.8175C82.4838 74.786 82.6081 74.7422 82.7236 74.6862C82.8391 74.6267 82.9493 74.555 83.0543 74.471C83.1593 74.387 83.2626 74.2907 83.3641 74.1822V73.1322ZM80.3611 70.9115C80.6586 70.628 80.9806 70.4162 81.3271 70.2762C81.6771 70.1362 82.0603 70.0662 82.4768 70.0662C82.7813 70.0662 83.0508 70.117 83.2853 70.2185C83.5198 70.3165 83.7176 70.4547 83.8786 70.6332C84.0396 70.8117 84.1603 71.0252 84.2408 71.2737C84.3248 71.5222 84.3668 71.797 84.3668 72.098V75.5H83.9101C83.8086 75.5 83.7316 75.4842 83.6791 75.4527C83.6266 75.4177 83.5846 75.3547 83.5531 75.2637L83.4428 74.7965C83.3063 74.9225 83.1716 75.0345 83.0386 75.1325C82.9056 75.227 82.7656 75.3092 82.6186 75.3792C82.4751 75.4457 82.3211 75.4965 82.1566 75.5315C81.9921 75.5665 81.8101 75.584 81.6106 75.584C81.4006 75.584 81.2028 75.556 81.0173 75.5C80.8353 75.4405 80.6761 75.3512 80.5396 75.2322C80.4031 75.1132 80.2946 74.9645 80.2141 74.786C80.1371 74.6075 80.0986 74.3992 80.0986 74.1612C80.0986 73.9512 80.1546 73.75 80.2666 73.5575C80.3821 73.3615 80.5676 73.1865 80.8231 73.0325C81.0821 72.8785 81.4181 72.7525 81.8311 72.6545C82.2476 72.5565 82.7586 72.5005 83.3641 72.4865V72.098C83.3641 71.6955 83.2783 71.3945 83.1068 71.195C82.9353 70.9955 82.6833 70.8957 82.3508 70.8957C82.1268 70.8957 81.9378 70.9237 81.7838 70.9797C81.6333 71.0357 81.5021 71.0987 81.3901 71.1687C81.2816 71.2352 81.1853 71.2965 81.1013 71.3525C81.0208 71.4085 80.9368 71.4365 80.8493 71.4365C80.7793 71.4365 80.7181 71.4172 80.6656 71.3787C80.6166 71.3402 80.5763 71.2947 80.5448 71.2422L80.3611 70.9115ZM90.266 70.166L87.305 77.0488C87.2735 77.1258 87.2315 77.1853 87.179 77.2273C87.1265 77.2693 87.0495 77.2903 86.948 77.2903H86.1868L87.1633 75.164L84.974 70.166H85.8665C85.954 70.166 86.0223 70.187 86.0713 70.229C86.1203 70.271 86.1553 70.3182 86.1763 70.3707L87.5308 73.5732C87.5588 73.6537 87.585 73.736 87.6095 73.82C87.6375 73.9005 87.6603 73.981 87.6778 74.0615C87.7023 73.9775 87.7285 73.8952 87.7565 73.8147C87.7845 73.7307 87.8143 73.6485 87.8458 73.568L89.153 70.3707C89.1775 70.3112 89.216 70.2622 89.2685 70.2238C89.321 70.1852 89.3805 70.166 89.447 70.166H90.266ZM93.1683 70.082C93.5603 70.082 93.9138 70.1467 94.2288 70.2762C94.5473 70.4022 94.8168 70.586 95.0373 70.8275C95.2613 71.0655 95.4328 71.3542 95.5518 71.6937C95.6708 72.0297 95.7303 72.4077 95.7303 72.8277C95.7303 73.2477 95.6708 73.6275 95.5518 73.967C95.4328 74.3065 95.2613 74.5952 95.0373 74.8332C94.8168 75.0712 94.5473 75.255 94.2288 75.3845C93.9138 75.5105 93.5603 75.5735 93.1683 75.5735C92.7728 75.5735 92.4158 75.5105 92.0973 75.3845C91.7823 75.255 91.5128 75.0712 91.2888 74.8332C91.0648 74.5952 90.8915 74.3065 90.769 73.967C90.65 73.6275 90.5905 73.2477 90.5905 72.8277C90.5905 72.4077 90.65 72.0297 90.769 71.6937C90.8915 71.3542 91.0648 71.0655 91.2888 70.8275C91.5128 70.586 91.7823 70.4022 92.0973 70.2762C92.4158 70.1467 92.7728 70.082 93.1683 70.082ZM93.1683 74.7755C93.6723 74.7755 94.0485 74.6057 94.297 74.2662C94.5455 73.9267 94.6698 73.449 94.6698 72.833C94.6698 72.217 94.5455 71.7392 94.297 71.3997C94.0485 71.0567 93.6723 70.8852 93.1683 70.8852C92.6573 70.8852 92.2758 71.0567 92.0238 71.3997C91.7753 71.7392 91.651 72.217 91.651 72.833C91.651 73.449 91.7753 73.9267 92.0238 74.2662C92.2758 74.6057 92.6573 74.7755 93.1683 74.7755ZM101.309 70.166V75.5H100.695C100.555 75.5 100.464 75.4317 100.422 75.2952L100.349 74.7597C100.233 74.8822 100.112 74.9942 99.9863 75.0957C99.8603 75.1972 99.7256 75.2847 99.5821 75.3582C99.4386 75.4282 99.2863 75.4825 99.1253 75.521C98.9643 75.563 98.7911 75.584 98.6056 75.584C98.3116 75.584 98.0526 75.535 97.8286 75.437C97.6081 75.339 97.4226 75.2025 97.2721 75.0275C97.1216 74.849 97.0078 74.6355 96.9308 74.387C96.8538 74.1385 96.8153 73.8637 96.8153 73.5627V70.166H97.8443V73.5627C97.8443 73.9442 97.9318 74.2417 98.1068 74.4552C98.2818 74.6652 98.5496 74.7702 98.9101 74.7702C99.1726 74.7702 99.4176 74.709 99.6451 74.5865C99.8726 74.4605 100.086 74.289 100.286 74.072V70.166H101.309ZM104.408 75.584C103.977 75.584 103.645 75.4632 103.41 75.2217C103.179 74.9802 103.064 74.6355 103.064 74.1875V70.9955H102.444C102.385 70.9955 102.334 70.978 102.292 70.943C102.254 70.9045 102.234 70.8485 102.234 70.775V70.3602L103.101 70.2395L103.332 68.6487C103.346 68.5892 103.372 68.5437 103.41 68.5122C103.452 68.4772 103.505 68.4597 103.568 68.4597H104.088V70.25H105.6V70.9955H104.088V74.1192C104.088 74.3292 104.138 74.4867 104.24 74.5917C104.345 74.6932 104.478 74.744 104.639 74.744C104.733 74.744 104.814 74.7317 104.88 74.7072C104.95 74.6827 105.01 74.6565 105.059 74.6285C105.108 74.597 105.15 74.569 105.185 74.5445C105.22 74.52 105.251 74.5077 105.279 74.5077C105.314 74.5077 105.341 74.5165 105.358 74.534C105.379 74.548 105.4 74.5725 105.421 74.6075L105.726 75.101C105.558 75.255 105.358 75.374 105.127 75.458C104.896 75.542 104.656 75.584 104.408 75.584Z" fill="#676767"/>
<path d="M17.679 51.763C18.315 51.679 18.795 51.466 19.119 51.124C19.449 50.776 19.614 50.323 19.614 49.765C19.614 49.537 19.572 49.339 19.488 49.171C19.41 48.997 19.296 48.844 19.146 48.712C19.002 48.58 18.831 48.466 18.633 48.37C18.435 48.274 18.219 48.184 17.985 48.1L17.679 51.763ZM17.103 42.25C16.767 42.292 16.482 42.364 16.248 42.466C16.014 42.562 15.822 42.682 15.672 42.826C15.522 42.97 15.411 43.132 15.339 43.312C15.273 43.492 15.24 43.681 15.24 43.879C15.24 44.107 15.279 44.308 15.357 44.482C15.441 44.65 15.552 44.803 15.69 44.941C15.834 45.073 16.002 45.193 16.194 45.301C16.386 45.403 16.596 45.499 16.824 45.589L17.103 42.25ZM18.156 46.021C18.588 46.153 19.017 46.3 19.443 46.462C19.869 46.618 20.25 46.822 20.586 47.074C20.928 47.326 21.204 47.641 21.414 48.019C21.624 48.391 21.729 48.859 21.729 49.423C21.729 49.981 21.636 50.506 21.45 50.998C21.264 51.484 20.991 51.916 20.631 52.294C20.271 52.666 19.83 52.972 19.308 53.212C18.786 53.446 18.189 53.584 17.517 53.626L17.409 54.949C17.403 55.087 17.343 55.213 17.229 55.327C17.121 55.447 16.983 55.507 16.815 55.507H15.996L16.158 53.581C15.456 53.485 14.796 53.293 14.178 53.005C13.56 52.717 13.035 52.36 12.603 51.934L13.287 50.917C13.347 50.827 13.425 50.755 13.521 50.701C13.623 50.641 13.731 50.611 13.845 50.611C13.977 50.611 14.118 50.659 14.268 50.755C14.418 50.845 14.589 50.953 14.781 51.079C14.973 51.199 15.192 51.322 15.438 51.448C15.684 51.574 15.975 51.667 16.311 51.727L16.644 47.704C16.218 47.584 15.795 47.443 15.375 47.281C14.961 47.119 14.586 46.906 14.25 46.642C13.92 46.372 13.653 46.033 13.449 45.625C13.245 45.217 13.143 44.707 13.143 44.095C13.143 43.639 13.233 43.195 13.413 42.763C13.593 42.325 13.857 41.935 14.205 41.593C14.559 41.251 14.991 40.969 15.501 40.747C16.011 40.525 16.596 40.399 17.256 40.369L17.355 39.235C17.367 39.091 17.427 38.962 17.535 38.848C17.643 38.734 17.784 38.677 17.958 38.677H18.777L18.633 40.441C19.269 40.543 19.818 40.726 20.28 40.99C20.742 41.248 21.141 41.539 21.477 41.863L20.937 42.682C20.859 42.802 20.778 42.892 20.694 42.952C20.61 43.012 20.508 43.042 20.388 43.042C20.298 43.042 20.19 43.015 20.064 42.961C19.938 42.901 19.797 42.832 19.641 42.754C19.485 42.67 19.308 42.586 19.11 42.502C18.918 42.418 18.705 42.349 18.471 42.295L18.156 46.021ZM27.6614 51.907C28.0274 51.907 28.3484 51.856 28.6244 51.754C28.9004 51.646 29.1314 51.499 29.3174 51.313C29.5094 51.127 29.6534 50.905 29.7494 50.647C29.8454 50.389 29.8934 50.11 29.8934 49.81C29.8934 49.096 29.6954 48.556 29.2994 48.19C28.9034 47.824 28.3574 47.641 27.6614 47.641C26.9654 47.641 26.4194 47.824 26.0234 48.19C25.6274 48.556 25.4294 49.096 25.4294 49.81C25.4294 50.11 25.4774 50.389 25.5734 50.647C25.6694 50.905 25.8104 51.127 25.9964 51.313C26.1884 51.499 26.4224 51.646 26.6984 51.754C26.9744 51.856 27.2954 51.907 27.6614 51.907ZM27.6614 42.016C27.3314 42.016 27.0464 42.067 26.8064 42.169C26.5664 42.271 26.3654 42.409 26.2034 42.583C26.0474 42.751 25.9304 42.946 25.8524 43.168C25.7804 43.39 25.7444 43.624 25.7444 43.87C25.7444 44.128 25.7744 44.38 25.8344 44.626C25.9004 44.866 26.0084 45.082 26.1584 45.274C26.3084 45.46 26.5064 45.61 26.7524 45.724C26.9984 45.838 27.3014 45.895 27.6614 45.895C28.0214 45.895 28.3244 45.838 28.5704 45.724C28.8164 45.61 29.0144 45.46 29.1644 45.274C29.3144 45.082 29.4194 44.866 29.4794 44.626C29.5454 44.38 29.5784 44.128 29.5784 43.87C29.5784 43.624 29.5394 43.39 29.4614 43.168C29.3834 42.946 29.2664 42.751 29.1104 42.583C28.9544 42.409 28.7564 42.271 28.5164 42.169C28.2764 42.067 27.9914 42.016 27.6614 42.016ZM29.8574 46.714C30.6494 46.972 31.2344 47.368 31.6124 47.902C31.9904 48.43 32.1794 49.078 32.1794 49.846C32.1794 50.422 32.0684 50.944 31.8464 51.412C31.6304 51.88 31.3244 52.279 30.9284 52.609C30.5324 52.939 30.0554 53.194 29.4974 53.374C28.9454 53.554 28.3334 53.644 27.6614 53.644C26.9894 53.644 26.3744 53.554 25.8164 53.374C25.2644 53.194 24.7904 52.939 24.3944 52.609C23.9984 52.279 23.6894 51.88 23.4674 51.412C23.2514 50.944 23.1434 50.422 23.1434 49.846C23.1434 49.078 23.3324 48.43 23.7104 47.902C24.0884 47.368 24.6734 46.972 25.4654 46.714C24.8354 46.45 24.3614 46.075 24.0434 45.589C23.7314 45.103 23.5754 44.518 23.5754 43.834C23.5754 43.342 23.6744 42.883 23.8724 42.457C24.0764 42.031 24.3584 41.662 24.7184 41.35C25.0784 41.032 25.5074 40.786 26.0054 40.612C26.5094 40.432 27.0614 40.342 27.6614 40.342C28.2614 40.342 28.8104 40.432 29.3084 40.612C29.8124 40.786 30.2444 41.032 30.6044 41.35C30.9644 41.662 31.2434 42.031 31.4414 42.457C31.6454 42.883 31.7474 43.342 31.7474 43.834C31.7474 44.518 31.5884 45.103 31.2704 45.589C30.9584 46.075 30.4874 46.45 29.8574 46.714ZM33.6568 52.276C33.6568 52.09 33.6898 51.913 33.7558 51.745C33.8278 51.577 33.9238 51.433 34.0438 51.313C34.1638 51.193 34.3078 51.097 34.4758 51.025C34.6438 50.953 34.8238 50.917 35.0158 50.917C35.2078 50.917 35.3848 50.953 35.5468 51.025C35.7148 51.097 35.8588 51.193 35.9788 51.313C36.1048 51.433 36.2038 51.577 36.2758 51.745C36.3478 51.913 36.3838 52.09 36.3838 52.276C36.3838 52.468 36.3478 52.648 36.2758 52.816C36.2038 52.978 36.1048 53.119 35.9788 53.239C35.8588 53.359 35.7148 53.452 35.5468 53.518C35.3848 53.59 35.2078 53.626 35.0158 53.626C34.8238 53.626 34.6438 53.59 34.4758 53.518C34.3078 53.452 34.1638 53.359 34.0438 53.239C33.9238 53.119 33.8278 52.978 33.7558 52.816C33.6898 52.648 33.6568 52.468 33.6568 52.276ZM45.9833 51.43C46.2233 51.43 46.4123 51.499 46.5503 51.637C46.6943 51.769 46.7663 51.946 46.7663 52.168V53.5H37.8383V52.762C37.8383 52.612 37.8683 52.456 37.9283 52.294C37.9943 52.126 38.0963 51.976 38.2343 51.844L42.1853 47.884C42.5153 47.548 42.8093 47.227 43.0673 46.921C43.3313 46.615 43.5503 46.312 43.7243 46.012C43.8983 45.712 44.0303 45.409 44.1203 45.103C44.2163 44.791 44.2643 44.464 44.2643 44.122C44.2643 43.81 44.2193 43.537 44.1293 43.303C44.0393 43.063 43.9103 42.862 43.7423 42.7C43.5803 42.538 43.3823 42.418 43.1483 42.34C42.9203 42.256 42.6623 42.214 42.3743 42.214C42.1103 42.214 41.8643 42.253 41.6363 42.331C41.4143 42.403 41.2163 42.508 41.0423 42.646C40.8683 42.778 40.7213 42.934 40.6013 43.114C40.4813 43.294 40.3913 43.492 40.3313 43.708C40.2293 43.984 40.0973 44.167 39.9353 44.257C39.7733 44.347 39.5393 44.368 39.2333 44.32L38.0633 44.113C38.1533 43.489 38.3273 42.943 38.5853 42.475C38.8433 42.001 39.1643 41.608 39.5483 41.296C39.9383 40.978 40.3823 40.741 40.8803 40.585C41.3843 40.423 41.9243 40.342 42.5003 40.342C43.1003 40.342 43.6493 40.432 44.1473 40.612C44.6453 40.786 45.0713 41.035 45.4253 41.359C45.7793 41.683 46.0553 42.073 46.2533 42.529C46.4513 42.985 46.5503 43.492 46.5503 44.05C46.5503 44.53 46.4783 44.974 46.3343 45.382C46.1963 45.79 46.0073 46.18 45.7673 46.552C45.5333 46.924 45.2573 47.284 44.9393 47.632C44.6213 47.98 44.2883 48.334 43.9403 48.694L41.0063 51.691C41.2883 51.607 41.5673 51.544 41.8433 51.502C42.1253 51.454 42.3923 51.43 42.6443 51.43H45.9833ZM51.4657 45.94H52.0327C52.2607 45.94 52.4497 45.91 52.5997 45.85C52.7497 45.784 52.8787 45.682 52.9867 45.544L56.5777 40.999C56.7277 40.807 56.8837 40.675 57.0457 40.603C57.2137 40.525 57.4237 40.486 57.6757 40.486H59.7637L55.3807 45.895C55.1227 46.225 54.8557 46.459 54.5797 46.597C54.7777 46.669 54.9547 46.771 55.1107 46.903C55.2727 47.029 55.4257 47.197 55.5697 47.407L60.0877 53.5H57.9547C57.6667 53.5 57.4507 53.461 57.3067 53.383C57.1687 53.299 57.0517 53.179 56.9557 53.023L53.2747 48.217C53.1607 48.055 53.0287 47.941 52.8787 47.875C52.7287 47.809 52.5127 47.776 52.2307 47.776H51.4657V53.5H49.0447V40.486H51.4657V45.94Z" fill="#292929"/>
<path d="M218.197 25.2682C214.856 24.0962 211.285 23.7294 207.775 24.1975C204.265 24.6657 200.916 25.9556 197.998 27.9623C195.081 29.9691 192.679 32.636 190.986 35.7463C189.294 38.8565 188.359 42.3223 188.259 45.8618L199.185 46.1718C199.237 44.3518 199.717 42.5697 200.587 40.9703C201.458 39.371 202.693 37.9996 204.193 36.9678C205.693 35.9359 207.416 35.2726 209.22 35.0319C211.025 34.7911 212.861 34.9798 214.579 35.5824L218.197 25.2682Z" fill="#E4E8EF"/>
<path d="M188.432 43.6419C187.886 47.9079 188.574 52.2411 190.414 56.1282C192.255 60.0154 195.171 63.2937 198.817 65.5747C202.463 67.8558 206.686 69.044 210.987 68.9988C215.287 68.9535 219.485 67.6766 223.082 65.3193C226.68 62.962 229.526 59.6231 231.284 55.6981C233.042 51.773 233.639 47.4263 233.003 43.1727C232.367 38.9192 230.525 34.937 227.695 31.6979C224.866 28.4588 221.168 26.0985 217.038 24.8965L213.983 35.3913C216.107 36.0094 218.009 37.2231 219.463 38.8886C220.918 40.5542 221.865 42.6019 222.192 44.7891C222.52 46.9763 222.213 49.2114 221.309 51.2297C220.405 53.248 218.941 54.9649 217.091 56.177C215.242 57.3892 213.083 58.0458 210.872 58.0691C208.66 58.0923 206.489 57.4813 204.614 56.3084C202.739 55.1354 201.239 53.4497 200.293 51.4509C199.347 49.4521 198.993 47.2239 199.274 45.0303L188.432 43.6419Z" fill="#4CE13F"/>
</svg>
