<svg width="253" height="95" viewBox="0 0 253 95" fill="none" xmlns="http://www.w3.org/2000/svg">
<rect width="252.75" height="94.5" rx="3.75" fill="white"/>
<path d="M18.1478 19.5687H15.8588V26H14.4465V19.5687H12.1575V18.4085H18.1478V19.5687ZM20.0587 20.5295C20.4577 20.5295 20.8199 20.5942 21.1454 20.7238C21.4744 20.8532 21.7544 21.037 21.9854 21.275C22.2199 21.513 22.4002 21.8035 22.5262 22.1465C22.6522 22.4895 22.7152 22.8727 22.7152 23.2962C22.7152 23.7232 22.6522 24.1082 22.5262 24.4512C22.4002 24.7942 22.2199 25.0865 21.9854 25.328C21.7544 25.5695 21.4744 25.755 21.1454 25.8845C20.8199 26.014 20.4577 26.0788 20.0587 26.0788C19.6562 26.0788 19.2904 26.014 18.9614 25.8845C18.6324 25.755 18.3507 25.5695 18.1162 25.328C17.8852 25.0865 17.7049 24.7942 17.5754 24.4512C17.4494 24.1082 17.3864 23.7232 17.3864 23.2962C17.3864 22.8727 17.4494 22.4895 17.5754 22.1465C17.7049 21.8035 17.8852 21.513 18.1162 21.275C18.3507 21.037 18.6324 20.8532 18.9614 20.7238C19.2904 20.5942 19.6562 20.5295 20.0587 20.5295ZM20.0587 25.0812C20.5067 25.0812 20.8374 24.9307 21.0509 24.6297C21.2679 24.3287 21.3764 23.8877 21.3764 23.3067C21.3764 22.7257 21.2679 22.283 21.0509 21.9785C20.8374 21.674 20.5067 21.5217 20.0587 21.5217C19.6037 21.5217 19.2659 21.6757 19.0454 21.9837C18.8284 22.2882 18.7199 22.7292 18.7199 23.3067C18.7199 23.8842 18.8284 24.3252 19.0454 24.6297C19.2659 24.9307 19.6037 25.0812 20.0587 25.0812ZM27.0855 21.989C26.9385 21.8105 26.7775 21.6845 26.6025 21.611C26.431 21.5375 26.2455 21.5007 26.046 21.5007C25.85 21.5007 25.6732 21.5375 25.5157 21.611C25.3582 21.6845 25.2235 21.7965 25.1115 21.947C24.9995 22.094 24.9137 22.283 24.8542 22.514C24.7947 22.7415 24.765 23.011 24.765 23.3225C24.765 23.6375 24.7895 23.9052 24.8385 24.1257C24.891 24.3427 24.9645 24.5212 25.059 24.6612C25.1535 24.7977 25.269 24.8975 25.4055 24.9605C25.542 25.02 25.6942 25.0497 25.8622 25.0497C26.1317 25.0497 26.361 24.9937 26.55 24.8817C26.739 24.7697 26.9175 24.6105 27.0855 24.404V21.989ZM28.3822 18.1985V26H27.5895C27.418 26 27.3095 25.9212 27.264 25.7637L27.1537 25.244C26.9367 25.4925 26.6865 25.6937 26.403 25.8477C26.123 26.0018 25.7957 26.0788 25.4212 26.0788C25.1272 26.0788 24.8577 26.0175 24.6127 25.895C24.3677 25.7725 24.156 25.5957 23.9775 25.3647C23.8025 25.1302 23.666 24.8415 23.568 24.4985C23.4735 24.1555 23.4262 23.7635 23.4262 23.3225C23.4262 22.9235 23.4805 22.5525 23.589 22.2095C23.6975 21.8665 23.8532 21.569 24.0562 21.317C24.2592 21.065 24.5025 20.869 24.786 20.729C25.0695 20.5855 25.388 20.5137 25.7415 20.5137C26.0425 20.5137 26.2997 20.561 26.5132 20.6555C26.7267 20.75 26.9175 20.8777 27.0855 21.0387V18.1985H28.3822ZM32.5075 23.7005C32.133 23.718 31.818 23.7512 31.5625 23.8002C31.307 23.8457 31.1022 23.9052 30.9482 23.9787C30.7942 24.0522 30.684 24.138 30.6175 24.236C30.551 24.334 30.5177 24.4407 30.5177 24.5562C30.5177 24.7837 30.5842 24.9465 30.7172 25.0445C30.8537 25.1425 31.0305 25.1915 31.2475 25.1915C31.5135 25.1915 31.7427 25.1442 31.9352 25.0497C32.1312 24.9517 32.322 24.8047 32.5075 24.6087V23.7005ZM29.536 21.3642C30.1555 20.7972 30.901 20.5137 31.7725 20.5137C32.0875 20.5137 32.3692 20.5662 32.6177 20.6712C32.8662 20.7727 33.0762 20.9162 33.2477 21.1017C33.4192 21.2837 33.5487 21.5025 33.6362 21.758C33.7272 22.0135 33.7727 22.2935 33.7727 22.598V26H33.1847C33.0622 26 32.9677 25.9825 32.9012 25.9475C32.8347 25.909 32.7822 25.8337 32.7437 25.7217L32.6282 25.3332C32.4917 25.4557 32.3587 25.5642 32.2292 25.6587C32.0997 25.7497 31.965 25.8267 31.825 25.8897C31.685 25.9527 31.5345 26 31.3735 26.0315C31.216 26.0665 31.041 26.084 30.8485 26.084C30.621 26.084 30.411 26.0543 30.2185 25.9947C30.026 25.9317 29.8597 25.839 29.7197 25.7165C29.5797 25.594 29.4712 25.4417 29.3942 25.2597C29.3172 25.0777 29.2787 24.866 29.2787 24.6245C29.2787 24.488 29.3015 24.3532 29.347 24.2202C29.3925 24.0837 29.466 23.9542 29.5675 23.8317C29.6725 23.7092 29.8072 23.5937 29.9717 23.4852C30.1362 23.3767 30.3375 23.2822 30.5755 23.2017C30.817 23.1212 31.097 23.0565 31.4155 23.0075C31.734 22.955 32.098 22.9235 32.5075 22.913V22.598C32.5075 22.2375 32.4305 21.9715 32.2765 21.8C32.1225 21.625 31.9002 21.5375 31.6097 21.5375C31.3997 21.5375 31.2247 21.562 31.0847 21.611C30.9482 21.66 30.8275 21.716 30.7225 21.779C30.6175 21.8385 30.5212 21.8927 30.4337 21.9417C30.3497 21.9907 30.2552 22.0152 30.1502 22.0152C30.0592 22.0152 29.9822 21.9925 29.9192 21.947C29.8562 21.898 29.8055 21.842 29.767 21.779L29.536 21.3642ZM39.7332 20.6135L36.7985 27.4805C36.76 27.5715 36.7092 27.6398 36.6462 27.6853C36.5867 27.7343 36.494 27.7588 36.368 27.7588H35.402L36.41 25.5957L34.2312 20.6135H35.3705C35.472 20.6135 35.5507 20.638 35.6067 20.687C35.6662 20.736 35.71 20.792 35.738 20.855L36.8825 23.648C36.921 23.7425 36.9525 23.837 36.977 23.9315C37.005 24.026 37.0312 24.1222 37.0557 24.2202C37.0872 24.1222 37.1187 24.026 37.1502 23.9315C37.1817 23.8335 37.2167 23.7372 37.2552 23.6427L38.3367 20.855C38.3647 20.785 38.4102 20.7272 38.4732 20.6817C38.5397 20.6362 38.6132 20.6135 38.6937 20.6135H39.7332ZM43.551 21.6635C43.516 21.7195 43.4793 21.7597 43.4408 21.7842C43.4023 21.8052 43.3533 21.8157 43.2938 21.8157C43.2308 21.8157 43.1625 21.7982 43.089 21.7632C43.019 21.7282 42.9368 21.6897 42.8423 21.6477C42.7478 21.6022 42.6393 21.562 42.5168 21.527C42.3978 21.492 42.256 21.4745 42.0915 21.4745C41.836 21.4745 41.6348 21.5287 41.4878 21.6372C41.3443 21.7457 41.2725 21.8875 41.2725 22.0625C41.2725 22.178 41.3093 22.276 41.3828 22.3565C41.4598 22.4335 41.5595 22.5017 41.682 22.5612C41.808 22.6207 41.9498 22.675 42.1073 22.724C42.2648 22.7695 42.424 22.8202 42.585 22.8762C42.7495 22.9322 42.9105 22.997 43.068 23.0705C43.2255 23.1405 43.3655 23.2315 43.488 23.3435C43.614 23.452 43.7138 23.5832 43.7873 23.7372C43.8643 23.8912 43.9028 24.0767 43.9028 24.2937C43.9028 24.5527 43.8555 24.7925 43.761 25.013C43.67 25.23 43.5335 25.419 43.3515 25.58C43.1695 25.7375 42.9438 25.8617 42.6743 25.9527C42.4083 26.0403 42.1003 26.084 41.7503 26.084C41.5648 26.084 41.3828 26.0665 41.2043 26.0315C41.0293 26 40.8595 25.9545 40.695 25.895C40.534 25.8355 40.3835 25.7655 40.2435 25.685C40.107 25.6045 39.9863 25.517 39.8813 25.4225L40.1805 24.929C40.219 24.8695 40.2645 24.824 40.317 24.7925C40.3695 24.761 40.436 24.7452 40.5165 24.7452C40.597 24.7452 40.6723 24.768 40.7423 24.8135C40.8158 24.859 40.8998 24.908 40.9943 24.9605C41.0888 25.013 41.199 25.062 41.325 25.1075C41.4545 25.153 41.6173 25.1757 41.8133 25.1757C41.9673 25.1757 42.0985 25.1582 42.207 25.1232C42.319 25.0847 42.41 25.0357 42.48 24.9762C42.5535 24.9167 42.606 24.8485 42.6375 24.7715C42.6725 24.691 42.69 24.6087 42.69 24.5247C42.69 24.3987 42.6515 24.2955 42.5745 24.215C42.501 24.1345 42.4013 24.0645 42.2753 24.005C42.1528 23.9455 42.011 23.893 41.85 23.8475C41.6925 23.7985 41.5298 23.746 41.3618 23.69C41.1973 23.634 41.0345 23.5692 40.8735 23.4957C40.716 23.4187 40.5743 23.3225 40.4483 23.207C40.3258 23.0915 40.226 22.9497 40.149 22.7817C40.0755 22.6137 40.0388 22.4107 40.0388 22.1727C40.0388 21.9522 40.0825 21.7422 40.17 21.5427C40.2575 21.3432 40.3853 21.17 40.5533 21.023C40.7248 20.8725 40.9365 20.7535 41.1885 20.666C41.444 20.575 41.738 20.5295 42.0705 20.5295C42.4415 20.5295 42.7793 20.5907 43.0838 20.7132C43.3883 20.8357 43.642 20.9967 43.845 21.1962L43.551 21.6635ZM51.6793 19.7892C51.6373 19.8627 51.5918 19.917 51.5428 19.952C51.4973 19.9835 51.4395 19.9992 51.3695 19.9992C51.296 19.9992 51.2155 19.973 51.128 19.9205C51.044 19.8645 50.9425 19.8032 50.8235 19.7367C50.7045 19.6702 50.5645 19.6107 50.4035 19.5582C50.246 19.5022 50.0588 19.4742 49.8418 19.4742C49.6458 19.4742 49.4743 19.4987 49.3273 19.5477C49.1803 19.5932 49.056 19.658 48.9545 19.742C48.8565 19.826 48.783 19.9275 48.734 20.0465C48.685 20.162 48.6605 20.2897 48.6605 20.4297C48.6605 20.6082 48.7095 20.757 48.8075 20.876C48.909 20.995 49.042 21.0965 49.2065 21.1805C49.371 21.2645 49.5583 21.3397 49.7683 21.4062C49.9783 21.4727 50.1935 21.5445 50.414 21.6215C50.6345 21.695 50.8498 21.7825 51.0598 21.884C51.2698 21.982 51.457 22.108 51.6215 22.262C51.786 22.4125 51.9173 22.598 52.0153 22.8185C52.1168 23.039 52.1675 23.3067 52.1675 23.6217C52.1675 23.9647 52.108 24.2867 51.989 24.5877C51.8735 24.8852 51.702 25.146 51.4745 25.37C51.2505 25.5905 50.9758 25.7655 50.6503 25.895C50.3248 26.021 49.952 26.084 49.532 26.084C49.2905 26.084 49.0525 26.0595 48.818 26.0105C48.5835 25.965 48.3578 25.8985 48.1408 25.811C47.9273 25.7235 47.726 25.6185 47.537 25.496C47.348 25.3735 47.18 25.237 47.033 25.0865L47.4478 24.4092C47.4828 24.3602 47.5283 24.32 47.5843 24.2885C47.6403 24.2535 47.6998 24.236 47.7628 24.236C47.8503 24.236 47.9448 24.2727 48.0463 24.3462C48.1478 24.4162 48.2685 24.495 48.4085 24.5825C48.5485 24.67 48.7113 24.7505 48.8968 24.824C49.0858 24.894 49.3115 24.929 49.574 24.929C49.9765 24.929 50.288 24.8345 50.5085 24.6455C50.729 24.453 50.8393 24.1782 50.8393 23.8212C50.8393 23.6217 50.7885 23.459 50.687 23.333C50.589 23.207 50.4578 23.102 50.2933 23.018C50.1288 22.9305 49.9415 22.857 49.7315 22.7975C49.5215 22.738 49.308 22.6732 49.091 22.6032C48.874 22.5332 48.6605 22.4492 48.4505 22.3512C48.2405 22.2532 48.0533 22.1255 47.8888 21.968C47.7243 21.8105 47.5913 21.6145 47.4898 21.38C47.3918 21.142 47.3428 20.8497 47.3428 20.5032C47.3428 20.2267 47.397 19.9572 47.5055 19.6947C47.6175 19.4322 47.7785 19.1995 47.9885 18.9965C48.1985 18.7935 48.4575 18.6307 48.7655 18.5082C49.0735 18.3857 49.427 18.3245 49.826 18.3245C50.274 18.3245 50.687 18.3945 51.065 18.5345C51.443 18.6745 51.765 18.8705 52.031 19.1225L51.6793 19.7892ZM55.9684 23.7005C55.5939 23.718 55.2789 23.7512 55.0234 23.8002C54.7679 23.8457 54.5632 23.9052 54.4092 23.9787C54.2552 24.0522 54.1449 24.138 54.0784 24.236C54.0119 24.334 53.9787 24.4407 53.9787 24.5562C53.9787 24.7837 54.0452 24.9465 54.1782 25.0445C54.3147 25.1425 54.4914 25.1915 54.7084 25.1915C54.9744 25.1915 55.2037 25.1442 55.3962 25.0497C55.5922 24.9517 55.7829 24.8047 55.9684 24.6087V23.7005ZM52.9969 21.3642C53.6164 20.7972 54.3619 20.5137 55.2334 20.5137C55.5484 20.5137 55.8302 20.5662 56.0787 20.6712C56.3272 20.7727 56.5372 20.9162 56.7087 21.1017C56.8802 21.2837 57.0097 21.5025 57.0972 21.758C57.1882 22.0135 57.2337 22.2935 57.2337 22.598V26H56.6457C56.5232 26 56.4287 25.9825 56.3622 25.9475C56.2957 25.909 56.2432 25.8337 56.2047 25.7217L56.0892 25.3332C55.9527 25.4557 55.8197 25.5642 55.6902 25.6587C55.5607 25.7497 55.4259 25.8267 55.2859 25.8897C55.1459 25.9527 54.9954 26 54.8344 26.0315C54.6769 26.0665 54.5019 26.084 54.3094 26.084C54.0819 26.084 53.8719 26.0543 53.6794 25.9947C53.4869 25.9317 53.3207 25.839 53.1807 25.7165C53.0407 25.594 52.9322 25.4417 52.8552 25.2597C52.7782 25.0777 52.7397 24.866 52.7397 24.6245C52.7397 24.488 52.7624 24.3532 52.8079 24.2202C52.8534 24.0837 52.9269 23.9542 53.0284 23.8317C53.1334 23.7092 53.2682 23.5937 53.4327 23.4852C53.5972 23.3767 53.7984 23.2822 54.0364 23.2017C54.2779 23.1212 54.5579 23.0565 54.8764 23.0075C55.1949 22.955 55.5589 22.9235 55.9684 22.913V22.598C55.9684 22.2375 55.8914 21.9715 55.7374 21.8C55.5834 21.625 55.3612 21.5375 55.0707 21.5375C54.8607 21.5375 54.6857 21.562 54.5457 21.611C54.4092 21.66 54.2884 21.716 54.1834 21.779C54.0784 21.8385 53.9822 21.8927 53.8947 21.9417C53.8107 21.9907 53.7162 22.0152 53.6112 22.0152C53.5202 22.0152 53.4432 21.9925 53.3802 21.947C53.3172 21.898 53.2664 21.842 53.2279 21.779L52.9969 21.3642ZM59.7675 18.1985V26H58.4707V18.1985H59.7675ZM64.5297 22.6872C64.5297 22.5192 64.5052 22.3617 64.4562 22.2147C64.4107 22.0642 64.3407 21.933 64.2462 21.821C64.1517 21.709 64.0309 21.6215 63.8839 21.5585C63.7404 21.492 63.5724 21.4587 63.3799 21.4587C63.0054 21.4587 62.7097 21.5655 62.4927 21.779C62.2792 21.9925 62.1427 22.2952 62.0832 22.6872H64.5297ZM62.0569 23.4695C62.0779 23.746 62.1269 23.9857 62.2039 24.1887C62.2809 24.3882 62.3824 24.5545 62.5084 24.6875C62.6344 24.817 62.7832 24.915 62.9547 24.9815C63.1297 25.0445 63.3222 25.076 63.5322 25.076C63.7422 25.076 63.9224 25.0515 64.0729 25.0025C64.2269 24.9535 64.3599 24.8992 64.4719 24.8397C64.5874 24.7802 64.6872 24.726 64.7712 24.677C64.8587 24.628 64.9427 24.6035 65.0232 24.6035C65.1317 24.6035 65.2122 24.6437 65.2647 24.7242L65.6374 25.1967C65.4939 25.3647 65.3329 25.5065 65.1544 25.622C64.9759 25.734 64.7887 25.825 64.5927 25.895C64.4002 25.9615 64.2024 26.0088 63.9994 26.0368C63.7999 26.0648 63.6057 26.0788 63.4167 26.0788C63.0422 26.0788 62.6939 26.0175 62.3719 25.895C62.0499 25.769 61.7699 25.5852 61.5319 25.3438C61.2939 25.0987 61.1067 24.7977 60.9702 24.4407C60.8337 24.0802 60.7654 23.6637 60.7654 23.1912C60.7654 22.8237 60.8249 22.479 60.9439 22.157C61.0629 21.8315 61.2327 21.5497 61.4532 21.3117C61.6772 21.0702 61.9484 20.8795 62.2669 20.7395C62.5889 20.5995 62.9512 20.5295 63.3537 20.5295C63.6932 20.5295 64.0064 20.5837 64.2934 20.6922C64.5804 20.8007 64.8272 20.96 65.0337 21.17C65.2402 21.3765 65.4012 21.632 65.5167 21.9365C65.6357 22.2375 65.6952 22.5822 65.6952 22.9707C65.6952 23.1667 65.6742 23.2997 65.6322 23.3697C65.5902 23.4362 65.5097 23.4695 65.3907 23.4695H62.0569ZM69.9548 21.6635C69.9198 21.7195 69.8831 21.7597 69.8446 21.7842C69.8061 21.8052 69.7571 21.8157 69.6976 21.8157C69.6346 21.8157 69.5663 21.7982 69.4928 21.7632C69.4228 21.7282 69.3406 21.6897 69.2461 21.6477C69.1516 21.6022 69.0431 21.562 68.9206 21.527C68.8016 21.492 68.6598 21.4745 68.4953 21.4745C68.2398 21.4745 68.0386 21.5287 67.8916 21.6372C67.7481 21.7457 67.6763 21.8875 67.6763 22.0625C67.6763 22.178 67.7131 22.276 67.7866 22.3565C67.8636 22.4335 67.9633 22.5017 68.0858 22.5612C68.2118 22.6207 68.3536 22.675 68.5111 22.724C68.6686 22.7695 68.8278 22.8202 68.9888 22.8762C69.1533 22.9322 69.3143 22.997 69.4718 23.0705C69.6293 23.1405 69.7693 23.2315 69.8918 23.3435C70.0178 23.452 70.1176 23.5832 70.1911 23.7372C70.2681 23.8912 70.3066 24.0767 70.3066 24.2937C70.3066 24.5527 70.2593 24.7925 70.1648 25.013C70.0738 25.23 69.9373 25.419 69.7553 25.58C69.5733 25.7375 69.3476 25.8617 69.0781 25.9527C68.8121 26.0403 68.5041 26.084 68.1541 26.084C67.9686 26.084 67.7866 26.0665 67.6081 26.0315C67.4331 26 67.2633 25.9545 67.0988 25.895C66.9378 25.8355 66.7873 25.7655 66.6473 25.685C66.5108 25.6045 66.3901 25.517 66.2851 25.4225L66.5843 24.929C66.6228 24.8695 66.6683 24.824 66.7208 24.7925C66.7733 24.761 66.8398 24.7452 66.9203 24.7452C67.0008 24.7452 67.0761 24.768 67.1461 24.8135C67.2196 24.859 67.3036 24.908 67.3981 24.9605C67.4926 25.013 67.6028 25.062 67.7288 25.1075C67.8583 25.153 68.0211 25.1757 68.2171 25.1757C68.3711 25.1757 68.5023 25.1582 68.6108 25.1232C68.7228 25.0847 68.8138 25.0357 68.8838 24.9762C68.9573 24.9167 69.0098 24.8485 69.0413 24.7715C69.0763 24.691 69.0938 24.6087 69.0938 24.5247C69.0938 24.3987 69.0553 24.2955 68.9783 24.215C68.9048 24.1345 68.8051 24.0645 68.6791 24.005C68.5566 23.9455 68.4148 23.893 68.2538 23.8475C68.0963 23.7985 67.9336 23.746 67.7656 23.69C67.6011 23.634 67.4383 23.5692 67.2773 23.4957C67.1198 23.4187 66.9781 23.3225 66.8521 23.207C66.7296 23.0915 66.6298 22.9497 66.5528 22.7817C66.4793 22.6137 66.4426 22.4107 66.4426 22.1727C66.4426 21.9522 66.4863 21.7422 66.5738 21.5427C66.6613 21.3432 66.7891 21.17 66.9571 21.023C67.1286 20.8725 67.3403 20.7535 67.5923 20.666C67.8478 20.575 68.1418 20.5295 68.4743 20.5295C68.8453 20.5295 69.1831 20.5907 69.4876 20.7132C69.7921 20.8357 70.0458 20.9967 70.2488 21.1962L69.9548 21.6635Z" fill="#525252"/>
<path d="M22.773 67.961L20.421 75.5H19.413L17.5755 69.9087C17.5335 69.7967 17.4968 69.662 17.4653 69.5045C17.4268 69.6655 17.39 69.8002 17.355 69.9087L15.4965 75.5H14.4938L12.1418 67.961H13.0763C13.1743 67.961 13.2565 67.9855 13.323 68.0345C13.3895 68.08 13.4333 68.143 13.4543 68.2235L14.94 73.2687C14.968 73.3667 14.9925 73.4735 15.0135 73.589C15.038 73.7045 15.0625 73.8252 15.087 73.9512C15.1115 73.8252 15.136 73.7045 15.1605 73.589C15.1885 73.4735 15.22 73.3667 15.255 73.2687L16.956 68.2235C16.977 68.1535 17.0208 68.0922 17.0873 68.0397C17.1573 67.9872 17.2395 67.961 17.334 67.961H17.6543C17.7523 67.961 17.8328 67.9855 17.8958 68.0345C17.9588 68.0835 18.0043 68.1465 18.0323 68.2235L19.728 73.2687C19.791 73.4612 19.847 73.68 19.896 73.925C19.938 73.6835 19.9835 73.4647 20.0325 73.2687L21.5235 68.2235C21.541 68.1535 21.5848 68.0922 21.6548 68.0397C21.7248 67.9872 21.807 67.961 21.9015 67.961H22.773ZM26.5577 72.2397C26.5577 72.0367 26.5279 71.8495 26.4684 71.678C26.4124 71.5065 26.3284 71.3577 26.2164 71.2317C26.1044 71.1057 25.9679 71.0077 25.8069 70.9377C25.6459 70.8677 25.4604 70.8327 25.2504 70.8327C24.8199 70.8327 24.4804 70.957 24.2319 71.2055C23.9869 71.454 23.8312 71.7987 23.7647 72.2397H26.5577ZM27.4029 74.7387C27.2769 74.8857 27.1317 75.0135 26.9672 75.122C26.8027 75.227 26.6277 75.3127 26.4422 75.3792C26.2567 75.4457 26.0642 75.4947 25.8647 75.5263C25.6687 75.5578 25.4744 75.5735 25.2819 75.5735C24.9144 75.5735 24.5732 75.5122 24.2582 75.3897C23.9467 75.2637 23.6754 75.0817 23.4444 74.8438C23.2169 74.6022 23.0384 74.3047 22.9089 73.9512C22.7829 73.5942 22.7199 73.1847 22.7199 72.7227C22.7199 72.3517 22.7777 72.007 22.8932 71.6885C23.0087 71.3665 23.1732 71.0865 23.3867 70.8485C23.6037 70.6105 23.8679 70.4232 24.1794 70.2867C24.4909 70.1502 24.8409 70.082 25.2294 70.082C25.5549 70.082 25.8542 70.1362 26.1272 70.2447C26.4037 70.3497 26.6417 70.5037 26.8412 70.7067C27.0407 70.9097 27.1964 71.16 27.3084 71.4575C27.4239 71.755 27.4817 72.0945 27.4817 72.476C27.4817 72.6335 27.4642 72.7402 27.4292 72.7962C27.3942 72.8487 27.3294 72.875 27.2349 72.875H23.7384C23.7489 73.1935 23.7944 73.4717 23.8749 73.7097C23.9554 73.9442 24.0657 74.1402 24.2057 74.2977C24.3492 74.4552 24.5189 74.5725 24.7149 74.6495C24.9109 74.7265 25.1297 74.765 25.3712 74.765C25.5987 74.765 25.7947 74.7387 25.9592 74.6862C26.1272 74.6337 26.2707 74.5777 26.3897 74.5182C26.5122 74.4552 26.6137 74.3975 26.6942 74.345C26.7782 74.2925 26.8517 74.2662 26.9147 74.2662C26.9987 74.2662 27.0634 74.2977 27.1089 74.3607L27.4029 74.7387ZM32.2616 70.8432C32.4856 70.6157 32.7323 70.432 33.0018 70.292C33.2748 70.152 33.5881 70.082 33.9416 70.082C34.2356 70.082 34.4928 70.131 34.7133 70.229C34.9373 70.327 35.1246 70.4652 35.2751 70.6437C35.4256 70.8187 35.5393 71.0305 35.6163 71.279C35.6933 71.5275 35.7318 71.8022 35.7318 72.1032V75.5H34.7028V72.1032C34.7028 71.7217 34.6153 71.426 34.4403 71.216C34.2653 71.0025 33.9976 70.8957 33.6371 70.8957C33.3746 70.8957 33.1278 70.9587 32.8968 71.0847C32.6693 71.2072 32.4576 71.3752 32.2616 71.5887V75.5H31.2378V67.751H32.2616V70.8432ZM39.9798 73.1322C39.5633 73.1462 39.2098 73.1795 38.9193 73.232C38.6288 73.281 38.3925 73.3475 38.2105 73.4315C38.0285 73.5155 37.8973 73.6152 37.8168 73.7307C37.7363 73.8427 37.696 73.9687 37.696 74.1087C37.696 74.2417 37.717 74.3572 37.759 74.4552C37.8045 74.5497 37.864 74.6285 37.9375 74.6915C38.0145 74.751 38.1038 74.7947 38.2053 74.8227C38.3068 74.8507 38.417 74.8647 38.536 74.8647C38.6935 74.8647 38.837 74.849 38.9665 74.8175C39.0995 74.786 39.2238 74.7422 39.3393 74.6862C39.4548 74.6267 39.565 74.555 39.67 74.471C39.775 74.387 39.8783 74.2907 39.9798 74.1822V73.1322ZM36.9768 70.9115C37.2743 70.628 37.5963 70.4162 37.9428 70.2762C38.2928 70.1362 38.676 70.0662 39.0925 70.0662C39.397 70.0662 39.6665 70.117 39.901 70.2185C40.1355 70.3165 40.3333 70.4547 40.4943 70.6332C40.6553 70.8117 40.776 71.0252 40.8565 71.2737C40.9405 71.5222 40.9825 71.797 40.9825 72.098V75.5H40.5258C40.4243 75.5 40.3473 75.4842 40.2948 75.4527C40.2423 75.4177 40.2003 75.3547 40.1688 75.2637L40.0585 74.7965C39.922 74.9225 39.7873 75.0345 39.6543 75.1325C39.5213 75.227 39.3813 75.3092 39.2343 75.3792C39.0908 75.4457 38.9368 75.4965 38.7723 75.5315C38.6078 75.5665 38.4258 75.584 38.2263 75.584C38.0163 75.584 37.8185 75.556 37.633 75.5C37.451 75.4405 37.2918 75.3512 37.1553 75.2322C37.0188 75.1132 36.9103 74.9645 36.8298 74.786C36.7528 74.6075 36.7143 74.3992 36.7143 74.1612C36.7143 73.9512 36.7703 73.75 36.8823 73.5575C36.9978 73.3615 37.1833 73.1865 37.4388 73.0325C37.6978 72.8785 38.0338 72.7525 38.4468 72.6545C38.8633 72.5565 39.3743 72.5005 39.9798 72.4865V72.098C39.9798 71.6955 39.894 71.3945 39.7225 71.195C39.551 70.9955 39.299 70.8957 38.9665 70.8957C38.7425 70.8957 38.5535 70.9237 38.3995 70.9797C38.249 71.0357 38.1178 71.0987 38.0058 71.1687C37.8973 71.2352 37.801 71.2965 37.717 71.3525C37.6365 71.4085 37.5525 71.4365 37.465 71.4365C37.395 71.4365 37.3338 71.4172 37.2813 71.3787C37.2323 71.3402 37.192 71.2947 37.1605 71.2422L36.9768 70.9115ZM46.8707 70.166L44.7077 75.5H43.7837L41.6207 70.166H42.466C42.5465 70.166 42.613 70.1852 42.6655 70.2238C42.718 70.2622 42.753 70.3112 42.7705 70.3707L44.0462 73.6467C44.0917 73.7832 44.1302 73.9197 44.1617 74.0562C44.1967 74.1892 44.2282 74.3222 44.2562 74.4552C44.2842 74.3222 44.3157 74.1892 44.3507 74.0562C44.3857 73.9232 44.4277 73.7867 44.4767 73.6467L45.7682 70.3707C45.7892 70.3112 45.826 70.2622 45.8785 70.2238C45.931 70.1852 45.994 70.166 46.0675 70.166H46.8707ZM51.0645 72.2397C51.0645 72.0367 51.0348 71.8495 50.9753 71.678C50.9193 71.5065 50.8353 71.3577 50.7233 71.2317C50.6113 71.1057 50.4748 71.0077 50.3138 70.9377C50.1528 70.8677 49.9673 70.8327 49.7573 70.8327C49.3268 70.8327 48.9873 70.957 48.7388 71.2055C48.4938 71.454 48.338 71.7987 48.2715 72.2397H51.0645ZM51.9098 74.7387C51.7838 74.8857 51.6385 75.0135 51.474 75.122C51.3095 75.227 51.1345 75.3127 50.949 75.3792C50.7635 75.4457 50.571 75.4947 50.3715 75.5263C50.1755 75.5578 49.9813 75.5735 49.7888 75.5735C49.4213 75.5735 49.08 75.5122 48.765 75.3897C48.4535 75.2637 48.1823 75.0817 47.9513 74.8438C47.7238 74.6022 47.5453 74.3047 47.4158 73.9512C47.2898 73.5942 47.2268 73.1847 47.2268 72.7227C47.2268 72.3517 47.2845 72.007 47.4 71.6885C47.5155 71.3665 47.68 71.0865 47.8935 70.8485C48.1105 70.6105 48.3748 70.4232 48.6863 70.2867C48.9978 70.1502 49.3478 70.082 49.7363 70.082C50.0618 70.082 50.361 70.1362 50.634 70.2447C50.9105 70.3497 51.1485 70.5037 51.348 70.7067C51.5475 70.9097 51.7033 71.16 51.8153 71.4575C51.9308 71.755 51.9885 72.0945 51.9885 72.476C51.9885 72.6335 51.971 72.7402 51.936 72.7962C51.901 72.8487 51.8363 72.875 51.7418 72.875H48.2453C48.2558 73.1935 48.3013 73.4717 48.3818 73.7097C48.4623 73.9442 48.5725 74.1402 48.7125 74.2977C48.856 74.4552 49.0258 74.5725 49.2218 74.6495C49.4178 74.7265 49.6365 74.765 49.878 74.765C50.1055 74.765 50.3015 74.7387 50.466 74.6862C50.634 74.6337 50.7775 74.5777 50.8965 74.5182C51.019 74.4552 51.1205 74.3975 51.201 74.345C51.285 74.2925 51.3585 74.2662 51.4215 74.2662C51.5055 74.2662 51.5703 74.2977 51.6158 74.3607L51.9098 74.7387ZM58.8894 71.0847C58.8614 71.1302 58.8316 71.1635 58.8001 71.1845C58.7686 71.202 58.7284 71.2107 58.6794 71.2107C58.6234 71.2107 58.5604 71.1915 58.4904 71.153C58.4239 71.1145 58.3416 71.0725 58.2436 71.027C58.1491 70.9815 58.0371 70.9395 57.9076 70.901C57.7781 70.8625 57.6241 70.8432 57.4456 70.8432C57.2986 70.8432 57.1639 70.8625 57.0414 70.901C56.9224 70.936 56.8209 70.9867 56.7369 71.0532C56.6529 71.1162 56.5881 71.1932 56.5426 71.2842C56.4971 71.3717 56.4744 71.4662 56.4744 71.5677C56.4744 71.7007 56.5129 71.811 56.5899 71.8985C56.6704 71.986 56.7736 72.0612 56.8996 72.1242C57.0291 72.1872 57.1744 72.245 57.3354 72.2975C57.4999 72.3465 57.6661 72.399 57.8341 72.455C58.0056 72.511 58.1719 72.5757 58.3329 72.6492C58.4974 72.7192 58.6426 72.8085 58.7686 72.917C58.8981 73.022 59.0014 73.1497 59.0784 73.3002C59.1589 73.4507 59.1991 73.6345 59.1991 73.8515C59.1991 74.1 59.1536 74.331 59.0626 74.5445C58.9751 74.7545 58.8439 74.9365 58.6689 75.0905C58.4974 75.2445 58.2839 75.3652 58.0284 75.4527C57.7729 75.5403 57.4806 75.584 57.1516 75.584C56.7841 75.584 56.4446 75.5228 56.1331 75.4002C55.8216 75.2777 55.5609 75.122 55.3509 74.933L55.5924 74.5392C55.6204 74.4902 55.6554 74.4535 55.6974 74.429C55.7394 74.401 55.7954 74.387 55.8654 74.387C55.9319 74.387 56.0001 74.4115 56.0701 74.4605C56.1401 74.5095 56.2241 74.5637 56.3221 74.6232C56.4201 74.6792 56.5391 74.7317 56.6791 74.7807C56.8191 74.8262 56.9941 74.849 57.2041 74.849C57.3791 74.849 57.5314 74.828 57.6609 74.786C57.7904 74.7405 57.8971 74.681 57.9811 74.6075C58.0686 74.5305 58.1334 74.443 58.1754 74.345C58.2174 74.247 58.2384 74.1437 58.2384 74.0352C58.2384 73.8952 58.1981 73.7797 58.1176 73.6887C58.0406 73.5942 57.9374 73.5137 57.8079 73.4472C57.6819 73.3807 57.5366 73.323 57.3721 73.274C57.2076 73.225 57.0396 73.1725 56.8681 73.1165C56.6966 73.0605 56.5286 72.9957 56.3641 72.9222C56.1996 72.8487 56.0526 72.756 55.9231 72.644C55.7971 72.532 55.6939 72.3955 55.6134 72.2345C55.5364 72.0735 55.4979 71.8775 55.4979 71.6465C55.4979 71.44 55.5399 71.2422 55.6239 71.0532C55.7114 70.8642 55.8356 70.698 55.9966 70.5545C56.1611 70.411 56.3624 70.2972 56.6004 70.2132C56.8419 70.1257 57.1166 70.082 57.4246 70.082C57.7781 70.082 58.0966 70.138 58.3801 70.25C58.6671 70.362 58.9121 70.516 59.1151 70.712L58.8894 71.0847ZM62.5809 70.082C62.9729 70.082 63.3264 70.1467 63.6414 70.2762C63.9599 70.4022 64.2294 70.586 64.4499 70.8275C64.6739 71.0655 64.8454 71.3542 64.9644 71.6937C65.0834 72.0297 65.1429 72.4077 65.1429 72.8277C65.1429 73.2477 65.0834 73.6275 64.9644 73.967C64.8454 74.3065 64.6739 74.5952 64.4499 74.8332C64.2294 75.0712 63.9599 75.255 63.6414 75.3845C63.3264 75.5105 62.9729 75.5735 62.5809 75.5735C62.1854 75.5735 61.8284 75.5105 61.5099 75.3845C61.1949 75.255 60.9254 75.0712 60.7014 74.8332C60.4774 74.5952 60.3041 74.3065 60.1816 73.967C60.0626 73.6275 60.0031 73.2477 60.0031 72.8277C60.0031 72.4077 60.0626 72.0297 60.1816 71.6937C60.3041 71.3542 60.4774 71.0655 60.7014 70.8275C60.9254 70.586 61.1949 70.4022 61.5099 70.2762C61.8284 70.1467 62.1854 70.082 62.5809 70.082ZM62.5809 74.7755C63.0849 74.7755 63.4611 74.6057 63.7096 74.2662C63.9581 73.9267 64.0824 73.449 64.0824 72.833C64.0824 72.217 63.9581 71.7392 63.7096 71.3997C63.4611 71.0567 63.0849 70.8852 62.5809 70.8852C62.0699 70.8852 61.6884 71.0567 61.4364 71.3997C61.1879 71.7392 61.0636 72.217 61.0636 72.833C61.0636 73.449 61.1879 73.9267 61.4364 74.2662C61.6884 74.6057 62.0699 74.7755 62.5809 74.7755ZM67.3357 67.751V75.5H66.3067V67.751H67.3357ZM72.2366 71.4575C72.0686 71.237 71.8866 71.083 71.6906 70.9955C71.4981 70.908 71.2811 70.8642 71.0396 70.8642C70.5706 70.8642 70.2066 71.034 69.9476 71.3735C69.6921 71.7095 69.5644 72.2012 69.5644 72.8488C69.5644 73.1882 69.5924 73.4787 69.6484 73.7202C69.7079 73.9582 69.7919 74.1542 69.9004 74.3082C70.0124 74.4587 70.1489 74.5707 70.3099 74.6442C70.4709 74.7142 70.6529 74.7492 70.8559 74.7492C71.1534 74.7492 71.4106 74.6827 71.6276 74.5497C71.8446 74.4167 72.0476 74.2295 72.2366 73.988V71.4575ZM73.2656 67.751V75.5H72.6461C72.5026 75.5 72.4134 75.4317 72.3784 75.2952L72.2891 74.681C72.0616 74.9505 71.8026 75.1675 71.5121 75.332C71.2251 75.493 70.8926 75.5735 70.5146 75.5735C70.2101 75.5735 69.9336 75.514 69.6851 75.395C69.4401 75.276 69.2301 75.1027 69.0551 74.8752C68.8801 74.6442 68.7454 74.359 68.6509 74.0195C68.5564 73.68 68.5091 73.2897 68.5091 72.8488C68.5091 72.4532 68.5616 72.0857 68.6666 71.7462C68.7716 71.4067 68.9239 71.1127 69.1234 70.8642C69.3229 70.6157 69.5644 70.4215 69.8479 70.2815C70.1314 70.138 70.4516 70.0662 70.8086 70.0662C71.1306 70.0662 71.4036 70.1187 71.6276 70.2238C71.8551 70.3287 72.0581 70.4775 72.2366 70.67V67.751H73.2656ZM81.9959 74.7177V75.5H77.9219V74.7177H79.5179V69.7775C79.5179 69.62 79.5231 69.4572 79.5336 69.2892L78.2526 70.376C78.2036 70.4145 78.1546 70.439 78.1056 70.4495C78.0566 70.46 78.0094 70.4617 77.9639 70.4547C77.9219 70.4477 77.8834 70.4337 77.8484 70.4127C77.8169 70.3882 77.7906 70.3637 77.7696 70.3392L77.4494 69.893L79.7069 67.9452H80.5416V74.7177H81.9959ZM87.8977 74.5287C88.0097 74.5287 88.0972 74.562 88.1602 74.6285C88.2232 74.6915 88.2547 74.7755 88.2547 74.8805V75.5H83.1937V75.1482C83.1937 75.0782 83.2077 75.0047 83.2357 74.9277C83.2637 74.8472 83.3109 74.7755 83.3774 74.7125L85.7609 72.3237C85.9604 72.1242 86.1407 71.9317 86.3017 71.7462C86.4627 71.5607 86.5992 71.377 86.7112 71.195C86.8232 71.0095 86.9089 70.8205 86.9684 70.628C87.0314 70.4355 87.0629 70.2325 87.0629 70.019C87.0629 69.809 87.0297 69.6252 86.9632 69.4677C86.8967 69.3067 86.8057 69.1737 86.6902 69.0687C86.5747 68.9637 86.4382 68.885 86.2807 68.8325C86.1232 68.78 85.9534 68.7537 85.7714 68.7537C85.5894 68.7537 85.4214 68.78 85.2674 68.8325C85.1169 68.885 84.9822 68.9585 84.8632 69.053C84.7442 69.1475 84.6444 69.2595 84.5639 69.389C84.4834 69.5185 84.4257 69.6585 84.3907 69.809C84.3417 69.942 84.2787 70.0312 84.2017 70.0768C84.1282 70.1222 84.0197 70.1327 83.8762 70.1082L83.3407 70.0137C83.3897 69.6637 83.4859 69.3557 83.6294 69.0897C83.7729 68.8237 83.9532 68.6015 84.1702 68.423C84.3872 68.241 84.6357 68.1045 84.9157 68.0135C85.1992 67.9225 85.5037 67.877 85.8292 67.877C86.1582 67.877 86.4609 67.926 86.7374 68.024C87.0174 68.1185 87.2589 68.2567 87.4619 68.4387C87.6649 68.6207 87.8242 68.843 87.9397 69.1055C88.0552 69.3645 88.1129 69.6585 88.1129 69.9875C88.1129 70.2675 88.0709 70.5282 87.9869 70.7697C87.9064 71.0077 87.7944 71.2352 87.6509 71.4522C87.5109 71.6692 87.3464 71.881 87.1574 72.0875C86.9719 72.2905 86.7742 72.497 86.5642 72.707L84.6532 74.66C84.8002 74.6215 84.9472 74.59 85.0942 74.5655C85.2447 74.541 85.3864 74.5287 85.5194 74.5287H87.8977ZM89.463 70.0137C89.5155 69.6637 89.6135 69.3557 89.757 69.0897C89.9005 68.8237 90.0808 68.6015 90.2978 68.423C90.5148 68.241 90.7633 68.1045 91.0433 68.0135C91.3268 67.9225 91.6313 67.877 91.9568 67.877C92.2823 67.877 92.5815 67.9242 92.8545 68.0187C93.1275 68.1097 93.3603 68.241 93.5528 68.4125C93.7488 68.5805 93.901 68.7835 94.0095 69.0215C94.118 69.2595 94.1723 69.522 94.1723 69.809C94.1723 70.0505 94.1425 70.264 94.083 70.4495C94.0235 70.635 93.9378 70.7977 93.8258 70.9377C93.7173 71.0777 93.5843 71.1967 93.4268 71.2947C93.2693 71.3892 93.0925 71.468 92.8965 71.531C93.376 71.664 93.7365 71.881 93.978 72.182C94.2195 72.4795 94.3403 72.8575 94.3403 73.316C94.3403 73.6695 94.2738 73.988 94.1408 74.2715C94.0078 74.5515 93.8258 74.7895 93.5948 74.9855C93.3638 75.178 93.0943 75.3267 92.7863 75.4317C92.4818 75.5333 92.1563 75.584 91.8098 75.584C91.4143 75.584 91.0748 75.5368 90.7913 75.4422C90.5078 75.3442 90.2663 75.2095 90.0668 75.038C89.8673 74.863 89.701 74.6547 89.568 74.4132C89.4385 74.1682 89.3283 73.9005 89.2373 73.61L89.6835 73.421C89.799 73.372 89.911 73.358 90.0195 73.379C90.128 73.4 90.2068 73.4612 90.2558 73.5627C90.3083 73.6677 90.3678 73.7867 90.4343 73.9197C90.5043 74.0492 90.597 74.1735 90.7125 74.2925C90.828 74.408 90.9715 74.506 91.143 74.5865C91.318 74.667 91.5368 74.7072 91.7993 74.7072C92.0513 74.7072 92.2718 74.667 92.4608 74.5865C92.6498 74.5025 92.8073 74.3957 92.9333 74.2662C93.0593 74.1332 93.1538 73.9862 93.2168 73.8252C93.2798 73.6642 93.3113 73.505 93.3113 73.3475C93.3113 73.1515 93.2868 72.9712 93.2378 72.8067C93.1888 72.6422 93.0943 72.5022 92.9543 72.3867C92.8178 72.2677 92.627 72.175 92.382 72.1085C92.137 72.042 91.8185 72.0087 91.4265 72.0087V71.2632C91.7485 71.2597 92.0198 71.2265 92.2403 71.1635C92.4643 71.1005 92.6445 71.013 92.781 70.901C92.9175 70.789 93.0155 70.656 93.075 70.502C93.138 70.348 93.1695 70.1765 93.1695 69.9875C93.1695 69.781 93.138 69.6007 93.075 69.4468C93.012 69.2927 92.9228 69.165 92.8073 69.0635C92.6953 68.9585 92.5605 68.8815 92.403 68.8325C92.249 68.78 92.081 68.7537 91.899 68.7537C91.717 68.7537 91.549 68.78 91.395 68.8325C91.241 68.885 91.1045 68.9585 90.9855 69.053C90.8665 69.1475 90.7668 69.2595 90.6863 69.389C90.6058 69.5185 90.548 69.6585 90.513 69.809C90.464 69.942 90.401 70.0312 90.324 70.0768C90.2505 70.1222 90.1438 70.1327 90.0038 70.1082L89.463 70.0137ZM99.3488 70.166V75.5H98.3251V70.166H99.3488ZM99.5431 68.5175C99.5431 68.612 99.5238 68.703 99.4853 68.7905C99.4468 68.8745 99.3943 68.9497 99.3278 69.0162C99.2648 69.0792 99.1896 69.13 99.1021 69.1685C99.0146 69.2035 98.9236 69.221 98.8291 69.221C98.7346 69.221 98.6453 69.2035 98.5613 69.1685C98.4773 69.13 98.4021 69.0792 98.3356 69.0162C98.2726 68.9497 98.2218 68.8745 98.1833 68.7905C98.1483 68.703 98.1308 68.612 98.1308 68.5175C98.1308 68.4195 98.1483 68.3285 98.1833 68.2445C98.2218 68.157 98.2726 68.0817 98.3356 68.0187C98.4021 67.9522 98.4773 67.9015 98.5613 67.8665C98.6453 67.828 98.7346 67.8087 98.8291 67.8087C98.9236 67.8087 99.0146 67.828 99.1021 67.8665C99.1896 67.9015 99.2648 67.9522 99.3278 68.0187C99.3943 68.0817 99.4468 68.157 99.4853 68.2445C99.5238 68.3285 99.5431 68.4195 99.5431 68.5175ZM102.501 75.584C102.07 75.584 101.738 75.4632 101.503 75.2217C101.272 74.9802 101.157 74.6355 101.157 74.1875V70.9955H100.537C100.478 70.9955 100.427 70.978 100.385 70.943C100.346 70.9045 100.327 70.8485 100.327 70.775V70.3602L101.193 70.2395L101.424 68.6487C101.438 68.5892 101.465 68.5437 101.503 68.5122C101.545 68.4772 101.598 68.4597 101.661 68.4597H102.18V70.25H103.692V70.9955H102.18V74.1192C102.18 74.3292 102.231 74.4867 102.333 74.5917C102.438 74.6932 102.571 74.744 102.732 74.744C102.826 74.744 102.907 74.7317 102.973 74.7072C103.043 74.6827 103.103 74.6565 103.152 74.6285C103.201 74.597 103.243 74.569 103.278 74.5445C103.313 74.52 103.344 74.5077 103.372 74.5077C103.407 74.5077 103.433 74.5165 103.451 74.534C103.472 74.548 103.493 74.5725 103.514 74.6075L103.818 75.101C103.65 75.255 103.451 75.374 103.22 75.458C102.989 75.542 102.749 75.584 102.501 75.584ZM108.138 72.2397C108.138 72.0367 108.108 71.8495 108.049 71.678C107.993 71.5065 107.909 71.3577 107.797 71.2317C107.685 71.1057 107.548 71.0077 107.387 70.9377C107.226 70.8677 107.041 70.8327 106.831 70.8327C106.4 70.8327 106.061 70.957 105.812 71.2055C105.567 71.454 105.411 71.7987 105.345 72.2397H108.138ZM108.983 74.7387C108.857 74.8857 108.712 75.0135 108.547 75.122C108.383 75.227 108.208 75.3127 108.022 75.3792C107.837 75.4457 107.644 75.4947 107.445 75.5263C107.249 75.5578 107.055 75.5735 106.862 75.5735C106.495 75.5735 106.153 75.5122 105.838 75.3897C105.527 75.2637 105.256 75.0817 105.025 74.8438C104.797 74.6022 104.619 74.3047 104.489 73.9512C104.363 73.5942 104.3 73.1847 104.3 72.7227C104.3 72.3517 104.358 72.007 104.473 71.6885C104.589 71.3665 104.753 71.0865 104.967 70.8485C105.184 70.6105 105.448 70.4232 105.76 70.2867C106.071 70.1502 106.421 70.082 106.81 70.082C107.135 70.082 107.434 70.1362 107.707 70.2447C107.984 70.3497 108.222 70.5037 108.421 70.7067C108.621 70.9097 108.777 71.16 108.889 71.4575C109.004 71.755 109.062 72.0945 109.062 72.476C109.062 72.6335 109.044 72.7402 109.009 72.7962C108.974 72.8487 108.91 72.875 108.815 72.875H105.319C105.329 73.1935 105.375 73.4717 105.455 73.7097C105.536 73.9442 105.646 74.1402 105.786 74.2977C105.929 74.4552 106.099 74.5725 106.295 74.6495C106.491 74.7265 106.71 74.765 106.951 74.765C107.179 74.765 107.375 74.7387 107.539 74.6862C107.707 74.6337 107.851 74.5777 107.97 74.5182C108.092 74.4552 108.194 74.3975 108.274 74.345C108.358 74.2925 108.432 74.2662 108.495 74.2662C108.579 74.2662 108.644 74.2977 108.689 74.3607L108.983 74.7387ZM110.162 75.5V70.166H110.776C110.92 70.166 111.009 70.2342 111.044 70.3707L111.118 70.88C111.314 70.6455 111.531 70.4547 111.769 70.3077C112.01 70.1572 112.292 70.082 112.614 70.082C112.967 70.082 113.254 70.18 113.475 70.376C113.695 70.5685 113.856 70.831 113.958 71.1635C114.035 70.9745 114.135 70.8117 114.257 70.6752C114.38 70.5387 114.516 70.4267 114.667 70.3392C114.817 70.2517 114.976 70.187 115.144 70.145C115.316 70.103 115.489 70.082 115.664 70.082C115.948 70.082 116.2 70.1275 116.42 70.2185C116.644 70.306 116.833 70.4355 116.987 70.607C117.141 70.7785 117.258 70.9902 117.339 71.2422C117.419 71.4942 117.46 71.7812 117.46 72.1032V75.5H116.431V72.1032C116.431 71.7042 116.343 71.4032 116.168 71.2002C115.997 70.9972 115.745 70.8957 115.412 70.8957C115.265 70.8957 115.125 70.922 114.992 70.9745C114.859 71.0235 114.742 71.0987 114.64 71.2002C114.542 71.3017 114.464 71.4277 114.404 71.5782C114.348 71.7287 114.32 71.9037 114.32 72.1032V75.5H113.291V72.1032C113.291 71.6902 113.209 71.3857 113.044 71.1897C112.88 70.9937 112.638 70.8957 112.32 70.8957C112.099 70.8957 111.895 70.9535 111.706 71.069C111.517 71.1845 111.343 71.342 111.186 71.5415V75.5H110.162ZM121.982 71.0847C121.954 71.1302 121.924 71.1635 121.892 71.1845C121.861 71.202 121.821 71.2107 121.772 71.2107C121.716 71.2107 121.653 71.1915 121.583 71.153C121.516 71.1145 121.434 71.0725 121.336 71.027C121.241 70.9815 121.129 70.9395 121 70.901C120.87 70.8625 120.716 70.8432 120.538 70.8432C120.391 70.8432 120.256 70.8625 120.134 70.901C120.015 70.936 119.913 70.9867 119.829 71.0532C119.745 71.1162 119.68 71.1932 119.635 71.2842C119.589 71.3717 119.567 71.4662 119.567 71.5677C119.567 71.7007 119.605 71.811 119.682 71.8985C119.763 71.986 119.866 72.0612 119.992 72.1242C120.121 72.1872 120.267 72.245 120.428 72.2975C120.592 72.3465 120.758 72.399 120.926 72.455C121.098 72.511 121.264 72.5757 121.425 72.6492C121.59 72.7192 121.735 72.8085 121.861 72.917C121.99 73.022 122.094 73.1497 122.171 73.3002C122.251 73.4507 122.291 73.6345 122.291 73.8515C122.291 74.1 122.246 74.331 122.155 74.5445C122.067 74.7545 121.936 74.9365 121.761 75.0905C121.59 75.2445 121.376 75.3652 121.121 75.4527C120.865 75.5403 120.573 75.584 120.244 75.584C119.876 75.584 119.537 75.5228 119.225 75.4002C118.914 75.2777 118.653 75.122 118.443 74.933L118.685 74.5392C118.713 74.4902 118.748 74.4535 118.79 74.429C118.832 74.401 118.888 74.387 118.958 74.387C119.024 74.387 119.092 74.4115 119.162 74.4605C119.232 74.5095 119.316 74.5637 119.414 74.6232C119.512 74.6792 119.631 74.7317 119.771 74.7807C119.911 74.8262 120.086 74.849 120.296 74.849C120.471 74.849 120.624 74.828 120.753 74.786C120.883 74.7405 120.989 74.681 121.073 74.6075C121.161 74.5305 121.226 74.443 121.268 74.345C121.31 74.247 121.331 74.1437 121.331 74.0352C121.331 73.8952 121.29 73.7797 121.21 73.6887C121.133 73.5942 121.03 73.5137 120.9 73.4472C120.774 73.3807 120.629 73.323 120.464 73.274C120.3 73.225 120.132 73.1725 119.96 73.1165C119.789 73.0605 119.621 72.9957 119.456 72.9222C119.292 72.8487 119.145 72.756 119.015 72.644C118.889 72.532 118.786 72.3955 118.706 72.2345C118.629 72.0735 118.59 71.8775 118.59 71.6465C118.59 71.44 118.632 71.2422 118.716 71.0532C118.804 70.8642 118.928 70.698 119.089 70.5545C119.253 70.411 119.455 70.2972 119.693 70.2132C119.934 70.1257 120.209 70.082 120.517 70.082C120.87 70.082 121.189 70.138 121.472 70.25C121.759 70.362 122.004 70.516 122.207 70.712L121.982 71.0847Z" fill="#676767"/>
<path d="M17.679 51.763C18.315 51.679 18.795 51.466 19.119 51.124C19.449 50.776 19.614 50.323 19.614 49.765C19.614 49.537 19.572 49.339 19.488 49.171C19.41 48.997 19.296 48.844 19.146 48.712C19.002 48.58 18.831 48.466 18.633 48.37C18.435 48.274 18.219 48.184 17.985 48.1L17.679 51.763ZM17.103 42.25C16.767 42.292 16.482 42.364 16.248 42.466C16.014 42.562 15.822 42.682 15.672 42.826C15.522 42.97 15.411 43.132 15.339 43.312C15.273 43.492 15.24 43.681 15.24 43.879C15.24 44.107 15.279 44.308 15.357 44.482C15.441 44.65 15.552 44.803 15.69 44.941C15.834 45.073 16.002 45.193 16.194 45.301C16.386 45.403 16.596 45.499 16.824 45.589L17.103 42.25ZM18.156 46.021C18.588 46.153 19.017 46.3 19.443 46.462C19.869 46.618 20.25 46.822 20.586 47.074C20.928 47.326 21.204 47.641 21.414 48.019C21.624 48.391 21.729 48.859 21.729 49.423C21.729 49.981 21.636 50.506 21.45 50.998C21.264 51.484 20.991 51.916 20.631 52.294C20.271 52.666 19.83 52.972 19.308 53.212C18.786 53.446 18.189 53.584 17.517 53.626L17.409 54.949C17.403 55.087 17.343 55.213 17.229 55.327C17.121 55.447 16.983 55.507 16.815 55.507H15.996L16.158 53.581C15.456 53.485 14.796 53.293 14.178 53.005C13.56 52.717 13.035 52.36 12.603 51.934L13.287 50.917C13.347 50.827 13.425 50.755 13.521 50.701C13.623 50.641 13.731 50.611 13.845 50.611C13.977 50.611 14.118 50.659 14.268 50.755C14.418 50.845 14.589 50.953 14.781 51.079C14.973 51.199 15.192 51.322 15.438 51.448C15.684 51.574 15.975 51.667 16.311 51.727L16.644 47.704C16.218 47.584 15.795 47.443 15.375 47.281C14.961 47.119 14.586 46.906 14.25 46.642C13.92 46.372 13.653 46.033 13.449 45.625C13.245 45.217 13.143 44.707 13.143 44.095C13.143 43.639 13.233 43.195 13.413 42.763C13.593 42.325 13.857 41.935 14.205 41.593C14.559 41.251 14.991 40.969 15.501 40.747C16.011 40.525 16.596 40.399 17.256 40.369L17.355 39.235C17.367 39.091 17.427 38.962 17.535 38.848C17.643 38.734 17.784 38.677 17.958 38.677H18.777L18.633 40.441C19.269 40.543 19.818 40.726 20.28 40.99C20.742 41.248 21.141 41.539 21.477 41.863L20.937 42.682C20.859 42.802 20.778 42.892 20.694 42.952C20.61 43.012 20.508 43.042 20.388 43.042C20.298 43.042 20.19 43.015 20.064 42.961C19.938 42.901 19.797 42.832 19.641 42.754C19.485 42.67 19.308 42.586 19.11 42.502C18.918 42.418 18.705 42.349 18.471 42.295L18.156 46.021ZM31.2704 51.43C31.5104 51.43 31.6994 51.499 31.8374 51.637C31.9814 51.769 32.0534 51.946 32.0534 52.168V53.5H23.1254V52.762C23.1254 52.612 23.1554 52.456 23.2154 52.294C23.2814 52.126 23.3834 51.976 23.5214 51.844L27.4724 47.884C27.8024 47.548 28.0964 47.227 28.3544 46.921C28.6184 46.615 28.8374 46.312 29.0114 46.012C29.1854 45.712 29.3174 45.409 29.4074 45.103C29.5034 44.791 29.5514 44.464 29.5514 44.122C29.5514 43.81 29.5064 43.537 29.4164 43.303C29.3264 43.063 29.1974 42.862 29.0294 42.7C28.8674 42.538 28.6694 42.418 28.4354 42.34C28.2074 42.256 27.9494 42.214 27.6614 42.214C27.3974 42.214 27.1514 42.253 26.9234 42.331C26.7014 42.403 26.5034 42.508 26.3294 42.646C26.1554 42.778 26.0084 42.934 25.8884 43.114C25.7684 43.294 25.6784 43.492 25.6184 43.708C25.5164 43.984 25.3844 44.167 25.2224 44.257C25.0604 44.347 24.8264 44.368 24.5204 44.32L23.3504 44.113C23.4404 43.489 23.6144 42.943 23.8724 42.475C24.1304 42.001 24.4514 41.608 24.8354 41.296C25.2254 40.978 25.6694 40.741 26.1674 40.585C26.6714 40.423 27.2114 40.342 27.7874 40.342C28.3874 40.342 28.9364 40.432 29.4344 40.612C29.9324 40.786 30.3584 41.035 30.7124 41.359C31.0664 41.683 31.3424 42.073 31.5404 42.529C31.7384 42.985 31.8374 43.492 31.8374 44.05C31.8374 44.53 31.7654 44.974 31.6214 45.382C31.4834 45.79 31.2944 46.18 31.0544 46.552C30.8204 46.924 30.5444 47.284 30.2264 47.632C29.9084 47.98 29.5754 48.334 29.2274 48.694L26.2934 51.691C26.5754 51.607 26.8544 51.544 27.1304 51.502C27.4124 51.454 27.6794 51.43 27.9314 51.43H31.2704ZM42.8728 46.993C42.8728 48.127 42.7498 49.114 42.5038 49.954C42.2638 50.788 41.9278 51.478 41.4958 52.024C41.0698 52.57 40.5628 52.978 39.9748 53.248C39.3928 53.512 38.7628 53.644 38.0848 53.644C37.4068 53.644 36.7768 53.512 36.1948 53.248C35.6188 52.978 35.1178 52.57 34.6918 52.024C34.2658 51.478 33.9328 50.788 33.6928 49.954C33.4528 49.114 33.3328 48.127 33.3328 46.993C33.3328 45.853 33.4528 44.866 33.6928 44.032C33.9328 43.198 34.2658 42.508 34.6918 41.962C35.1178 41.416 35.6188 41.011 36.1948 40.747C36.7768 40.477 37.4068 40.342 38.0848 40.342C38.7628 40.342 39.3928 40.477 39.9748 40.747C40.5628 41.011 41.0698 41.416 41.4958 41.962C41.9278 42.508 42.2638 43.198 42.5038 44.032C42.7498 44.866 42.8728 45.853 42.8728 46.993ZM40.5778 46.993C40.5778 46.051 40.5088 45.271 40.3708 44.653C40.2328 44.035 40.0468 43.543 39.8128 43.177C39.5848 42.811 39.3208 42.556 39.0208 42.412C38.7208 42.262 38.4088 42.187 38.0848 42.187C37.7668 42.187 37.4578 42.262 37.1578 42.412C36.8638 42.556 36.6028 42.811 36.3748 43.177C36.1468 43.543 35.9638 44.035 35.8258 44.653C35.6938 45.271 35.6278 46.051 35.6278 46.993C35.6278 47.935 35.6938 48.715 35.8258 49.333C35.9638 49.951 36.1468 50.443 36.3748 50.809C36.6028 51.175 36.8638 51.433 37.1578 51.583C37.4578 51.727 37.7668 51.799 38.0848 51.799C38.4088 51.799 38.7208 51.727 39.0208 51.583C39.3208 51.433 39.5848 51.175 39.8128 50.809C40.0468 50.443 40.2328 49.951 40.3708 49.333C40.5088 48.715 40.5778 47.935 40.5778 46.993ZM44.0982 52.276C44.0982 52.09 44.1312 51.913 44.1972 51.745C44.2692 51.577 44.3652 51.433 44.4852 51.313C44.6052 51.193 44.7492 51.097 44.9172 51.025C45.0852 50.953 45.2652 50.917 45.4572 50.917C45.6492 50.917 45.8262 50.953 45.9882 51.025C46.1562 51.097 46.3002 51.193 46.4202 51.313C46.5462 51.433 46.6452 51.577 46.7172 51.745C46.7892 51.913 46.8252 52.09 46.8252 52.276C46.8252 52.468 46.7892 52.648 46.7172 52.816C46.6452 52.978 46.5462 53.119 46.4202 53.239C46.3002 53.359 46.1562 53.452 45.9882 53.518C45.8262 53.59 45.6492 53.626 45.4572 53.626C45.2652 53.626 45.0852 53.59 44.9172 53.518C44.7492 53.452 44.6052 53.359 44.4852 53.239C44.3652 53.119 44.2692 52.978 44.1972 52.816C44.1312 52.648 44.0982 52.468 44.0982 52.276ZM54.0037 48.595V44.338C54.0037 43.936 54.0307 43.492 54.0847 43.006L50.0437 48.595H54.0037ZM57.5767 48.595V49.882C57.5767 50.002 57.5377 50.107 57.4597 50.197C57.3817 50.281 57.2707 50.323 57.1267 50.323H55.9387V53.5H54.0037V50.323H48.5137C48.3637 50.323 48.2317 50.278 48.1177 50.188C48.0037 50.092 47.9317 49.975 47.9017 49.837L47.6677 48.712L53.8327 40.477H55.9387V48.595H57.5767ZM61.9071 45.94H62.4741C62.7021 45.94 62.8911 45.91 63.0411 45.85C63.1911 45.784 63.3201 45.682 63.4281 45.544L67.0191 40.999C67.1691 40.807 67.3251 40.675 67.4871 40.603C67.6551 40.525 67.8651 40.486 68.1171 40.486H70.2051L65.8221 45.895C65.5641 46.225 65.2971 46.459 65.0211 46.597C65.2191 46.669 65.3961 46.771 65.5521 46.903C65.7141 47.029 65.8671 47.197 66.0111 47.407L70.5291 53.5H68.3961C68.1081 53.5 67.8921 53.461 67.7481 53.383C67.6101 53.299 67.4931 53.179 67.3971 53.023L63.7161 48.217C63.6021 48.055 63.4701 47.941 63.3201 47.875C63.1701 47.809 62.9541 47.776 62.6721 47.776H61.9071V53.5H59.4861V40.486H61.9071V45.94Z" fill="#292929"/>
<path d="M225.697 25.2682C222.356 24.0962 218.785 23.7294 215.275 24.1975C211.765 24.6657 208.416 25.9556 205.498 27.9623C202.581 29.9691 200.179 32.636 198.486 35.7463C196.794 38.8565 195.859 42.3223 195.759 45.8618L206.685 46.1718C206.737 44.3518 207.217 42.5697 208.087 40.9703C208.958 39.371 210.193 37.9996 211.693 36.9678C213.193 35.9359 214.916 35.2726 216.72 35.0319C218.525 34.7911 220.361 34.9798 222.079 35.5824L225.697 25.2682Z" fill="#E4E8EF"/>
<path d="M195.932 43.6419C195.386 47.9079 196.074 52.2411 197.914 56.1282C199.755 60.0154 202.671 63.2937 206.317 65.5747C209.963 67.8558 214.186 69.044 218.487 68.9988C222.787 68.9535 226.985 67.6766 230.582 65.3193C234.18 62.962 237.026 59.6231 238.784 55.6981C240.542 51.773 241.139 47.4263 240.503 43.1727C239.867 38.9192 238.025 34.937 235.195 31.6979C232.366 28.4588 228.668 26.0985 224.538 24.8965L221.483 35.3913C223.607 36.0094 225.509 37.2231 226.963 38.8886C228.418 40.5542 229.365 42.6019 229.692 44.7891C230.02 46.9763 229.713 49.2114 228.809 51.2297C227.905 53.248 226.441 54.9649 224.591 56.177C222.742 57.3892 220.583 58.0458 218.372 58.0691C216.16 58.0923 213.989 57.4813 212.114 56.3084C210.239 55.1354 208.739 53.4497 207.793 51.4509C206.847 49.4521 206.493 47.2239 206.774 45.0303L195.932 43.6419Z" fill="#475BE8"/>
</svg>
