<svg width="50" height="50" viewBox="0 0 50 50" fill="none" xmlns="http://www.w3.org/2000/svg">
<g clip-path="url(#clip0_545_1269)">
<path d="M38.8886 41.6667H22.2219V30.5555H19.4441V41.6667H11.1108V30.5555H8.33301V41.6667C8.33301 42.4034 8.62567 43.1099 9.1466 43.6308C9.66753 44.1518 10.3741 44.4444 11.1108 44.4444H38.8886C39.6253 44.4444 40.3318 44.1518 40.8527 43.6308C41.3737 43.1099 41.6663 42.4034 41.6663 41.6667V30.5555H38.8886V41.6667Z" fill="black"/>
<path d="M46.9301 18.4305L41.2635 7.09721C41.0335 6.63441 40.679 6.24495 40.2398 5.9726C39.8006 5.70025 39.2942 5.55582 38.7774 5.55554H11.2218C10.705 5.55582 10.1986 5.70025 9.75937 5.9726C9.32018 6.24495 8.96567 6.63441 8.7357 7.09721L3.06903 18.4305C2.87555 18.8187 2.77567 19.2468 2.77737 19.6805V23.9583C2.7761 24.6074 3.00214 25.2363 3.41625 25.7361C4.02828 26.4377 4.78417 26.9993 5.63255 27.3827C6.48093 27.7662 7.40192 27.9625 8.33292 27.9583C9.85205 27.9607 11.3248 27.4354 12.4996 26.4722C13.6743 27.4359 15.1468 27.9626 16.6663 27.9626C18.1857 27.9626 19.6582 27.4359 20.8329 26.4722C22.0077 27.4359 23.4801 27.9626 24.9996 27.9626C26.519 27.9626 27.9915 27.4359 29.1663 26.4722C30.341 27.4359 31.8135 27.9626 33.3329 27.9626C34.8524 27.9626 36.3249 27.4359 37.4996 26.4722C38.8109 27.5489 40.4886 28.0753 42.18 27.9406C43.8714 27.8059 45.4446 27.0207 46.569 25.75C46.9882 25.2522 47.2192 24.623 47.2218 23.9722V19.6805C47.2235 19.2468 47.1236 18.8187 46.9301 18.4305ZM20.8329 20V22.1111L19.694 23.6111C19.3444 24.0876 18.8875 24.4751 18.3603 24.7422C17.833 25.0093 17.2503 25.1485 16.6593 25.1485C16.0683 25.1485 15.4856 25.0093 14.9583 24.7422C14.4311 24.4751 13.9742 24.0876 13.6246 23.6111L12.4996 22.0555V20L16.0968 8.33332H22.2218L20.8329 20ZM37.4996 22.0555L36.3746 23.6111C36.025 24.0876 35.5681 24.4751 35.0408 24.7422C34.5136 25.0093 33.9309 25.1485 33.3399 25.1485C32.7488 25.1485 32.1661 25.0093 31.6389 24.7422C31.1117 24.4751 30.6548 24.0876 30.3051 23.6111L29.1663 22.0555V20L27.7774 8.33332H33.9579L37.4996 20V22.0555Z" fill="black"/>
</g>
<defs>
<clipPath id="clip0_545_1269">
<rect width="50" height="50" fill="white"/>
</clipPath>
</defs>
</svg>
