<svg width="92" height="82" viewBox="0 0 92 82" fill="none" xmlns="http://www.w3.org/2000/svg">
<path d="M24.8664 46.3498V48.9567V54.9511C24.8664 56.7654 27.0202 57.8787 28.8331 57.0541C29.2735 56.8525 29.803 56.7196 30.5089 56.7196C33.3292 56.7196 33.3292 58.8577 36.1497 58.8577C38.9702 58.8577 38.97 56.7196 41.7922 56.7196C44.6125 56.7196 44.6125 58.8577 47.4347 58.8577C49.4377 58.8577 50.0186 57.7794 51.1958 57.1548C52.3713 56.5317 53.0773 55.3908 53.0773 54.1737V51.275H55.6766C57.1143 51.275 58.2778 50.2365 58.2778 48.9566V43.7425C58.2778 42.4628 57.1143 41.4241 55.6766 41.4241H27.4675C26.0316 41.4241 24.8664 42.4626 24.8664 43.7425V46.3498ZM39.0232 33.8173H63.4113V62.9234H13.314V33.8173H39.0232Z" fill="white" stroke="#1E1729" stroke-width="0.001675"/>
<path d="M28.1202 72.035H13.29C10.8946 72.035 8.95142 70.303 8.95142 68.168V66.8119H24.2273V68.5652C24.2273 70.4817 25.9698 72.035 28.1202 72.035Z" fill="#CCCCCC" stroke="#1E1729" stroke-width="0.001675"/>
<path d="M39.0232 33.8173H13.3139V62.9234H63.4113V33.8173H39.0232ZM39.0232 29.929H65.6473C66.8211 29.929 67.7738 30.778 67.7738 31.8243V66.8119H24.2272H8.95142V31.8243C8.95142 30.778 9.90406 29.929 11.0779 29.929H39.0232Z" fill="#F2F2F2" stroke="#1E1729" stroke-width="0.001675"/>
<path d="M83.0478 66.8118V68.5651C83.0478 70.4818 81.3051 72.035 79.1547 72.035H67.7737H28.1201C25.9697 72.035 24.2271 70.4818 24.2271 68.5651V66.8118H67.7737H83.0478Z" fill="#F2F2F2" stroke="#1E1729" stroke-width="0.001675"/>
<path d="M42.0012 9.96484V26.5828H39.0232H35.7144V9.96484H42.0012Z" fill="#F7B239" stroke="#1E1729" stroke-width="0.001675"/>
<path d="M27.4677 41.4244C28.9035 41.4244 30.0688 42.4629 30.0688 43.7428V48.9569C30.0688 49.5968 29.7776 50.1771 29.3063 50.5955C28.8351 51.0155 28.1857 51.2751 27.4678 51.2751C26.032 51.2751 24.8667 50.2366 24.8667 48.9567V46.3498V43.7428C24.8665 42.4629 26.0317 41.4244 27.4677 41.4244Z" fill="#CCCCCC" stroke="#1E1729" stroke-width="0.001675"/>
<path d="M53.0774 51.275V54.1737C53.0774 55.3909 52.3714 56.5318 51.1959 57.1549C50.0188 57.7795 49.4378 58.8578 47.4348 58.8578C44.6126 58.8578 44.6126 56.7197 41.7923 56.7197C38.9701 56.7197 38.9701 58.8578 36.1498 58.8578C33.3294 58.8578 33.3294 56.7197 30.5089 56.7197C29.8029 56.7197 29.2734 56.8526 28.8332 57.0542C27.0203 57.8788 24.8665 56.7655 24.8665 54.9512V48.9568C24.8665 50.2366 26.0316 51.2752 27.4676 51.2752H53.0774V51.275Z" fill="#7E57C2" stroke="#1E1729" stroke-width="0.001675"/>
<path d="M58.2778 43.7428V48.9568C58.2778 50.2366 57.1143 51.2752 55.6767 51.2752H53.0773H27.4677C28.1857 51.2752 28.8351 51.0157 29.3062 50.5956C29.7774 50.1772 30.0687 49.5968 30.0687 48.957V43.743C30.0687 42.4632 28.9035 41.4246 27.4675 41.4246H55.6767C57.1145 41.4244 58.2778 42.4629 58.2778 43.7428Z" fill="#7E57C2" stroke="#1E1729" stroke-width="0.001675"/>
<path d="M83.0483 65.6664H69.0583V31.8237C69.0583 30.1474 67.5283 28.7837 65.6479 28.7837H40.3088V27.7279H42.0005C42.7104 27.7279 43.2856 27.215 43.2856 26.5825V9.96509C43.2856 9.33247 42.7104 8.8197 42.0005 8.8197H35.7145C35.0046 8.8197 34.4294 9.3326 34.4294 9.96509V26.5825C34.4294 27.2151 35.0046 27.7279 35.7145 27.7279H37.7386V28.7837H11.0772C9.19679 28.7838 7.66675 30.1474 7.66675 31.8237V68.1683C7.66675 70.932 10.1896 73.1804 13.2901 73.1804H28.12H67.7731H79.1551C82.0105 73.1804 84.3334 71.1099 84.3334 68.5649V66.8117C84.3334 66.1791 83.758 65.6664 83.0483 65.6664ZM36.9997 11.1106H40.7156V25.4372H36.9997V11.1106ZM10.237 31.8237C10.237 31.4107 10.6139 31.0746 11.0774 31.0746H37.7386V32.6715H13.3137C12.6038 32.6715 12.0287 33.1844 12.0287 33.8169V62.9241C12.0287 63.5567 12.6038 64.0695 13.3137 64.0695H63.4112C64.1211 64.0695 64.6963 63.5566 64.6963 62.9241V33.8168C64.6963 33.1841 64.1211 32.6714 63.4112 32.6714H40.3088V31.0745H65.6477C66.111 31.0745 66.488 31.4104 66.488 31.8236V65.6662H10.237V31.8237ZM22.1394 47.4953H23.5815V54.9515C23.5815 56.1862 24.2835 57.3063 25.4591 57.9482C26.6644 58.6063 28.1439 58.6531 29.4175 58.074C29.6145 57.9843 29.9423 57.8651 30.5083 57.8651C31.4463 57.8651 31.8416 58.1648 32.4967 58.6613C33.2438 59.2275 34.2671 60.0032 36.1501 60.0032C38.0329 60.0032 39.0562 59.2275 39.8033 58.6613C40.4584 58.1648 40.8538 57.8651 41.7916 57.8651C42.7298 57.8651 43.1252 58.1648 43.7803 58.6614C44.5275 59.2277 45.5509 60.0032 47.434 60.0032C49.3171 60.0032 50.3404 59.2277 51.0876 58.6614C51.35 58.4625 51.5979 58.2747 51.8535 58.139C53.4004 57.3185 54.3614 55.799 54.3614 54.1738V52.4205H55.6772C57.8199 52.4205 59.563 50.8669 59.563 48.957V43.7428C59.563 41.8332 57.8199 40.2793 55.6772 40.2793H27.4673C25.3245 40.2793 23.5814 41.833 23.5814 43.7428V45.2045H22.1392C21.6589 45.2045 21.2682 44.8563 21.2682 44.4282V39.9102C21.2682 39.482 21.6589 39.1338 22.1392 39.1338H36.8673C38.7648 39.1338 40.3085 37.7579 40.3085 36.0668V34.9621H62.1258V61.7784H14.5988V34.9623H37.7385V36.0669C37.7385 36.4948 37.3478 36.843 36.8675 36.843H22.1394C20.2419 36.843 18.6982 38.2189 18.6982 39.9102V44.4282C18.6982 46.1196 20.2419 47.4953 22.1394 47.4953ZM26.5801 45.2044H26.1516V43.7427C26.1516 43.0962 26.7418 42.5701 27.4673 42.5701C28.1928 42.5701 28.7829 43.0961 28.7829 43.7427V48.9569C28.7829 49.6034 28.1928 50.1295 27.4673 50.1295C26.7418 50.1295 26.1516 49.6035 26.1516 48.9569V47.4953H26.5801C27.29 47.4953 27.8651 46.9824 27.8651 46.3499C27.8651 45.7174 27.2898 45.2044 26.5801 45.2044ZM26.1516 52.2156C26.5627 52.3479 27.0056 52.4202 27.4673 52.4202H51.7913V54.1735C51.7913 54.9954 51.3115 55.7606 50.539 56.1702C50.0976 56.4044 49.7389 56.6761 49.4227 56.916C48.7674 57.4124 48.372 57.7121 47.434 57.7121C46.496 57.7121 46.1004 57.4124 45.4453 56.9158C44.6981 56.3495 43.6748 55.574 41.7916 55.574C39.9087 55.574 38.8854 56.3497 38.1383 56.916C37.4832 57.4124 37.0877 57.7121 36.1499 57.7121C35.2119 57.7121 34.8166 57.4124 34.1615 56.916C33.4145 56.3497 32.3911 55.574 30.5082 55.574C29.6675 55.574 28.9286 55.7241 28.2489 56.0332C27.779 56.2472 27.2377 56.2326 26.8012 55.9943C26.3884 55.7688 26.1516 55.3889 26.1516 54.9512V52.2156ZM31.1235 50.1295C31.2718 49.7631 31.353 49.3683 31.353 48.9569V43.7427C31.353 43.3312 31.2715 42.9365 31.1235 42.5701H55.6773C56.4026 42.5701 56.9929 43.0961 56.9929 43.7427V48.9569C56.9929 49.6034 56.4028 50.1295 55.6773 50.1295H31.1235ZM10.237 68.1681V67.9573H22.9418V68.5649C22.9418 69.4123 23.2004 70.2063 23.6494 70.8896H13.2901C11.6065 70.8895 10.237 69.6687 10.237 68.1681ZM81.7631 68.5649C81.7631 69.8467 80.5932 70.8896 79.155 70.8896H67.773H28.12C26.6819 70.8896 25.5121 69.8468 25.5121 68.5649V67.9573H67.7731H81.7631V68.5649Z" fill="#333333" stroke="#1E1729" stroke-width="0.001675"/>
</svg>
