<svg width="64" height="64" viewBox="0 0 64 64" fill="none" xmlns="http://www.w3.org/2000/svg">
<path d="M13 54H51V25H13V54ZM34.889 31C34.889 30.7348 34.9944 30.4804 35.1819 30.2929C35.3694 30.1054 35.6238 30 35.889 30H47.889C48.1542 30 48.4086 30.1054 48.5961 30.2929C48.7836 30.4804 48.889 30.7348 48.889 31V51C48.889 51.2652 48.7836 51.5196 48.5961 51.7071C48.4086 51.8946 48.1542 52 47.889 52H35.889C35.6238 52 35.3694 51.8946 35.1819 51.7071C34.9944 51.5196 34.889 51.2652 34.889 51V31ZM18 31H30C30.2652 31 30.5196 31.1054 30.7071 31.2929C30.8946 31.4804 31 31.7348 31 32C31 32.2652 30.8946 32.5196 30.7071 32.7071C30.5196 32.8946 30.2652 33 30 33H18C17.7348 33 17.4804 32.8946 17.2929 32.7071C17.1054 32.5196 17 32.2652 17 32C17 31.7348 17.1054 31.4804 17.2929 31.2929C17.4804 31.1054 17.7348 31 18 31ZM17 36C17 35.7348 17.1054 35.4804 17.2929 35.2929C17.4804 35.1054 17.7348 35 18 35H30C30.2652 35 30.5196 35.1054 30.7071 35.2929C30.8946 35.4804 31 35.7348 31 36V48C31 48.2652 30.8946 48.5196 30.7071 48.7071C30.5196 48.8946 30.2652 49 30 49H18C17.7348 49 17.4804 48.8946 17.2929 48.7071C17.1054 48.5196 17 48.2652 17 48V36Z" fill="white"/>
<path d="M58.613 15L55.279 5H8.72096L5.38696 15H58.613Z" fill="#7E57C2"/>
<path d="M11 17H9V23H11V17Z" fill="white"/>
<path d="M31 17H29V23H31V17Z" fill="white"/>
<path d="M15 17H13V23H15V17Z" fill="white"/>
<path d="M35 17H33V23H35V17Z" fill="white"/>
<path d="M19 17H17V23H19V17Z" fill="white"/>
<path d="M39 17H37V23H39V17Z" fill="white"/>
<path d="M23 17H21V23H23V17Z" fill="white"/>
<path d="M43 17H41V23H43V17Z" fill="white"/>
<path d="M47 17H45V23H47V17Z" fill="white"/>
<path d="M51 17H49V23H51V17Z" fill="white"/>
<path d="M55 17H53V23H55V17Z" fill="white"/>
<path d="M27 17H25V23H27V17Z" fill="white"/>
<path d="M46.8889 32H36.8889V50H46.8889V32ZM44.8889 43C44.8889 43.2652 44.7836 43.5196 44.596 43.7071C44.4085 43.8946 44.1541 44 43.8889 44C43.6237 44 43.3693 43.8946 43.1818 43.7071C42.9943 43.5196 42.8889 43.2652 42.8889 43V39C42.8889 38.7348 42.9943 38.4804 43.1818 38.2929C43.3693 38.1054 43.6237 38 43.8889 38C44.1541 38 44.4085 38.1054 44.596 38.2929C44.7836 38.4804 44.8889 38.7348 44.8889 39V43Z" fill="white"/>
<path d="M35.8889 52H47.8889C48.1541 52 48.4085 51.8946 48.596 51.7071C48.7836 51.5196 48.8889 51.2652 48.8889 51V31C48.8889 30.7348 48.7836 30.4804 48.596 30.2929C48.4085 30.1054 48.1541 30 47.8889 30H35.8889C35.6237 30 35.3693 30.1054 35.1818 30.2929C34.9943 30.4804 34.8889 30.7348 34.8889 31V51C34.8889 51.2652 34.9943 51.5196 35.1818 51.7071C35.3693 51.8946 35.6237 52 35.8889 52ZM36.8889 32H46.8889V50H36.8889V32Z" fill="#1E1729"/>
<path d="M23 43H19V47H23V43Z" fill="white"/>
<path d="M29 37H25V41H29V37Z" fill="white"/>
<path d="M59 56H5V59H59V56Z" fill="#7E57C2"/>
<path d="M60 54H53V25H56C56.2652 25 56.5196 24.8946 56.7071 24.7071C56.8946 24.5196 57 24.2652 57 24V17H60C60.1584 17 60.3146 16.9624 60.4557 16.8903C60.5968 16.8181 60.7187 16.7134 60.8113 16.5849C60.904 16.4564 60.9648 16.3077 60.9888 16.151C61.0127 15.9944 60.9991 15.8343 60.949 15.684L56.949 3.684C56.8826 3.48479 56.7553 3.31153 56.5849 3.18876C56.4146 3.06599 56.21 2.99995 56 3H8C7.79003 2.99995 7.58538 3.06599 7.41505 3.18876C7.24471 3.31153 7.11735 3.48479 7.051 3.684L3.051 15.684C3.00093 15.8343 2.9873 15.9944 3.01123 16.151C3.03516 16.3077 3.09597 16.4564 3.18865 16.5849C3.28133 16.7134 3.40323 16.8181 3.54429 16.8903C3.68535 16.9624 3.84154 17 4 17H7V24C7 24.2652 7.10535 24.5196 7.29289 24.7071C7.48043 24.8946 7.73478 25 8 25H11V54H4C3.73478 54 3.48043 54.1054 3.29289 54.2929C3.10535 54.4804 3 54.7348 3 55V60C3 60.2652 3.10535 60.5196 3.29289 60.7071C3.48043 60.8946 3.73478 61 4 61H60C60.2652 61 60.5196 60.8946 60.7071 60.7071C60.8946 60.5196 61 60.2652 61 60V55C61 54.7348 60.8946 54.4804 60.7071 54.2929C60.5196 54.1054 60.2652 54 60 54ZM59 59H5V56H59V59ZM55.279 5L58.613 15H5.387L8.721 5H55.279ZM51 54H13V25H51V54ZM11 17V23H9V17H11ZM51 17V23H49V17H51ZM17 23V17H19V23H17ZM21 23V17H23V23H21ZM25 23V17H27V23H25ZM29 23V17H31V23H29ZM33 23V17H35V23H33ZM37 23V17H39V23H37ZM41 23V17H43V23H41ZM47 23H45V17H47V23ZM15 17V23H13V17H15ZM55 23H53V17H55V23Z" fill="#1E1729"/>
<path d="M18 33H30C30.2652 33 30.5196 32.8946 30.7071 32.7071C30.8946 32.5196 31 32.2652 31 32C31 31.7348 30.8946 31.4804 30.7071 31.2929C30.5196 31.1054 30.2652 31 30 31H18C17.7348 31 17.4804 31.1054 17.2929 31.2929C17.1054 31.4804 17 31.7348 17 32C17 32.2652 17.1054 32.5196 17.2929 32.7071C17.4804 32.8946 17.7348 33 18 33Z" fill="#1E1729"/>
<path d="M43.8889 38C43.6237 38 43.3693 38.1054 43.1818 38.2929C42.9943 38.4804 42.8889 38.7348 42.8889 39V43C42.8889 43.2652 42.9943 43.5196 43.1818 43.7071C43.3693 43.8946 43.6237 44 43.8889 44C44.1541 44 44.4085 43.8946 44.596 43.7071C44.7836 43.5196 44.8889 43.2652 44.8889 43V39C44.8889 38.7348 44.7836 38.4804 44.596 38.2929C44.4085 38.1054 44.1541 38 43.8889 38Z" fill="#1E1729"/>
<path d="M23 37H19V41H23V37Z" fill="white"/>
<path d="M29 43H25V47H29V43Z" fill="white"/>
<path d="M18 49H30C30.2652 49 30.5196 48.8946 30.7071 48.7071C30.8946 48.5196 31 48.2652 31 48V36C31 35.7348 30.8946 35.4804 30.7071 35.2929C30.5196 35.1054 30.2652 35 30 35H18C17.7348 35 17.4804 35.1054 17.2929 35.2929C17.1054 35.4804 17 35.7348 17 36V48C17 48.2652 17.1054 48.5196 17.2929 48.7071C17.4804 48.8946 17.7348 49 18 49ZM19 37H23V41H19V37ZM25 37H29V41H25V37ZM29 47H25V43H29V47ZM19 43H23V47H19V43Z" fill="#1E1729"/>
</svg>
