<svg width="50" height="50" viewBox="0 0 50 50" fill="none" xmlns="http://www.w3.org/2000/svg">
<path d="M2.08301 26.0417V36.4583C2.08301 37.0109 2.3025 37.5408 2.6932 37.9315C3.0839 38.3222 3.61381 38.5417 4.16634 38.5417H6.24967C6.24967 40.1993 6.90816 41.789 8.08026 42.9611C9.25236 44.1332 10.8421 44.7917 12.4997 44.7917C14.1573 44.7917 15.747 44.1332 16.9191 42.9611C18.0912 41.789 18.7497 40.1993 18.7497 38.5417H31.2497C31.2497 40.1993 31.9082 41.789 33.0803 42.9611C34.2524 44.1332 35.8421 44.7917 37.4997 44.7917C39.1573 44.7917 40.747 44.1332 41.9191 42.9611C43.0912 41.789 43.7497 40.1993 43.7497 38.5417H45.833C46.3855 38.5417 46.9155 38.3222 47.3062 37.9315C47.6969 37.5408 47.9163 37.0109 47.9163 36.4583V11.4583C47.9163 9.80073 47.2579 8.21102 46.0858 7.03892C44.9137 5.86682 43.3239 5.20834 41.6663 5.20834H22.9163C21.2587 5.20834 19.669 5.86682 18.4969 7.03892C17.3248 8.21102 16.6663 9.80073 16.6663 11.4583V15.625H12.4997C11.5294 15.625 10.5724 15.8509 9.70459 16.2848C8.83674 16.7188 8.08184 17.3488 7.49967 18.125L2.49967 24.7917C2.43874 24.8822 2.38973 24.9803 2.35384 25.0833L2.22884 25.3125C2.1369 25.5448 2.0875 25.7918 2.08301 26.0417ZM35.4163 38.5417C35.4163 38.1296 35.5385 37.7268 35.7674 37.3842C35.9964 37.0416 36.3217 36.7746 36.7024 36.6169C37.0831 36.4592 37.502 36.418 37.9061 36.4984C38.3102 36.5788 38.6815 36.7772 38.9728 37.0685C39.2642 37.3599 39.4626 37.7311 39.543 38.1352C39.6234 38.5394 39.5821 38.9582 39.4244 39.3389C39.2667 39.7196 38.9997 40.045 38.6571 40.2739C38.3145 40.5028 37.9117 40.625 37.4997 40.625C36.9471 40.625 36.4172 40.4055 36.0265 40.0148C35.6358 39.6241 35.4163 39.0942 35.4163 38.5417ZM20.833 11.4583C20.833 10.9058 21.0525 10.3759 21.4432 9.9852C21.8339 9.5945 22.3638 9.375 22.9163 9.375H41.6663C42.2189 9.375 42.7488 9.5945 43.1395 9.9852C43.5302 10.3759 43.7497 10.9058 43.7497 11.4583V34.375H42.1247C41.5389 33.7305 40.8249 33.2156 40.0284 32.8632C39.2319 32.5108 38.3706 32.3288 37.4997 32.3288C36.6287 32.3288 35.7674 32.5108 34.971 32.8632C34.1745 33.2156 33.4605 33.7305 32.8747 34.375H20.833V11.4583ZM16.6663 23.9583H8.33301L10.833 20.625C11.0271 20.3663 11.2787 20.1563 11.568 20.0116C11.8573 19.867 12.1762 19.7917 12.4997 19.7917H16.6663V23.9583ZM10.4163 38.5417C10.4163 38.1296 10.5385 37.7268 10.7674 37.3842C10.9964 37.0416 11.3217 36.7746 11.7024 36.6169C12.0831 36.4592 12.502 36.418 12.9061 36.4984C13.3102 36.5788 13.6815 36.7772 13.9728 37.0685C14.2642 37.3599 14.4626 37.7311 14.543 38.1352C14.6234 38.5394 14.5821 38.9582 14.4244 39.3389C14.2667 39.7196 13.9997 40.045 13.6571 40.2739C13.3145 40.5028 12.9117 40.625 12.4997 40.625C11.9471 40.625 11.4172 40.4055 11.0265 40.0148C10.6358 39.6241 10.4163 39.0942 10.4163 38.5417ZM6.24967 28.125H16.6663V33.9167C15.4368 32.8178 13.8229 32.2494 12.1761 32.3353C10.5294 32.4211 8.98327 33.1543 7.87467 34.375H6.24967V28.125Z" fill="#4A4A4A"/>
</svg>
